<svg viewBox="0 0 12 8" xmlns="http://www.w3.org/2000/svg"><path d="M4.79 6.442L.843 2.497Q.68 2.333.591 2.118.5 1.903.5 1.671t.09-.447Q.68 1.01.844.845L.845.844Q.886.804.93.767q.045-.036.092-.068.048-.032.099-.06.05-.026.103-.048.053-.022.108-.039.055-.016.111-.028.057-.01.114-.016T1.67.502q.058 0 .115.006.057.005.113.016.056.012.111.028.055.017.108.039t.104.049q.05.027.098.059t.092.068q.044.036.085.077L5.673 4.02 8.85.844q.04-.04.085-.077.045-.036.092-.068.048-.032.099-.06.05-.026.103-.048.053-.022.108-.039.055-.016.111-.028.057-.01.114-.016t.114-.006q.057 0 .115.006.057.005.113.016.056.012.111.028.055.017.108.039t.104.049q.05.027.098.059t.092.068q.044.036.085.077l.001.001q.04.041.077.085.037.045.069.092.031.048.058.099.027.05.05.103.021.053.038.108.017.055.028.111.011.057.017.114.005.057.005.114 0 .058-.005.115-.006.057-.017.113-.011.056-.028.111t-.039.108q-.022.053-.049.104-.027.05-.058.098-.032.048-.069.092-.036.044-.077.085L6.557 6.442q-.026.03-.055.059l-.001.001q-.165.165-.38.254t-.448.088h-.002q-.232 0-.447-.089-.214-.088-.379-.253l-.001-.001-.055-.059z" fill="#1CABE2" fill-rule="evenodd"/></svg>