<svg baseProfile="tiny" xmlns="http://www.w3.org/2000/svg" viewBox="0 190 499.9 120"><path fill="#1CABE2" d="M430.5 284.5c26 0 47.2-21.1 47.2-47.3 0-26-21.1-47.2-47.2-47.2-26 0-47.2 21.1-47.2 47.2 0 26.2 21.1 47.3 47.2 47.3zm36.9-73.6c-2.5 1.6-4.9 3.2-7.6 4.4-1.6-3.2-3.5-6-5.6-8.8 1.9-1.2 3.7-2.5 5.5-3.9 2.8 2.3 5.5 5.2 7.7 8.3zm-9.3-9.7c-1.8 1.4-3.3 2.6-5.3 3.7-2.3-2.6-4.9-5.1-7.7-7.2.9-.9 1.8-1.6 2.5-2.6 3.7 1.6 7.2 3.7 10.5 6.1zm-6.8 4.8c-2.5 1.4-5.3 2.5-7.9 3.3-1.1-2.6-2.5-5.3-3.9-7.7 1.6-.7 3-1.6 4.2-2.6 2.6 2.1 5.3 4.4 7.6 7zm-5.7-11.6l-2.1 2.1c-2.5-1.8-5.1-3.2-7.9-4.4 3.5.5 6.9 1.2 10 2.3zm-3.7 3.5c-1.1.9-2.3 1.4-3.7 2.1-1.4-2.1-3-4.2-4.6-6.3 3 1 5.7 2.4 8.3 4.2zm-10.4-4c1.8 2.1 3.3 4.4 4.9 6.7-1.6.5-3.2.9-4.9.9v-7.6zm0 9.5c2.1 0 4-.4 6-1.1 1.4 2.3 2.8 4.9 3.9 7.6-3.2.9-6.5 1.2-9.9 1.4v-7.9zm-1.9-9.4v7.4c-1.6 0-3.2-.4-4.8-.9 1.5-2.2 3-4.4 4.8-6.5zm-6.7 5.8c-1.2-.5-2.5-1.2-3.5-2.1 2.5-1.8 5.3-3.2 8.1-4.4-1.8 2.3-3.2 4.4-4.6 6.5zm2.7-7.7c-2.8 1.2-5.5 2.6-7.9 4.4l-2.1-2.1c3.3-1.1 6.4-1.8 10-2.3zm-12 3.2c.7.9 1.6 1.8 2.5 2.6-1.9 1.4-6 5.1-6 5.1s.5 0 1.1.2c.4 0 1.1.4 1.1.4s3.7-3 5.3-4.2c1.4 1.1 2.8 1.9 4.2 2.6-.7 1.4-2.8 5.3-2.8 5.3s.5.4.9.5c.4.4.7.5.7.5s2.3-4.2 3.2-5.6c1.9.5 3.9.9 5.8 1.1v7.7c-1.1 0-3.9-.2-5.1-.2h-.7l.4.5c.4.5.5.9.7 1.2l.2.2h.2c.9 0 3.3.2 4.4.2v14.1h1.9v-3.2c2.8-.2 5.3-.4 8.1-.5h.2l2.6-2.3-1.4.2c-3 .4-5.8.5-8.3.7h-1.2v-9c3.5 0 7.2-.5 10.6-1.6.9 2.3 2.6 8.1 2.6 8.1l1.9-.5s-1.8-5.6-2.8-7.9c3-.9 5.8-2.1 8.4-3.5 2.3 2.6 4 5.6 5.6 8.6-1.4.7-3.9 1.6-3.9 1.6 1.9.2 3.5.7 3.5.7s.7-.4 1.2-.5c.2.4.5 1.2.5 1.2l2.5 1.1-.4-.7s-.9-2.1-1.1-2.5c2.6-1.4 5.3-2.8 7.9-4.6 4.8 7.4 7.4 15.8 7.4 24.6 0 14.8-7 27.8-18 36.1-6.3-3.5-6.5-8.3-6.2-10 .4-1.8 1.6-1.1 2.5-1.1 4 0 8.4-1.2 13.7-6.7 6-6.2 7.9-19.9-1.4-28.9-10-9.7-20.6-7.9-27.5.7-1.4 1.8-4.8 3.2-7.7 3-4.4-.2-1.6 3.3-1.6 4s-.7 1.2-1.1 1.1c-1.4-.4-.9 1.8-.9 2.5s-.5 1.1-.9 1.1c-1.8 0-1.4 1.8-1.2 2.1 0 .4-.2 1.2-.7 1.6-.5.4-1.2 1.8-1.2 3 0 1.9 1.8 3.3 4.9 5.6s3.5 4.4 3.5 6 .2 4 .9 5.8c.9 1.9.7 5.6-3.5 5.8-5.1.2-14.4 4.4-15.1 4.6-3 1.1-6.9 1.4-9.9.7-1.6-1.2-3.2-2.5-4.6-3.7-.5-2.1.5-4.4 1.4-5.8 1.8 1.8 4.4 1.6 5.8 1.8 1.4 0 8.6-1.1 9.5-1.4s1.4-.2 1.9 0c2.6 1.1 6.5 1.2 7.9-3.9 1.4-5.1-2.1-3.7-2.5-3.5-.5.2-1.1.2-.9-.4.7-1.4-.4-1.2-.9-1.2-1.4-.2-3.3 1.4-3.9 1.9-.5.5-1.2.5-1.4.4-1.9-1.1-7.7.4-9.5-2.6.2-.9-1.4-13.6-2.3-15.7-.2-.5-.4-1.2.2-2.1 1.4-2.1 5.5.2 7.6.2 2.6 0 3.2-1.1 3.7-1.9.7-.9 1.2-.4 1.6-.5.5-.4 0-.9.2-1.2.2-.4.4-.2.9-.5.5-.4 0-1.2.2-1.6.7-.9 2.5-.2 1.4-2.6-.5-1.4.2-2.8 1.1-3.9 1.2-1.6 6.2-8.4-2.5-15.7-8.3-6.9-16.5-6.3-21.8-.5-5.5 5.8-2.6 14.3-2.1 16.5.5 2.1-1.1 4.2-3 5.1-1.4.7-4.8 3-7.2 5.1.7-18.8 11.8-34.8 28.7-41.5m-43.3 24.4l.4 1.4.9-.9c3.9-3.5 6.9-9.5 7.9-16.5l.4-1.9-.7.7-.7.7c-2.8 2.5-9.2 9-8.1 16-.3 0-.1.5-.1.5m-2.1 19.7l.5.5.7-3c.7-5.3-.2-16.4-2.3-21.5l-.7-1.8-.4.9-.4.9c-.5 1.2-1.2 3.7-1.8 7-.5 4.8-.5 11.3 3.5 16.2l.9.8m2.6 18.3l1.2.7V257c-.2-4.4-5.5-17.8-9.3-22.7l-1.1-1.4v.9l-.2.9c-.3 4.9-.1 16.7 9.4 23m11.6 19.6l-.5-1.4c-1.8-5.1-11.4-16.9-17.6-20.8l-1.4-.9.2.9.2.9c1.4 6.7 7.7 17.8 17.8 20.9l1.3.4m-10.7-47.4v1.6l1.1-.9c4-3.3 9-11.8 10.4-16.5l.5-1.8-.7.5-.9.5c-7.2 4.5-10.8 9.9-10.4 16.6m7.6-3l-.5.5-.5.5c-1.9 1.8-7.9 8.3-7.6 16.4.2 1.2.4 2.6.9 3.9l.5 1.2.9-1.1c2.8-4 6.9-15 6.5-20.1l-.2-1.3m-1.6 38.8l.5-1.1c1.4-2.5 2.5-10.6 2.3-17.1 0-2.3-.4-4-.7-5.5l-.5-1.4-.4.7-.4.7c-3.2 4.6-4.8 9.3-4.6 13.6.2 3.2 1.1 6.3 3 9.2l.8.9m4.9-9.4l-.2.7c-.9 3-1.4 6-1.2 8.6.2 6.3 3 11.1 8.3 14.6l.9.5.2-1.2.2-1.1c-.2-5.1-3.9-17.8-6.9-21.8l-.9-1.1-.4.8M396 290l1.1-.2-.5-.9c-2.3-3.5-17.6-12.1-23.1-13l-1.4-.2.4.7.4.7c3.7 6.3 10.4 15 23.1 12.9"/><path fill="#1CABE2" d="M392.5 271.8l-1.2-.7.2.7.2.7c1.2 7.6 4.2 17.4 17.1 16.4h.9l-.2-.9c-1.4-3.5-13-13.4-17-16.2m97.3-51.5l.9.9.4-1.4.2-.5c.9-7-5.3-13.6-8.1-16l-.9-.7-.7-.7.4 1.9c1.1 7 3.9 12.9 7.8 16.5m2.8 19.8l.5-.5.5-.5c4-4.9 4.2-11.6 3.5-16.2-.4-3.3-1.2-5.8-1.8-7l-.4-.9-.4-.9-.7 1.8c-1.9 4.9-2.8 16.2-2.1 21.5l.9 2.7m-3.3 18.3l1.1-.7c9.5-6.3 9.9-18.1 9.5-22.9v-.8l-.2-.9-1.1 1.4c-3.9 4.8-9.2 18.1-9.3 22.7v1.2m-9.9 17.5l-.5 1.4 1.4-.4c9.9-3.2 16.4-14.1 17.8-20.9l.2-.9.2-.9-1.4.9c-6.3 3.9-15.8 15.7-17.7 20.8m9-45.4l1.1.9.2-1.6c.4-6.7-3-12.3-10.2-16.9l-.7-.5-.9-.5.5 1.8c1.4 5 6.1 13.4 10 16.8m.9 19.1l.5-1.2c.5-1.4.7-2.6.9-3.9.5-8.1-5.6-14.6-7.6-16.4l-.5-.5-.5-.5v1.6c-.2 5.1 3.7 15.8 6.5 20.1l.7.8m-7.4-8.8l-.4 1.4c-.4 1.2-.5 3.2-.7 5.5-.2 6.5.9 14.6 2.3 17.1l.5 1.1.7-.9c1.9-2.8 3-6 3-9.2.2-4.4-1.4-9-4.6-13.6l-.4-.7-.4-.7m-3.4 15l-.9 1.1c-3 3.9-6.7 16.7-6.9 21.8 0 0 .2.9.2 1.1l.2 1.2.9-.5c5.3-3.3 8.1-8.3 8.3-14.6.2-2.8-.4-5.6-1.2-8.6l-.2-.7-.4-.8M465 288.9l-.5.9 1.1.2c12.7 2.3 19.4-6.3 23.2-13l.4-.7.4-.7-1.4.2c-5.6.8-20.9 9.6-23.2 13.1m-34.3 5.3c-8.4-3.5-22.2-5.8-39.8-1.1l-1.9.5 1.9.7c8.1 3.3 18.1 4.2 23.9 2.3 2.1-.7 3.5-1.9 5.1-3.5 2.8.4 5.5 1.1 7.9 2.3-2.3 1.2-9.7 5.6-14.6 12.1l-.4.5.4.4c.4.4 1.4 1.2 2.1 1.4l.4.2.4-.4c3.5-4.4 8.8-9.5 14.6-12.8 6 3.3 11.1 8.4 14.6 12.8l.4.4.4-.2c.7-.2 1.6-1.1 1.9-1.4l.4-.4-.4-.5c-4.9-6.5-12.3-10.9-14.6-12.1 2.6-1.2 5.3-1.9 8.1-2.3 1.6 1.6 3 2.8 5.1 3.5 5.8 1.9 15.8 1.1 23.9-2.3l1.9-.7-1.9-.5c-17.7-4.7-31.4-2.4-39.8 1.1m21.4-6.2l-.2.9h.9c12.7 1.1 15.8-8.8 17.1-16.4l.2-.7.2-.7-1.2.7c-4.3 2.8-15.9 12.7-17 16.2m-304.6-93.4h16v14.6h-16v-14.6zm1.4 31.1h13.4v70.9h-13.4v-70.9zM47.7 262.1c0 1.8-.2 10-2.6 16.7-2.8 7.4-10.2 10.2-15.8 10.2-12.8 0-15.7-9-15.7-21.3v-42.1H0v47.5c0 14.3 8.4 25.5 23.2 25.5 9.9 0 19-3.7 24.3-12.5h.2v10.4h13.2v-70.9H47.5V262m62-38.4c-7 0-16.9 3.7-21.5 12.5h-.4v-10.6h-13v70.9H88V258c0-13.9 3.7-16.9 5.6-19 5.6-5.6 13-5.3 13-5.3 11.3 0 16.2 6.3 16.2 18.1v44.7h13.4v-48.9c.2-22.8-21.6-24-26.7-24m94.5 65.1c-12.8 0-17.6-11.1-17.6-27.6s4.9-27.6 17.6-27.6c9.5 0 13.7 6.2 14.4 15h13.2c-.7-15.3-12-24.6-26.8-24.6-22.4 0-32.7 17.2-32.7 37.8 0 20.8 9 36.8 31.5 36.8 15.7 0 27.3-9.7 28.5-25.5h-13.2c-.7 10.1-6.1 15.7-14.9 15.7m67-64.9c-22.4 0-32.7 17.2-32.7 37.8 0 20.8 9 36.8 31.5 36.8 16.9 0 29.2-7.9 31.3-23.9H287c-1.6 10.2-6.7 14.3-17.1 14.3-13.6 0-18.7-12.8-17.6-25.2H302v-6.7c0-19.4-10-32.6-31-33.1zm-18.6 30.6c0-11.6 6.5-20.9 17.6-20.9 12.8 0 18.3 9.2 18 20.9h-35.6m64.7-43.6v15.1H305v9.2h12.1v61.2h13.4v-61.1h16.2V226h-16.2v-13c-.4-7.7 3.9-9.7 11.4-9.7 2.3 0 4.6.4 6.7.4v-11.1c-3.2-.5-6.3-1.4-9.5-1.4-10 0-21.6 4.1-22 19.6"/></svg>