<svg xmlns="http://www.w3.org/2000/svg" viewBox="0 0 2048 2048"><path d="M1422.2 639.9H625.8c-62.6 0-113.8 51.2-113.8 113.8v540.5c0 62.6 51.2 113.8 113.8 113.8h796.4c62.6 0 113.8-51.2 113.8-113.8V753.7c0-62.6-51.2-113.8-113.8-113.8zm71.2 642.5c0 57.4-25.6 83-83 83H637.7c-57.4 0-83-25.6-83-83V765.5c0-57.4 25.6-83 83-83h772.7c57.4 0 83 25.6 83 83v516.9zM832.1 938.6l106.6 85.4L1216 789.3l213.4 192.1v320.1H618.7v-192.1l213.4-170.8zm-128-192c-47.1 0-85.4 38.2-85.4 85.4s38.2 85.4 85.4 85.4 85.4-38.2 85.4-85.4c-.1-47.1-38.3-85.4-85.4-85.4z"/></svg>