<svg viewBox="0 0 8 11" xmlns="http://www.w3.org/2000/svg"><path d="M3.153 5.494l3.144 3.143q.037.038.071.08.034.04.063.084.03.045.055.092t.045.096q.02.049.036.1.016.05.026.103.01.052.016.105.005.053.005.106t-.005.106q-.006.053-.016.105-.01.053-.026.103-.015.051-.036.1-.02.05-.045.097-.025.046-.055.09-.03.045-.063.086-.034.041-.071.079l-.002.001q-.037.038-.079.072-.04.033-.085.063-.044.03-.091.055t-.096.045q-.05.02-.1.036-.051.015-.103.026-.052.01-.105.015-.053.005-.107.005-.053 0-.106-.005t-.105-.015q-.052-.01-.103-.026-.05-.016-.1-.036-.05-.02-.096-.045-.047-.026-.091-.055-.044-.03-.086-.063-.04-.034-.078-.072L1.086 6.492q-.149-.077-.267-.195l-.002-.002q-.078-.078-.14-.171-.06-.093-.101-.197-.041-.103-.06-.213-.02-.11-.015-.22-.004-.111.015-.221t.06-.213q.04-.103.102-.196.06-.093.14-.172v-.001q.119-.119.268-.196L4.764.817Q4.8.78 4.842.746q.042-.034.086-.063.044-.03.091-.055t.096-.046q.05-.02.1-.035.051-.016.103-.026.052-.01.105-.016Q5.476.5 5.53.5t.107.005.105.016q.052.01.103.026.05.015.1.035.049.02.096.046.047.025.091.055t.085.063q.042.034.08.071V.82q.153.152.235.351.083.199.083.414 0 .216-.083.415-.082.199-.234.351L3.153 5.494z" fill="#1CABE2" fill-rule="evenodd"/></svg>