<svg viewBox="0 0 8 11" xmlns="http://www.w3.org/2000/svg"><path d="M3.96 5.494L.818 8.637q-.037.038-.071.08-.034.04-.063.084-.03.045-.055.092t-.046.096q-.02.049-.035.1-.016.05-.026.103-.01.052-.016.105T.5 9.403t.005.106q.005.053.016.105.01.053.026.103.015.051.035.1.02.05.046.097.025.046.055.09.03.045.063.086.034.041.071.079l.002.001q.037.038.078.072.041.033.086.063.044.03.09.055.048.025.097.045.05.02.1.036.05.015.103.026.052.01.105.015.053.005.106.005.054 0 .106-.005.053-.005.106-.015.052-.01.103-.026.05-.016.1-.036.049-.02.096-.045.047-.026.09-.055.045-.03.086-.063.041-.034.079-.072l3.678-3.678q.149-.077.267-.195l.002-.002q.078-.078.14-.171.06-.093.101-.197.04-.103.06-.213.019-.11.015-.22.004-.111-.015-.221-.02-.11-.06-.213-.04-.103-.102-.196-.06-.093-.14-.172v-.001q-.12-.119-.268-.196L2.35.817Q2.312.78 2.271.746q-.04-.034-.085-.063-.044-.03-.091-.055T1.999.582q-.05-.02-.1-.035Q1.848.53 1.796.52 1.743.51 1.69.505 1.638.5 1.584.5q-.053 0-.106.005t-.105.016q-.052.01-.103.026-.05.015-.1.035-.05.02-.096.046-.047.025-.091.055-.045.03-.086.063Q.857.78.82.817L.817.82q-.152.15-.235.35Q.5 1.369.5 1.584.5 1.8.582 2q.083.199.235.351l3.144 3.144z" fill="#1CABE2" fill-rule="evenodd"/></svg>