<svg baseProfile="tiny" xmlns="http://www.w3.org/2000/svg" viewBox="0 0 396.5 59.8"><path fill="none" d="M134.4 16.5c.5-.3 1-.6 1.5-1-.9-.7-1.9-1.3-3-1.7-.2.3-.4.5-.6.7.7.5 1.4 1.2 2.1 2zm-7.8-3.6c-1 .1-1.9.3-2.9.6l.6.6c.8-.5 1.6-.9 2.3-1.2zm1.2 2.6v-2.1c-.5.6-.9 1.2-1.4 1.9.4.1.9.1 1.4.2zm-1.9-.5c.4-.6.8-1.2 1.3-1.8-.8.3-1.6.8-2.3 1.2.2.3.6.5 1 .6z"/><path fill="none" d="M128.8 32.9c-.2-.5-.3-1.2-.3-1.6 0-.5-.1-1.1-1-1.7-.9-.6-1.4-1-1.4-1.6 0-.3.2-.7.4-.8.2-.1.2-.3.2-.4 0-.1-.2-.6.4-.6.1 0 .3-.1.3-.3 0-.2-.2-.8.3-.7.1 0 .3-.1.3-.3 0-.2-.8-1.2.5-1.1.9 0 1.8-.3 2.2-.8 1.9-2.5 4.9-2.9 7.7-.2 2.6 2.5 2.1 6.4.4 8.1-1.5 1.5-2.7 1.9-3.9 1.9-.3 0-.6-.2-.7.3s-.1 1.9 1.7 2.8c3-2.3 5-6 5.1-10.3 0-2.5-.7-4.9-2.1-7-.7.5-1.5.9-2.2 1.3 0 .1.3.7.3.7l.1.2-.7-.3s-.1-.3-.1-.4c-.1.1-.3.1-.3.1s-.4-.1-1-.2c0 0 .7-.3 1.1-.4-.4-.9-1-1.7-1.6-2.5-.8.4-1.6.8-2.4 1 .3.7.8 2.3.8 2.3l-.5.2s-.5-1.6-.8-2.3c-1 .3-2 .4-3 .4v2.5h.4c.7 0 1.5-.1 2.3-.2h.4l-.7.6c-.8.1-1.5.1-2.3.2v.9h-.6v-4h-1.4c-.1-.1-.1-.2-.2-.4l-.1-.2h.2c.3 0 1.1.1 1.4.1V16c-.5 0-1.1-.1-1.6-.3-.3.4-.9 1.6-.9 1.6s-.1-.1-.2-.1c-.1-.1-.3-.2-.3-.2s.6-1.1.8-1.5c-.4-.2-.9-.4-1.2-.7l-1.5 1.2s-.2-.1-.3-.1c-.2 0-.3-.1-.3-.1s1.1-1 1.7-1.4c-.3-.2-.5-.5-.7-.7-4.8 1.9-7.9 6.4-8 11.6.7-.6 1.6-1.3 2.1-1.4.5-.3 1-.8.8-1.5-.1-.6-.9-3 .6-4.6 1.5-1.6 3.9-1.8 6.2.1 2.4 2 1 3.9.7 4.4-.2.3-.5.7-.3 1.1.3.7-.2.5-.4.8 0 .1.1.3 0 .4-.1.1-.2 0-.2.1-.1.1.1.3-.1.4-.1.1-.3-.1-.4.2-.2.3-.3.5-1.1.6-.6 0-1.8-.6-2.1 0-.2.2-.1.4-.1.6.3.6.7 4.1.6 4.4.5.9 2.1.5 2.6.8 0 0 .2 0 .4-.1s.7-.6 1.1-.5c.1 0 .4 0 .3.4 0 .1.1.1.3.1.1-.1 1.1-.5.7 1-.4 1.5-1.5 1.4-2.2 1.1-.2-.1-.3-.1-.6 0s-2.3.4-2.7.4c-.4 0-1.1 0-1.6-.5-.3.4-.6 1.1-.4 1.6.4.4.9.8 1.3 1.1.8.2 1.9.1 2.7-.2.2-.1 2.8-1.3 4.3-1.3 1-.3 1-1.3.8-1.9z"/><path fill="none" d="M136.3 19.4c.8-.4 1.5-.8 2.1-1.3-.6-.9-1.4-1.7-2.2-2.4-.5.4-1 .8-1.5 1.1.6.9 1.2 1.7 1.6 2.6zm-4-5.9c-.9-.3-1.9-.5-2.9-.6.8.4 1.5.8 2.2 1.3l.7-.7zm-.6 1.3c-.4.3-.8.5-1.2.7.4.7.8 1.4 1.1 2.2.8-.2 1.5-.5 2.2-.9-.6-.8-1.3-1.4-2.1-2zm-3.4-1.5v2.1c.5 0 1-.1 1.4-.3-.4-.6-.9-1.2-1.4-1.8zm1.7 2.4c-.5.2-1.1.3-1.7.3v2.2c1 0 1.9-.1 2.8-.4-.3-.7-.7-1.4-1.1-2.1zm1.2-1.2c-.7-.5-1.5-.9-2.3-1.2.5.6.9 1.2 1.3 1.8.4-.2.7-.4 1-.6z"/><path fill="#FFF" d="M141.4 25.6c0-7.4-6-13.3-13.3-13.3s-13.3 6-13.3 13.3c0 7.4 6 13.3 13.3 13.3s13.3-6 13.3-13.3zm-3-7.5c-.7.5-1.4.9-2.1 1.3-.4-.9-1-1.7-1.6-2.5.5-.3 1.1-.7 1.5-1.1.9.7 1.6 1.5 2.2 2.3zm-2.6-2.7c-.5.4-1 .7-1.5 1-.6-.8-1.4-1.4-2.2-2 .2-.2.4-.5.6-.7 1.2.4 2.2 1 3.1 1.7zm-1.9 1.4c-.7.4-1.5.7-2.2.9-.3-.8-.7-1.5-1.1-2.2.4-.2.8-.4 1.2-.7.7.6 1.4 1.2 2.1 2zm-1.6-3.3l-.6.6c-.7-.5-1.5-.9-2.2-1.3.9.2 1.9.4 2.8.7zm-1.1 1c-.3.2-.7.4-1 .6-.4-.6-.8-1.2-1.3-1.8.9.3 1.6.7 2.3 1.2zm-2.9-1.2c.5.6 1 1.2 1.4 1.9-.4.1-.9.2-1.4.3v-2.2zm0 2.7c.6 0 1.1-.1 1.7-.3.4.7.8 1.4 1.1 2.1-.9.3-1.8.4-2.8.4V16zm-.5-2.6v2.1c-.5 0-.9-.1-1.4-.3.4-.6.9-1.2 1.4-1.8zm-1.9 1.6c-.4-.1-.7-.4-1-.6.7-.5 1.5-.9 2.3-1.2-.5.6-.9 1.2-1.3 1.8zm.7-2.1c-.8.4-1.5.8-2.3 1.3l-.6-.6c1-.4 2-.6 2.9-.7zm-3.1 23c-.8.3-1.9.4-2.7.2-.5-.3-.9-.7-1.3-1.1-.2-.6.1-1.2.4-1.6.5.5 1.2.5 1.6.5.4 0 2.4-.3 2.7-.4.3-.1.4-.1.6 0 .8.3 1.8.4 2.2-1.1.4-1.5-.6-1.1-.7-1-.1.1-.3 0-.3-.1.2-.4-.1-.3-.3-.4-.4 0-.9.4-1.1.5-.2.1-.4.1-.4.1-.5-.3-2.1.1-2.6-.8 0-.3-.4-3.8-.6-4.4 0-.1-.1-.4.1-.6.4-.6 1.5 0 2.1 0 .8 0 .9-.3 1.1-.6.2-.3.3-.1.4-.2.1-.1 0-.3.1-.4 0-.1.1 0 .2-.1s0-.4 0-.4c.2-.3.7-.1.4-.8-.2-.4.1-.8.3-1.1.4-.5 1.7-2.4-.7-4.4-2.3-1.9-4.6-1.8-6.2-.1-1.5 1.6-.8 4-.6 4.6.1.6-.3 1.2-.8 1.5-.4.2-1.4.8-2.1 1.4.1-5.1 3.2-9.6 8-11.6.2.3.4.5.7.7-.5.4-1.7 1.4-1.7 1.4s.1 0 .3.1c.1 0 .3.1.3.1s1-.9 1.5-1.2c.4.3.8.5 1.2.7-.3.4-.8 1.5-.8 1.5s.1.1.3.2c.1.1.2.1.2.1s.6-1.2.9-1.6c.5.2 1.1.3 1.6.3V18c-.3 0-1.1 0-1.4-.1h-.2l.1.2c.1.1.1.3.2.4h1.4v4h.6v-.9c.8 0 1.5-.1 2.3-.2l.7-.6h-.4c-.9.1-1.6.2-2.3.2h-.4v-2.5c1 0 2-.2 3-.4.3.6.8 2.3.8 2.3l.5-.2s-.5-1.6-.8-2.3c.8-.3 1.6-.6 2.4-1 .6.8 1.1 1.6 1.6 2.5-.4.2-1.1.4-1.1.4.6.1 1 .2 1 .2s.2-.1.3-.1c0 .1.1.4.1.4l.7.3-.1-.2s-.2-.6-.3-.7c.8-.4 1.5-.8 2.2-1.3 1.4 2.1 2.1 4.5 2.1 7-.1 4.2-2.1 7.9-5.1 10.3-1.8-1-1.8-2.3-1.7-2.8s.4-.3.7-.3c1.2 0 2.4-.4 3.9-1.9 1.7-1.8 2.3-5.6-.4-8.1-2.8-2.7-5.8-2.3-7.7.2-.4.5-1.4.9-2.2.8-1.3 0-.5.9-.5 1.1 0 .2-.2.4-.3.3-.4-.1-.3.5-.3.7 0 .2-.2.3-.3.3-.5 0-.4.5-.4.6 0 .1 0 .4-.2.4-.2.1-.4.5-.4.8 0 .6.5 1 1.4 1.6.9.6 1 1.3 1 1.7 0 .4.1 1.1.3 1.6.3.6.2 1.6-1 1.6-1.3.3-3.9 1.5-4.1 1.6zM111.1 21l.3-.2c1.1-1 1.9-2.7 2.2-4.6l.1-.5-.3.1-.2.2c-.8.7-2.6 2.5-2.3 4.5v.1l.2.4zm-.5 5.4l.2-.9c.2-1.5-.1-4.6-.6-6.1l-.2-.4-.1.2-.1.3c-.1.3-.4 1-.5 2-.2 1.3-.1 3.2 1 4.6l.1.2.2.1zm.9 5.2v-.4c0-1.3-1.5-5-2.6-6.4l-.3-.4-.1.3v.3c-.1 1.4 0 4.7 2.7 6.4l.3.2zm2.5 5.1l.4.1-.1-.4c-.5-1.4-3.2-4.8-5-5.9l-.4-.3.1.3v.2c.4 2 2.3 5.1 5 6zm.7-17.7l.1-.5-.2.1-.2.1c-2.1 1.3-3.1 2.8-3 4.7v.4l.3-.3c1.2-.7 2.6-3.1 3-4.5zm-3 9.7c.8-1.1 1.9-4.2 1.9-5.6v-.4l-.1.2-.1.1c-.5.5-2.3 2.4-2.1 4.6 0 .4.1.7.3 1.1l.1.4v-.4zm1.6 4.7c.4-.7.7-3 .6-4.8 0-.6-.1-1.2-.2-1.5l-.1-.4-.1.1-.1.2c-.9 1.3-1.3 2.6-1.3 3.9 0 .9.3 1.8.9 2.6l.2.3.1-.4zm3.3 4.4l.1-.4v-.3c0-1.4-1.1-5-1.9-6.1l-.2-.3-.1.2-.1.2c-.3.8-.4 1.6-.4 2.4 0 1.8.8 3.1 2.3 4.1l.3.2zm1.7 2.6h.3l-.2-.3c-.7-1-5-3.4-6.5-3.7l-.4-.1.1.2.1.2c1.1 1.9 3 4.4 6.6 3.7zm5.2 2c.6-.2 1-.5 1.5-1 2.9.3 5.6 2.7 7.2 4.7l.1.1h.1c.2-.1.5-.3.6-.4l.1-.1-.1-.1c-1.6-2.1-4.2-3.5-4.4-3.5-2.3-1.1-6.4-2-11.7-.6l-.6.1.5.2c2.2.8 5.1 1.1 6.7.6z"/><path fill="#FFF" d="M121.8 40.1h.2l-.1-.2c-.3-1-3.5-3.8-4.7-4.6l-.4-.2.1.2v.2c.4 2.1 1.3 4.9 4.9 4.6zM145 21l.1-.4v-.1c.3-2-1.5-3.8-2.3-4.5l-.2-.2-.2-.1.1.5c.3 2 1.1 3.6 2.2 4.6l.3.2zm.7 5.2l.1-.2c1.1-1.4 1.2-3.3 1-4.6-.1-.9-.4-1.6-.5-2l-.1-.3-.1-.2-.2.5c-.5 1.4-.8 4.6-.6 6.1l.2.9.2-.2zm1.9-1.2v-.6l-.3.4c-1.1 1.4-2.6 5.1-2.6 6.4v.4l.3-.2c2.6-1.8 2.7-5.1 2.6-6.4zm-.6 5.9v-.2l.1-.3-.4.3c-1.7 1.1-4.4 4.4-5 5.9l-.1.4.4-.1c2.8-1 4.6-4.1 5-6zm-2.6-7.2l.3.3v-.4c.1-1.9-.8-3.5-2.9-4.8l-.2-.1-.2-.1.1.5c.4 1.2 1.8 3.7 2.9 4.6zm.3 5c.1-.4.2-.8.3-1.1.1-2.3-1.6-4.1-2.1-4.6l-.1-.1-.2-.2v.4c-.1 1.4 1 4.5 1.9 5.6l.2.3v-.3zm-1.5 4.7c.5-.8.8-1.7.9-2.6 0-1.2-.4-2.5-1.3-3.9l-.1-.2-.1-.1-.1.4c-.1.4-.2.9-.2 1.5 0 1.8.3 4.1.6 4.8l.1.3.2-.2zm-3.4 4.3c1.5-1 2.3-2.3 2.3-4.1 0-.8-.1-1.6-.4-2.4l-.1-.2-.1-.2-.2.3c-.8 1.1-1.9 4.7-1.9 6.1v.3l.1.4.3-.2zm4.6-.9l.1-.2.1-.2-.4.1c-1.5.3-5.9 2.7-6.5 3.7l-.2.3h.3c3.6.5 5.5-1.9 6.6-3.7zm-20.6 9.3l.1-.1c1.6-2 4.3-4.4 7.2-4.7.5.5.8.8 1.5 1 1.6.6 4.5.3 6.7-.6l.5-.2-.6-.1c-5.3-1.4-9.4-.5-11.7.6-.1.1-2.7 1.4-4.4 3.5l-.1.1.1.1c.1.1.4.3.6.4h.1zm15.3-10.6v-.2l.1-.2-.4.2c-1.1.8-4.5 3.6-4.7 4.6l-.1.2h.2c3.7.4 4.5-2.5 4.9-4.6zm-92-22.3h4.5v4.1h-4.5zm.4 8.8h3.8v20.2h-3.8zM22.4 42.3V22.1h-3.8v10.4c0 .5 0 2.9-.7 4.8-.8 2.1-2.9 2.9-4.5 2.9-3.6 0-4.5-2.6-4.5-6.1v-12H5v13.5c0 4.1 2.4 7.3 6.6 7.3 2.8 0 5.4-1 6.9-3.6h.1v3h3.8zm3.9-20.2v20.3h3.8v-11c0-3.9 1-4.8 1.6-5.4 1.6-1.6 3.7-1.5 3.7-1.5 3.2 0 4.6 1.8 4.6 5.1v12.7h3.8v-14c0-6.5-6.2-6.9-7.6-6.9-2 0-4.8 1-6.1 3.6H30v-3h-3.7zm36.9 2.2c2.7 0 3.9 1.8 4.1 4.3h3.8c-.2-4.4-3.4-7-7.6-7-6.4 0-9.3 4.9-9.3 10.8s2.6 10.5 9 10.5c4.5 0 7.8-2.8 8.1-7.3h-3.8c-.2 2.9-1.8 4.5-4.3 4.5-3.6 0-5-3.2-5-7.9 0-4.8 1.4-7.9 5-7.9z"/><path fill="none" d="M82 24.3c-3.2 0-5 2.7-5 6h10.2c0-3.4-1.5-6-5.2-6z"/><path fill="#FFF" d="M91.2 32.9V31c0-5.6-2.9-9.4-8.9-9.5-6.4 0-9.3 4.9-9.3 10.8s2.6 10.5 9 10.5c4.8 0 8.3-2.3 8.9-6.9h-4C86.4 38.8 85 40 82 40c-3.9 0-5.3-3.6-5-7.2h14.2zm-14.3-2.6c0-3.3 1.9-6 5-6 3.7 0 5.2 2.6 5.1 6H76.9zm25.6-14.6c.6 0 1.3.1 1.9.1v-3.2c-.9-.1-1.8-.4-2.7-.4-2.9 0-6.2 1.2-6.3 5.6v4.3H92v2.6h3.5v17.5h3.8V24.8h4.6v-2.6h-4.6v-3.7c-.2-2.2 1.1-2.8 3.2-2.8zm76-.7c.5 0 1 .1 1.5.1v-2c-.7-.1-1.5-.4-2.3-.4-3.5 0-4.9 1.6-4.9 5V22h-4v2.2h4v18h2.4V24.4h4.6v-2.2h-4.6v-2.6c0-2.9 0-4.6 3.3-4.6z"/><path fill="none" d="M196.8 32.1c0-3.7-1.9-8.4-6.7-8.4-4.9 0-6.7 4.7-6.7 8.4s1.9 8.4 6.7 8.4c4.8 0 6.7-4.7 6.7-8.4z"/><path fill="#FFF" d="M199.4 32.1c0-5.3-3-10.6-9.4-10.6s-9.4 5.4-9.4 10.6c0 5.3 3 10.6 9.4 10.6s9.4-5.3 9.4-10.6zm-16.1 0c0-3.7 1.9-8.4 6.7-8.4 4.8 0 6.7 4.8 6.7 8.4 0 3.7-1.9 8.4-6.7 8.4-4.8 0-6.7-4.7-6.7-8.4zm27.5-8.4c.5 0 1 .1 1.5.1v-2.3c-.8 0-1.6-.1-2.4 0-2 .1-3.8 1.5-4.5 3.6h-.1l-.1-3h-2.5c.1 1.4.2 3 .2 4.5v15.6h2.4V30.1c.1-3.8 1.9-6.4 5.5-6.4z"/><path fill="none" d="M230.3 23.7c-3.9 0-6 3.3-6.3 6.8h12.9c-.4-3.9-2.4-6.8-6.6-6.8z"/><path fill="#FFF" d="M230.3 21.5c-6 0-9 5.2-9 10.6 0 5.5 2.8 10.6 8.8 10.6 4.8 0 7.8-2.2 9.1-7h-2.5c-.6 2.8-2.9 4.8-5.8 4.8-4.9 0-6.9-3.6-7-7.9h15.5c.1-6.2-2.4-11.1-9.1-11.1zm-6.3 9c.3-3.5 2.4-6.8 6.3-6.8 4.2 0 6.2 2.9 6.5 6.8H224zm34.9-8.4h-2.6l-6.7 16.8-6.9-16.8H240l8.3 20.1h2.7z"/><path fill="none" d="M268.4 23.7c-3.9 0-6 3.3-6.3 6.8H275c-.4-3.9-2.4-6.8-6.6-6.8z"/><path fill="#FFF" d="M268.4 21.5c-6 0-9 5.2-9 10.6 0 5.5 2.8 10.6 8.8 10.6 4.8 0 7.8-2.2 9.1-7h-2.5c-.6 2.8-2.9 4.8-5.8 4.8-4.9 0-6.9-3.6-7-7.9h15.5c0-6.2-2.4-11.1-9.1-11.1zm0 2.2c4.2 0 6.2 2.9 6.5 6.8H262c.4-3.5 2.5-6.8 6.4-6.8zm20.7 0c.5 0 1 .1 1.5.1v-2.3c-.8 0-1.6-.1-2.4 0-2 .1-3.8 1.5-4.5 3.6h-.1l-.1-3H281c.1 1.4.2 3 .2 4.5v15.6h2.4V30.1c.1-3.8 2-6.4 5.5-6.4zm11.7 26.2l11-27.8h-2.6l-6.7 16.8-6.7-16.8h-3l8.4 20.1-3.1 7.7zm28.5-26.2c3.3 0 5.2 1.5 5.5 4.6h2.6c-.2-4.3-3.6-6.8-7.7-6.8-6 0-9 5.2-9 10.6 0 5.5 2.8 10.6 8.8 10.6 4.6 0 7.2-2.3 7.9-6.9h-2.6c-.2 2.8-2.4 4.7-5.5 4.7-3.7 0-6-3.9-6-8.5 0-4.5 2.3-8.3 6-8.3zm11.4-10.4v28.9h2.4V30.6c0-3.6 1.8-6.9 5.7-6.9 3.3 0 5.3 2.1 5.3 5.5v13h2.4V29.6c0-2.3-.5-8.1-7.1-8.1-2.6 0-4.9 1.2-6.3 3.6h-.1V13.3h-2.3zm19.7 0h2.8v3h-2.8zm.2 8.8h2.4v20.1h-2.4zm7.1-8.8h2.4v28.9h-2.4z"/><path fill="none" d="M382.4 23.7c-4.6 0-6 4.3-6 8.1 0 3.7 1.1 8.8 5.7 8.8 5.2 0 6.9-4.4 6.9-8.9-.1-4.1-1.9-8-6.6-8z"/><path fill="#FFF" d="M388.9 13.3v11.8l-.1.1c-1.4-2.4-4.2-3.6-6.9-3.6-6 0-8.2 5.4-8.2 10.6 0 5 2.3 10.7 8.2 10.7 2.8 0 5.3-1.3 6.9-3.7l.1.1.1 3h2.5c-.1-1.4-.2-3-.2-4.5V13.3h-2.4zM382 40.5c-4.6 0-5.7-5.1-5.7-8.8 0-3.8 1.5-8.1 6-8.1 4.7 0 6.5 3.9 6.5 7.9.1 4.7-1.5 9-6.8 9zM158.2 5h.8v49.8h-.8z"/></svg>