<?xml version="1.0" encoding="UTF-8" standalone="no"?>
<!-- Created with Inkscape (http://www.inkscape.org/) -->

<svg
   width="17.416882mm"
   height="20.24905mm"
   viewBox="0 0 17.416882 20.24905"
   version="1.1"
   id="svg2114"
   inkscape:version="1.2.1 (9c6d41e410, 2022-07-14)"
   sodipodi:docname="ado.svg"
   xmlns:inkscape="http://www.inkscape.org/namespaces/inkscape"
   xmlns:sodipodi="http://sodipodi.sourceforge.net/DTD/sodipodi-0.dtd"
   xmlns="http://www.w3.org/2000/svg"
   xmlns:svg="http://www.w3.org/2000/svg">
  <sodipodi:namedview
     id="namedview2116"
     pagecolor="#ffffff"
     bordercolor="#666666"
     borderopacity="1.0"
     inkscape:showpageshadow="2"
     inkscape:pageopacity="0.0"
     inkscape:pagecheckerboard="0"
     inkscape:deskcolor="#d1d1d1"
     inkscape:document-units="mm"
     showgrid="false"
     inkscape:zoom="5.6159371"
     inkscape:cx="62.14457"
     inkscape:cy="53.241337"
     inkscape:window-width="1920"
     inkscape:window-height="986"
     inkscape:window-x="-11"
     inkscape:window-y="-11"
     inkscape:window-maximized="1"
     inkscape:current-layer="layer1" />
  <defs
     id="defs2111" />
  <g
     inkscape:label="Layer 1"
     inkscape:groupmode="layer"
     id="layer1"
     transform="translate(-68.016158,-126.87696)">
    <path
       class="st0"
       d="m 73.654776,147.12013 c 2.100526,-0.11915 4.185046,-0.12897 6.248321,-0.0287 1.823372,0.0874 3.414539,-1.22173 3.669658,-3.03233 l 1.825241,-13.00627 c 0.285289,-2.02364 -1.204971,-3.88234 -3.245921,-4.01265 -3.582616,-0.22976 -7.215491,-0.21947 -10.880228,0.0469 -2.037547,0.14733 -3.514888,2.01206 -3.217589,4.03288 l 1.906643,12.96002 c 0.269834,1.81628 1.866817,3.14581 3.693875,3.04015 z"
       id="path12"
       style="fill:#2c5996;stroke-width:0.264583" />
    <path
       class="st57"
       d="m 81.113921,132.83574 v -0.0106 c -0.989542,-0.99483 -2.600854,-1.00012 -3.595688,-0.008 -0.0026,0.003 -0.0053,0.005 -0.0079,0.008 l -0.378354,0.37571 -0.375709,-0.37571 c -0.997479,-0.99748 -2.614083,-0.99483 -3.611562,0.005 -0.994833,0.99748 -0.994833,2.61409 0.0053,3.61157 l 3.754437,3.7412 c 0.121708,0.127 0.322792,0.12965 0.449792,0.008 0.0026,-0.003 0.0053,-0.005 0.0079,-0.008 l 3.754438,-3.7412 c 0.992187,-0.99748 0.992187,-2.6088 -0.0026,-3.60628 z m -3.010958,3.66448 h -0.64823 v 0.64823 c 0,0.17727 -0.14552,0.32279 -0.322791,0.32279 -0.177271,0 -0.322792,-0.14552 -0.322792,-0.32279 v -0.64823 h -0.648229 c -0.177271,0 -0.322792,-0.14552 -0.322792,-0.32279 0,-0.17727 0.145521,-0.32279 0.322792,-0.32279 h 0.648229 v -0.64823 c 0,-0.17727 0.145521,-0.32279 0.322792,-0.32279 0.177271,0 0.322791,0.14552 0.322791,0.32279 v 0.64823 h 0.64823 c 0.17727,0 0.322791,0.14552 0.322791,0.32279 0,0.17992 -0.142875,0.32279 -0.322791,0.32279 z"
       id="path334"
       style="fill:#ffffff;stroke-width:0.264583" />
  </g>
</svg>
