<?xml version="1.0" encoding="UTF-8" standalone="no"?>
<!-- Created with Inkscape (http://www.inkscape.org/) -->

<svg
   width="15.93245mm"
   height="18.521343mm"
   viewBox="0 0 15.93245 18.521343"
   version="1.1"
   id="svg86313"
   inkscape:version="1.2.1 (9c6d41e410, 2022-07-14)"
   sodipodi:docname="bus.svg"
   xmlns:inkscape="http://www.inkscape.org/namespaces/inkscape"
   xmlns:sodipodi="http://sodipodi.sourceforge.net/DTD/sodipodi-0.dtd"
   xmlns="http://www.w3.org/2000/svg"
   xmlns:svg="http://www.w3.org/2000/svg">
  <sodipodi:namedview
     id="namedview86315"
     pagecolor="#ffffff"
     bordercolor="#666666"
     borderopacity="1.0"
     inkscape:showpageshadow="2"
     inkscape:pageopacity="0.0"
     inkscape:pagecheckerboard="0"
     inkscape:deskcolor="#d1d1d1"
     inkscape:document-units="mm"
     showgrid="false"
     inkscape:zoom="4.2734328"
     inkscape:cx="48.672814"
     inkscape:cy="61.075022"
     inkscape:window-width="1920"
     inkscape:window-height="986"
     inkscape:window-x="-11"
     inkscape:window-y="-11"
     inkscape:window-maximized="1"
     inkscape:current-layer="layer1" />
  <defs
     id="defs86310" />
  <g
     inkscape:label="Layer 1"
     inkscape:groupmode="layer"
     id="layer1"
     transform="translate(-106.5609,-113.9791)">
    <path
       class="st75"
       d="m 111.64414,132.49267 c 1.27,-0.10054 3.82852,-0.0979 5.71764,0.003 1.66952,0.09 3.13002,-1.10331 3.37079,-2.75696 l 1.73302,-11.89566 c 0.23813,-1.90765 -1.08214,-3.55865 -2.9501,-3.68829 -2.14312,-0.23019 -6.60135,-0.23548 -9.95892,-0.008 -1.86531,0.127 -3.22527,1.82562 -2.96333,3.67771 l 1.6854,11.87185 c 0.1852,1.63248 1.69068,2.88396 3.3655,2.79665 z"
       id="path1032"
       style="fill:#562061;stroke-width:0.264583" />
    <path
       class="st57"
       d="m 119.1583,122.57873 h -0.27516 c -0.11113,-0.72231 -0.39423,-1.38642 -0.80963,-1.94998 l 0.19579,-0.19579 c 0.25929,-0.25665 0.25929,-0.67733 0,-0.93398 -0.25929,-0.25929 -0.67733,-0.25929 -0.93398,0 l -0.19843,0.19579 c -0.56092,-0.41539 -1.22502,-0.6985 -1.94734,-0.80962 v -0.27517 c 0,-0.36513 -0.29633,-0.66146 -0.66146,-0.66146 -0.36512,0 -0.66145,0.29633 -0.66145,0.66146 v 0.27517 c -0.72232,0.10848 -1.38642,0.39423 -1.94998,0.80962 l -0.19579,-0.19579 c -0.2593,-0.25929 -0.67734,-0.25929 -0.93398,0 -0.2593,0.25929 -0.2593,0.67733 0,0.93398 l 0.19579,0.19579 c -0.4154,0.56356 -0.70115,1.22767 -0.80963,1.94998 h -0.27516 c -0.36513,0 -0.66146,0.29633 -0.66146,0.66146 0,0.36512 0.29633,0.66146 0.66146,0.66146 h 0.27516 c 0.10848,0.72231 0.39423,1.38641 0.80963,1.94998 l -0.19579,0.19579 c -0.2593,0.25929 -0.2593,0.67733 0,0.93662 0.127,0.12965 0.29633,0.19315 0.46566,0.19315 0.16934,0 0.33867,-0.0635 0.46832,-0.19315 l 0.19579,-0.19579 c 0.56356,0.4154 1.22766,0.6985 1.94998,0.80963 v 0.27516 c 0,0.36513 0.29633,0.66146 0.66145,0.66146 0.36513,0 0.66146,-0.29633 0.66146,-0.66146 v -0.27516 c 0.72232,-0.10848 1.38642,-0.39423 1.94734,-0.80963 l 0.19843,0.19579 c 0.127,0.12965 0.29634,0.19315 0.46567,0.19315 0.16933,0 0.33867,-0.0635 0.46831,-0.19315 0.25929,-0.25929 0.25929,-0.67733 0,-0.93662 l -0.19579,-0.19579 c 0.4154,-0.56357 0.6985,-1.22767 0.80963,-1.94998 h 0.27516 c 0.36513,0 0.66146,-0.29634 0.66146,-0.66146 0,-0.36513 -0.29633,-0.66146 -0.66146,-0.66146 z m -4.63021,3.74915 c -1.70127,0 -3.08768,-1.38378 -3.08768,-3.08769 0,-1.70392 1.38641,-3.08769 3.08768,-3.08769 1.70128,0 3.08769,1.38377 3.08769,3.08769 0,1.70391 -1.38641,3.08769 -3.08769,3.08769 z"
       id="path1040"
       style="fill:#ffffff;stroke-width:0.264583" />
    <path
       class="st57"
       d="m 115.18162,125.53148 v -1.22767 -0.32808 -0.93133 c 0.17727,0.13758 0.29897,0.33073 0.33072,0.55562 0.0159,0.12171 0.12171,0.21167 0.24078,0.21167 0.0132,0 0.0238,0 0.0344,-0.003 0.13494,-0.0185 0.23019,-0.14287 0.20902,-0.27781 -0.0953,-0.69056 -0.71437,-1.19327 -1.46844,-1.19327 -0.75406,0 -1.37318,0.50271 -1.47108,1.19327 -0.0185,0.13494 0.0767,0.25929 0.20902,0.27781 0.13494,0.0185 0.25929,-0.0741 0.27781,-0.20902 0.0318,-0.22489 0.15346,-0.41804 0.33073,-0.55562 v 0.93133 0.32808 1.22767 c 0,0.13494 0.10848,0.24606 0.24342,0.24606 0.13758,0 0.24606,-0.11112 0.24606,-0.24606 v -1.22767 h 0.32809 v 1.22767 c 0,0.13494 0.10848,0.24606 0.24341,0.24606 0.13759,-0.003 0.24607,-0.11112 0.24607,-0.24606 z"
       id="path1042"
       style="fill:#ffffff;stroke-width:0.264583" />
    <path
       class="st57"
       d="m 114.52809,122.01252 c 0.35984,0 0.65353,-0.29369 0.65353,-0.65352 0,-0.35983 -0.29369,-0.65352 -0.65353,-0.65352 -0.36247,0 -0.65352,0.29369 -0.65352,0.65352 0,0.35983 0.29105,0.65352 0.65352,0.65352 z"
       id="path1044"
       style="fill:#ffffff;stroke-width:0.264583" />
  </g>
</svg>
