<?xml version="1.0" encoding="UTF-8" standalone="no"?>
<!-- Created with Inkscape (http://www.inkscape.org/) -->

<svg
   width="17.413557mm"
   height="20.262375mm"
   viewBox="0 0 17.413557 20.262375"
   version="1.1"
   id="svg30817"
   inkscape:version="1.2.1 (9c6d41e410, 2022-07-14)"
   sodipodi:docname="cpc.svg"
   xmlns:inkscape="http://www.inkscape.org/namespaces/inkscape"
   xmlns:sodipodi="http://sodipodi.sourceforge.net/DTD/sodipodi-0.dtd"
   xmlns="http://www.w3.org/2000/svg"
   xmlns:svg="http://www.w3.org/2000/svg">
  <sodipodi:namedview
     id="namedview30819"
     pagecolor="#ffffff"
     bordercolor="#666666"
     borderopacity="1.0"
     inkscape:showpageshadow="2"
     inkscape:pageopacity="0.0"
     inkscape:pagecheckerboard="0"
     inkscape:deskcolor="#d1d1d1"
     inkscape:document-units="mm"
     showgrid="false"
     inkscape:zoom="1.5108866"
     inkscape:cx="-82.732878"
     inkscape:cy="42.359233"
     inkscape:window-width="1920"
     inkscape:window-height="986"
     inkscape:window-x="-11"
     inkscape:window-y="-11"
     inkscape:window-maximized="1"
     inkscape:current-layer="layer1" />
  <defs
     id="defs30814" />
  <g
     inkscape:label="Layer 1"
     inkscape:groupmode="layer"
     id="layer1"
     transform="translate(-92.74218,-114.69284)">
    <path
       class="st1"
       d="m 101.35888,134.84749 c 1.05302,0.007 2.09793,0.0397 3.13474,0.10168 1.81176,0.10654 3.39959,-1.20635 3.67017,-3.00121 l 1.9522,-12.99226 c 0.30375,-2.0222 -1.16884,-3.89414 -3.20788,-4.04453 -1.79572,-0.13299 -3.6077,-0.20522 -5.43593,-0.2167 -1.828238,-0.0115 -3.640974,0.038 -5.438223,0.14842 -2.040764,0.12478 -3.536739,1.97808 -3.258413,4.00393 l 1.788899,13.01841 c 0.248007,1.79811 1.81924,3.13092 3.632191,3.04706 1.045441,-0.0491 2.101286,-0.0715 3.162236,-0.0649 z"
       id="path16"
       style="fill:#4aa4b6;stroke-width:0.264583" />
    <path
       class="st57"
       d="m 104.00597,124.82587 v 0.005 c -0.0318,-0.003 -0.0635,-0.005 -0.0979,-0.005 -0.0212,0 -0.0423,0.003 -0.0635,0.003 -0.0106,0 -0.0212,-0.003 -0.0317,-0.003 h -2.42094 c -0.37571,0 -0.67733,0.30427 -0.67733,0.67733 0,0.37571 0.30427,0.67733 0.67733,0.67733 h 0.74348 0.32014 c 0.21432,0 0.3863,0.17463 0.3863,0.3863 0,0.21431 -0.17463,0.38629 -0.3863,0.38629 h -0.36247 -0.99219 -0.38629 c -0.10319,0 -0.23813,-0.045 -0.30957,-0.11642 l -2.629955,-2.56117 c -0.320146,-0.32014 -0.851958,-0.30162 -1.148291,0.0556 -0.256646,0.3122 -0.211667,0.77787 0.07408,1.06362 l 2.947458,2.87867 c 0.145521,0.14552 0.343959,0.22754 0.547688,0.22754 h 3.61421 c 0.0159,0 0.0291,-0.003 0.045,-0.005 0.0185,0 0.0344,0.003 0.0529,0.003 0.0318,0 0.0661,-0.003 0.0979,-0.005 v 0.008 c 0.96309,0 1.74096,-0.78052 1.74096,-1.7436 v -0.19315 c 0.003,-0.95779 -0.77787,-1.73831 -1.74096,-1.73831 z"
       id="path338"
       style="fill:#ffffff;stroke-width:0.264583" />
    <path
       class="st57"
       d="m 97.714181,123.08226 c 0.0053,0 0.0079,0 0.01323,0 0.0026,0 0.0053,0 0.0079,0 h 1.725083 c 0.267229,0 0.484188,-0.21695 0.484188,-0.48154 0,-0.26458 -0.216959,-0.48154 -0.484188,-0.48154 h -0.521229 v -0.003 h -0.254 c -0.161396,0 -0.291042,-0.12964 -0.291042,-0.29104 0,-0.16139 0.129646,-0.29104 0.291042,-0.29104 h 0.254 0.470958 0.513292 c 0.07144,0 0.166685,0.0317 0.216955,0.082 l 1.79388,1.89177 c 0.22225,0.22225 0.59266,0.20902 0.79904,-0.0397 0.17991,-0.21696 0.14552,-0.53975 -0.0529,-0.74084 l -2.05052,-2.00025 c -0.10054,-0.10054 -0.23813,-0.15875 -0.381,-0.15875 h -2.513539 c -0.0053,0 -0.0079,0.003 -0.01323,0.003 v 0 c -0.695855,0 -1.256771,0.56356 -1.256771,1.25677 -0.01058,0.69056 0.552979,1.25412 1.248833,1.25412 z"
       id="path340"
       style="fill:#ffffff;stroke-width:0.264583" />
    <text
       transform="rotate(93.594919)"
       class="st1 st58 st68"
       id="text602"
       x="113.71622"
       y="-123.09407"
       style="font-size:5.29151px;font-family:UniversLTStd-BoldCn;fill:#4aa4b6;stroke-width:0.264575"></text>
  </g>
</svg>
