<?xml version="1.0" encoding="UTF-8" standalone="no"?>
<!-- Created with Inkscape (http://www.inkscape.org/) -->

<svg
   width="15.935662mm"
   height="18.52133mm"
   viewBox="0 0 15.935662 18.52133"
   version="1.1"
   id="svg67450"
   inkscape:version="1.2.1 (9c6d41e410, 2022-07-14)"
   sodipodi:docname="crg.svg"
   xmlns:inkscape="http://www.inkscape.org/namespaces/inkscape"
   xmlns:sodipodi="http://sodipodi.sourceforge.net/DTD/sodipodi-0.dtd"
   xmlns="http://www.w3.org/2000/svg"
   xmlns:svg="http://www.w3.org/2000/svg">
  <sodipodi:namedview
     id="namedview67452"
     pagecolor="#ffffff"
     bordercolor="#666666"
     borderopacity="1.0"
     inkscape:showpageshadow="2"
     inkscape:pageopacity="0.0"
     inkscape:pagecheckerboard="0"
     inkscape:deskcolor="#d1d1d1"
     inkscape:document-units="mm"
     showgrid="false"
     inkscape:zoom="2.1367164"
     inkscape:cx="20.592345"
     inkscape:cy="92.197543"
     inkscape:window-width="1920"
     inkscape:window-height="986"
     inkscape:window-x="-11"
     inkscape:window-y="-11"
     inkscape:window-maximized="1"
     inkscape:current-layer="layer1" />
  <defs
     id="defs67447" />
  <g
     inkscape:label="Layer 1"
     inkscape:groupmode="layer"
     id="layer1"
     transform="translate(-84.144198,-63.588347)">
    <path
       class="st75"
       d="m 89.228043,82.102312 c 1.27,-0.100541 3.831167,-0.0979 5.717646,0.0026 1.669521,0.08996 3.132666,-1.103312 3.373437,-2.756958 l 1.733024,-11.895667 c 0.23812,-1.907646 -1.084795,-3.558646 -2.952753,-3.688291 -2.143125,-0.230188 -6.601354,-0.23548 -9.958916,-0.0079 -1.867959,0.127 -3.227917,1.825625 -2.963334,3.677708 l 1.685396,11.871854 c 0.185208,1.63248 1.690688,2.883959 3.3655,2.796646 z"
       id="path994"
       style="fill:#562061;stroke-width:0.264583" />
    <path
       class="st57"
       d="m 92.884585,73.910812 v -1.44727 -0.386292 -1.098021 c 0.209021,0.161396 0.351896,0.388938 0.388937,0.656167 0.02117,0.145521 0.145521,0.248708 0.28575,0.248708 0.01323,0 0.02646,0 0.03969,-0.0026 0.15875,-0.02117 0.267229,-0.169333 0.246062,-0.328083 -0.113771,-0.814917 -0.844021,-1.407583 -1.733021,-1.407583 -0.889,0 -1.61925,0.592666 -1.73302,1.407583 -0.02117,0.15875 0.08731,0.304271 0.246062,0.328083 0.15875,0.02117 0.304271,-0.08731 0.328083,-0.246062 0.03704,-0.264584 0.179917,-0.492125 0.388938,-0.656167 v 1.098021 0.386292 1.44727 c 0,0.15875 0.129646,0.288396 0.288396,0.288396 0.15875,0 0.288396,-0.129646 0.288396,-0.288396 v -1.44727 h 0.386291 v 1.44727 c 0,0.15875 0.129646,0.288396 0.288396,0.288396 0.161396,0 0.291042,-0.129646 0.291042,-0.288396 z"
       id="path1002"
       style="fill:#ffffff;stroke-width:0.264583" />
    <path
       class="st57"
       d="m 92.112001,69.762146 c 0.42598,0 0.772584,-0.346604 0.772584,-0.772584 0,-0.425979 -0.346604,-0.772583 -0.772584,-0.772583 -0.425979,0 -0.772583,0.346604 -0.772583,0.772583 0,0.428625 0.346604,0.772584 0.772583,0.772584 z"
       id="path1004"
       style="fill:#ffffff;stroke-width:0.264583" />
    <path
       class="st57"
       d="m 89.712231,73.162041 c -0.156105,-0.15875 -0.41275,-0.15875 -0.568855,0 -0.156104,0.15875 -0.156104,0.418042 0,0.579438 l 0.732896,0.703792 c 0.0926,0.0926 0.0926,0.243416 0,0.33602 -0.08996,0.09261 -0.240771,0.09261 -0.330729,0 l -0.904875,-0.968375 v -3.087687 c 0,-0.320146 -0.264583,-0.579437 -0.579437,-0.579437 -0.314855,0 -0.579438,0.259291 -0.579438,0.579437 v 3.357562 c 0,0.153459 0.06085,0.301625 0.166688,0.410105 l 2.148416,2.214562 v 0.772583 h 1.735667 v -1.928812 c 0,-0.386292 -0.100542,-0.679979 -0.351896,-0.936625 z"
       id="path1006"
       style="fill:#ffffff;stroke-width:0.264583" />
    <path
       class="st57"
       d="m 96.162772,70.148437 c -0.314854,0 -0.579437,0.259292 -0.579437,0.579438 v 3.087687 l -0.904875,0.968375 c -0.0926,0.0926 -0.240771,0.0926 -0.330729,0 -0.0926,-0.0926 -0.0926,-0.243416 0,-0.336021 l 0.732895,-0.703791 c 0.156104,-0.15875 0.156104,-0.418042 0,-0.579438 -0.156104,-0.15875 -0.41275,-0.15875 -0.568854,0 l -1.468437,1.452563 c -0.251354,0.256646 -0.351896,0.550333 -0.351896,0.936625 v 1.928812 h 1.735667 v -0.772583 l 2.148416,-2.214563 c 0.108479,-0.108479 0.166688,-0.256645 0.166688,-0.410104 v -3.357562 c 0,-0.320146 -0.264584,-0.579438 -0.579438,-0.579438 z"
       id="path1008"
       style="fill:#ffffff;stroke-width:0.264583" />
  </g>
</svg>
