<?xml version="1.0" encoding="UTF-8" standalone="no"?>
<!-- Created with Inkscape (http://www.inkscape.org/) -->

<svg
   width="15.931879mm"
   height="18.521343mm"
   viewBox="0 0 15.931879 18.521343"
   version="1.1"
   id="svg53725"
   inkscape:version="1.2.1 (9c6d41e410, 2022-07-14)"
   sodipodi:docname="dem.svg"
   xmlns:inkscape="http://www.inkscape.org/namespaces/inkscape"
   xmlns:sodipodi="http://sodipodi.sourceforge.net/DTD/sodipodi-0.dtd"
   xmlns="http://www.w3.org/2000/svg"
   xmlns:svg="http://www.w3.org/2000/svg">
  <sodipodi:namedview
     id="namedview53727"
     pagecolor="#ffffff"
     bordercolor="#666666"
     borderopacity="1.0"
     inkscape:showpageshadow="2"
     inkscape:pageopacity="0.0"
     inkscape:pagecheckerboard="0"
     inkscape:deskcolor="#d1d1d1"
     inkscape:document-units="mm"
     showgrid="false"
     inkscape:zoom="4.2734328"
     inkscape:cx="40.482677"
     inkscape:cy="30.186505"
     inkscape:window-width="1920"
     inkscape:window-height="986"
     inkscape:window-x="-11"
     inkscape:window-y="-11"
     inkscape:window-maximized="1"
     inkscape:current-layer="layer1" />
  <defs
     id="defs53722" />
  <g
     inkscape:label="Layer 1"
     inkscape:groupmode="layer"
     id="layer1"
     transform="translate(-92.551748,-105.38375)">
    <path
       class="st75"
       d="m 97.632339,123.89732 c 1.27,-0.10055 3.831171,-0.0979 5.717641,0.003 1.66953,0.09 3.13267,-1.10331 3.37344,-2.75696 l 1.73302,-11.89566 c 0.23548,-1.90765 -1.08479,-3.55865 -2.9501,-3.68829 -2.14313,-0.23019 -6.601356,-0.23548 -9.958918,-0.008 -1.865313,0.127 -3.225271,1.82562 -2.963333,3.67771 l 1.685395,11.87185 c 0.182563,1.63248 1.690688,2.88396 3.362855,2.79665 z"
       id="path844"
       style="fill:#562061;stroke-width:0.264583" />
    <path
       class="st57"
       d="m 104.71259,116.10798 -0.86783,-0.61118 -2.06905,2.94216 -1.63512,-1.23296 -1.418168,1.92352 c -0.06879,0.0926 -0.174625,0.14288 -0.283104,0.14288 -0.07408,0 -0.145521,-0.0212 -0.209021,-0.0688 -0.156104,-0.11642 -0.1905,-0.33602 -0.07408,-0.49213 l 1.838854,-2.49502 1.621889,1.22238 1.64836,-2.34686 -0.85461,-0.6006 2.54794,-1.18269 z m -7.405689,-6.09335 c -0.246062,0 -0.4445,0.19844 -0.4445,0.4445 0,0.24606 0.198438,0.4445 0.4445,0.4445 0.246063,0 0.4445,-0.19844 0.4445,-0.4445 0,-0.24606 -0.198437,-0.4445 -0.4445,-0.4445 z m -0.05292,3.4925 -0.08996,1.64042 c 0,0.0582 -0.04763,0.10583 -0.105833,0.10583 -0.05821,0 -0.103188,-0.0476 -0.103188,-0.10583 l -0.08996,-1.64042 h -0.291042 l 0.301625,-1.8415 -0.605896,1.20385 c -0.02117,0.0529 -0.08467,0.0794 -0.137583,0.0556 -0.05292,-0.0238 -0.07673,-0.0847 -0.05556,-0.13759 0,0 0.4445,-1.19856 0.552979,-1.42081 0.108479,-0.22225 0.216958,-0.35719 0.632354,-0.35719 h 0.08467 c 0.415395,0 0.523875,0.13494 0.632354,0.35719 0.111125,0.22225 0.552979,1.42081 0.552979,1.42081 0.02381,0.0529 -0.0026,0.11377 -0.05556,0.13759 -0.05292,0.0238 -0.11377,-0.003 -0.137583,-0.0556 l -0.60325,-1.20385 0.298979,1.8415 h -0.291041 l -0.08996,1.64042 c 0,0.0582 -0.04762,0.10583 -0.103187,0.10583 -0.05821,0 -0.103188,-0.0476 -0.103188,-0.10583 l -0.09525,-1.64042 z m 4.093109,-3.048 c 0,0.24606 -0.19844,0.4445 -0.4445,0.4445 -0.24606,0 -0.44715,-0.19844 -0.44715,-0.4445 0,-0.24606 0.19844,-0.4445 0.44715,-0.4445 0.24606,0 0.4445,0.19844 0.4445,0.4445 z m 0.0159,2.17487 0.0873,2.43417 c 0.005,0.0953 -0.0662,0.17992 -0.1614,0.18521 -0.005,0 -0.008,0 -0.0132,0 -0.09,0 -0.16933,-0.0688 -0.17462,-0.1614 l -0.19844,-1.88118 -0.19844,1.88118 c -0.008,0.0926 -0.0847,0.1614 -0.17462,0.1614 -0.003,0 -0.008,0 -0.0132,0 -0.0953,-0.008 -0.16934,-0.09 -0.1614,-0.18521 l 0.0847,-2.43417 -0.0291,-0.96837 -0.542395,1.20385 c -0.02117,0.0529 -0.08467,0.0794 -0.137584,0.0556 -0.05292,-0.0238 -0.07673,-0.0847 -0.05556,-0.13759 0,0 0.383649,-1.19591 0.492129,-1.42081 0.10848,-0.22225 0.27781,-0.35719 0.69321,-0.35719 h 0.0847 c 0.4154,0 0.58473,0.13494 0.69321,0.35719 0.10848,0.22225 0.49213,1.42081 0.49213,1.42081 0.0238,0.0529 -0.003,0.11377 -0.0556,0.13759 -0.0529,0.0212 -0.11377,-0.003 -0.13758,-0.0556 l -0.5424,-1.20385 z m -1.984374,0.35719 c 0,0.15081 -0.121709,0.27252 -0.272521,0.27252 -0.150813,0 -0.272521,-0.12171 -0.272521,-0.27252 0,-0.15081 0.121708,-0.27252 0.272521,-0.27252 0.148166,0 0.272521,0.12171 0.272521,0.27252 z m -0.275167,1.33615 -0.121708,0.8546 c -0.01587,0.0423 -0.05556,0.0714 -0.103188,0.0714 -0.05027,0 -0.08996,-0.0318 -0.105833,-0.0767 0,-0.003 -0.0053,-0.0529 0,-0.0609 l 0.05027,-1.0504 -0.01587,-0.35983 c -0.01323,-0.12171 -0.01588,-0.0873 -0.156105,-0.16934 -0.142875,-0.0847 -0.383645,-0.46037 -0.396875,-0.47889 -0.01058,-0.0185 -0.0344,-0.0529 -0.03704,-0.0741 -0.0079,-0.037 0.01852,-0.0741 0.05556,-0.082 0.0291,-0.005 0.05292,0.0106 0.06879,0.0291 0.01852,0.0212 0.298979,0.39158 0.505354,0.42598 0.04762,-0.008 0.0979,-0.0318 0.230188,-0.0318 h 0.05292 c 0.132292,0 0.182563,0.0238 0.230188,0.0318 0.209021,-0.0344 0.486833,-0.40746 0.505354,-0.42598 0.01852,-0.0185 0.04233,-0.0344 0.06879,-0.0291 0.03704,0.008 0.0635,0.0423 0.05556,0.082 -0.0053,0.0212 -0.02646,0.0529 -0.03704,0.0741 -0.01058,0.0185 -0.254,0.39158 -0.396875,0.47889 -0.140229,0.082 -0.140229,0.0476 -0.156104,0.16934 l -0.01587,0.35983 0.05027,1.0504 c 0.0026,0.008 0,0.0582 0,0.0609 -0.01587,0.045 -0.05556,0.0767 -0.105833,0.0767 -0.04762,0 -0.08731,-0.0291 -0.103188,-0.0714 0.0026,0 -0.121708,-0.8546 -0.121708,-0.8546"
       id="path846"
       style="fill:#ffffff;stroke-width:0.264583" />
  </g>
</svg>
