<?xml version="1.0" encoding="UTF-8" standalone="no"?>
<!-- Created with Inkscape (http://www.inkscape.org/) -->

<svg
   width="15.932407mm"
   height="18.521336mm"
   viewBox="0 0 15.932407 18.521336"
   version="1.1"
   id="svg77243"
   inkscape:version="1.2.1 (9c6d41e410, 2022-07-14)"
   sodipodi:docname="dta.svg"
   xmlns:inkscape="http://www.inkscape.org/namespaces/inkscape"
   xmlns:sodipodi="http://sodipodi.sourceforge.net/DTD/sodipodi-0.dtd"
   xmlns="http://www.w3.org/2000/svg"
   xmlns:svg="http://www.w3.org/2000/svg">
  <sodipodi:namedview
     id="namedview77245"
     pagecolor="#ffffff"
     bordercolor="#666666"
     borderopacity="1.0"
     inkscape:showpageshadow="2"
     inkscape:pageopacity="0.0"
     inkscape:pagecheckerboard="0"
     inkscape:deskcolor="#d1d1d1"
     inkscape:document-units="mm"
     showgrid="false"
     inkscape:zoom="3.0217733"
     inkscape:cx="1.323726"
     inkscape:cy="85.38033"
     inkscape:window-width="1920"
     inkscape:window-height="986"
     inkscape:window-x="-11"
     inkscape:window-y="-11"
     inkscape:window-maximized="1"
     inkscape:current-layer="layer1" />
  <defs
     id="defs77240" />
  <g
     inkscape:label="Layer 1"
     inkscape:groupmode="layer"
     id="layer1"
     transform="translate(-97.300677,-93.110054)">
    <path
       class="st75"
       d="m 102.38127,111.62362 c 1.27,-0.10054 3.83116,-0.0979 5.71764,0.003 1.66952,0.09 3.13267,-1.10331 3.37344,-2.75696 l 1.73302,-11.895666 c 0.23813,-1.907646 -1.08479,-3.558646 -2.9501,-3.688291 -2.14313,-0.230188 -6.60136,-0.23548 -9.95892,-0.0079 -1.865311,0.127 -3.22527,1.825625 -2.963332,3.677708 l 1.685396,11.871859 c 0.185208,1.63248 1.690686,2.88396 3.362856,2.79664 z"
       id="path1068"
       style="fill:#562061;stroke-width:0.264583" />
    <path
       class="st57"
       d="m 102.25427,104.26291 -1.38377,1.38378 c -0.30957,0.30956 -0.30957,0.81491 0,1.12183 0.30956,0.30956 0.81491,0.30956 1.12183,0 l 1.38642,-1.38642 c -0.43921,-0.30427 -0.81757,-0.68527 -1.12448,-1.11919 z"
       id="path1076"
       style="fill:#ffffff;stroke-width:0.264583" />
    <path
       class="st57"
       d="M 104.88158,101.59856 H 104.109 c -0.10584,0 -0.19315,0.0873 -0.19315,0.19315 v 0.9525 c 0.254,0.47095 0.66411,0.84931 1.15888,1.06627 v -2.01877 c 0,-0.10584 -0.0873,-0.19315 -0.19315,-0.19315 z"
       id="path1078"
       style="fill:#ffffff;stroke-width:0.264583" />
    <path
       class="st57"
       d="m 107.96662,100.44233 h -0.77258 c -0.10583,0 -0.19315,0.0873 -0.19315,0.19315 v 3.175 c 0.49477,-0.21696 0.90223,-0.59532 1.15888,-1.06627 v -2.11138 c 0,-0.10319 -0.0847,-0.1905 -0.19315,-0.1905 z"
       id="path1080"
       style="fill:#ffffff;stroke-width:0.264583" />
    <path
       class="st57"
       d="m 106.4241,101.02177 h -0.77258 c -0.10584,0 -0.19315,0.0873 -0.19315,0.19315 v 2.72785 c 0.18521,0.045 0.37836,0.0688 0.57944,0.0688 0.20108,0 0.39423,-0.0238 0.57944,-0.0688 v -2.72785 c 0,-0.10848 -0.0873,-0.19315 -0.19315,-0.19315 z"
       id="path1082"
       style="fill:#ffffff;stroke-width:0.264583" />
    <path
       class="st57"
       d="m 106.03781,97.740936 c -2.13254,0 -3.85763,1.727729 -3.85763,3.857624 0,2.1299 1.72773,3.85763 3.85763,3.85763 2.13254,0 3.85762,-1.72773 3.85762,-3.85763 0,-2.129895 -1.72508,-3.857624 -3.85762,-3.857624 z m 2.12196,5.823474 c -0.31486,0.34132 -0.70909,0.60855 -1.15888,0.76465 -0.12435,0.045 -0.25135,0.082 -0.38629,0.10848 -0.18785,0.0397 -0.381,0.0582 -0.57944,0.0582 -0.19843,0 -0.39158,-0.0185 -0.57943,-0.0582 -0.1323,-0.0265 -0.2593,-0.0635 -0.3863,-0.10848 -0.44714,-0.1561 -0.84402,-0.42333 -1.15887,-0.76465 -0.48154,-0.51593 -0.77258,-1.20649 -0.77258,-1.9632 0,-1.59809 1.29645,-2.894545 2.89454,-2.894545 1.59808,0 2.89454,1.296455 2.89454,2.894545 0.005,0.75671 -0.28575,1.44727 -0.76729,1.9632 z"
       id="path1084"
       style="fill:#ffffff;stroke-width:0.264583" />
  </g>
</svg>
