<?xml version="1.0" encoding="UTF-8" standalone="no"?>
<!-- Created with Inkscape (http://www.inkscape.org/) -->

<svg
   width="17.770664mm"
   height="17.770664mm"
   viewBox="0 0 17.770664 17.770664"
   version="1.1"
   id="svg2740"
   inkscape:version="1.2.1 (9c6d41e410, 2022-07-14)"
   sodipodi:docname="ecd.svg"
   xmlns:inkscape="http://www.inkscape.org/namespaces/inkscape"
   xmlns:sodipodi="http://sodipodi.sourceforge.net/DTD/sodipodi-0.dtd"
   xmlns="http://www.w3.org/2000/svg"
   xmlns:svg="http://www.w3.org/2000/svg">
  <sodipodi:namedview
     id="namedview2742"
     pagecolor="#ffffff"
     bordercolor="#666666"
     borderopacity="1.0"
     inkscape:showpageshadow="2"
     inkscape:pageopacity="0.0"
     inkscape:pagecheckerboard="0"
     inkscape:deskcolor="#d1d1d1"
     inkscape:document-units="mm"
     showgrid="false"
     inkscape:zoom="5.6159371"
     inkscape:cx="56.80263"
     inkscape:cy="40.242616"
     inkscape:window-width="1920"
     inkscape:window-height="986"
     inkscape:window-x="-11"
     inkscape:window-y="-11"
     inkscape:window-maximized="1"
     inkscape:current-layer="layer1" />
  <defs
     id="defs2737" />
  <g
     inkscape:label="Layer 1"
     inkscape:groupmode="layer"
     id="layer1"
     transform="translate(-117.00045,-116.24665)">
    <path
       class="st89"
       d="m 117.37546,125.13066 c 0,4.70165 3.81,8.51165 8.509,8.51165 4.699,0 8.51165,-3.81 8.51165,-8.51165 0,-4.699 -3.81,-8.509 -8.51165,-8.509 -4.699,0 -8.509,3.81 -8.509,8.509 z"
       id="path1146"
       style="fill:#e7f1ea;stroke-width:0.264583" />
    <path
       class="st90"
       d="m 117.37546,125.13066 c 0,4.70165 3.81,8.51165 8.509,8.51165 4.699,0 8.51165,-3.81 8.51165,-8.51165 0,-4.699 -3.81,-8.509 -8.51165,-8.509 -4.699,0 -8.509,3.81 -8.509,8.509 z"
       id="path1148"
       style="fill:none;stroke:#13733b;stroke-width:0.750014;stroke-miterlimit:10" />
    <path
       class="st88"
       d="m 125.70984,126.96687 c 0,0 0.88371,0.88635 0.889,0.88635 0.2831,0.28575 0.20902,0.78317 -0.0582,1.05569 l -1.2356,1.28852 c -0.47625,0.4736 -1.1139,-0.18521 -0.65088,-0.64558 l 0.78317,-0.78317 -0.76729,-0.762 z m -2.75167,0 v 0 l -0.88371,0.88635 c -0.28575,0.28575 -0.21166,0.78317 0.0529,1.05569 l 1.23825,1.28852 c 0.4736,0.4736 1.11125,-0.18521 0.65088,-0.64558 l -0.78317,-0.78317 0.762,-0.762 z m 1.40759,-3.29671 c 0.70908,0 1.28322,-0.57415 1.28322,-1.28588 0,-0.70908 -0.57414,-1.28322 -1.28322,-1.28322 -0.70909,0 -1.28588,0.57414 -1.28588,1.28322 0,0.71173 0.57415,1.28588 1.28588,1.28588 z m 1.3917,2.78077 0.0185,-0.87577 1.06628,0.99748 c 0.0873,0.082 0.19843,0.12171 0.30956,0.12171 0.12171,0 0.24341,-0.0476 0.33337,-0.14552 0.17198,-0.18257 0.1614,-0.47096 -0.0212,-0.64294 0,0 -1.22502,-1.32821 -1.39965,-1.48431 -0.32544,-0.2884 -0.80433,-0.45244 -1.57956,-0.45244 h -0.24342 c -0.77523,0 -1.25148,0.16404 -1.57956,0.45244 -0.17463,0.1561 -1.39965,1.48431 -1.39965,1.48431 -0.18256,0.17198 -0.19314,0.46037 -0.0212,0.64294 0.09,0.0979 0.21166,0.14552 0.33337,0.14552 0.11113,0 0.22225,-0.0397 0.30956,-0.12171 l 1.06627,-0.99748 0.0185,0.87577 z"
       id="path1150"
       style="fill:#13733b;stroke-width:0.264583" />
    <path
       class="st88"
       d="m 128.10696,123.25476 v 1.41817 c 0,0.17463 0.14288,0.3175 0.3175,0.3175 h 1.41817 c 0.17463,0 0.3175,-0.14287 0.3175,-0.3175 v -1.41817 c 0,-0.17462 -0.14287,-0.3175 -0.3175,-0.3175 h -1.41817 c -0.17462,0 -0.3175,0.14288 -0.3175,0.3175 z m 1.15888,1.21709 -0.0185,-0.10319 h -0.005 c -0.0661,0.082 -0.17198,0.127 -0.29369,0.127 -0.20638,0 -0.33073,-0.15081 -0.33073,-0.31485 0,-0.26459 0.23812,-0.39159 0.59796,-0.38894 v -0.0159 c 0,-0.0529 -0.0291,-0.12964 -0.18521,-0.12964 -0.10583,0 -0.21431,0.0344 -0.2831,0.0767 l -0.0582,-0.20638 c 0.0714,-0.037 0.21166,-0.0873 0.39687,-0.0873 0.33867,0 0.44979,0.19844 0.44979,0.43921 v 0.35454 c 0,0.0979 0.005,0.19314 0.0159,0.24871 z"
       id="path1152"
       style="fill:#13733b;stroke-width:0.264583" />
    <path
       class="st88"
       d="m 128.59644,125.6122 v 1.40229 c 0,0.17992 0.14552,0.32544 0.32544,0.32544 h 1.40229 c 0.17992,0 0.32544,-0.14552 0.32544,-0.32544 v -1.40229 c 0,-0.17992 -0.14552,-0.32544 -0.32544,-0.32544 h -1.40229 c -0.17992,0 -0.32544,0.14552 -0.32544,0.32544 z m 1.13242,1.37583 c -0.11906,0 -0.23283,-0.0423 -0.30692,-0.16404 h -0.005 l -0.0132,0.14288 h -0.26987 c 0.005,-0.0688 0.008,-0.1905 0.008,-0.30427 v -1.1774 h 0.3175 v 0.58208 h 0.005 c 0.0608,-0.0873 0.16668,-0.14552 0.30956,-0.14552 0.24342,0 0.42333,0.20373 0.42069,0.51594 0,0.36777 -0.23284,0.55033 -0.46567,0.55033 z"
       id="path1154"
       style="fill:#13733b;stroke-width:0.264583" />
    <path
       class="st88"
       d="m 127.9879,127.96435 v 1.397 c 0,0.18256 0.14552,0.32808 0.32808,0.32808 h 1.397 c 0.18257,0 0.32809,-0.14552 0.32809,-0.32808 v -1.397 c 0,-0.17992 -0.14817,-0.32809 -0.32809,-0.32809 h -1.397 c -0.17991,0 -0.32808,0.14817 -0.32808,0.32809 z m 1.08479,0.96308 c 0.0741,0 0.13494,-0.0106 0.18257,-0.0317 l 0.037,0.23548 c -0.0556,0.0238 -0.1614,0.0476 -0.28311,0.0476 -0.33073,0 -0.53975,-0.20372 -0.53975,-0.52387 0,-0.29898 0.20373,-0.5424 0.58473,-0.5424 0.082,0 0.17463,0.0132 0.24342,0.0397 l -0.0503,0.23548 c -0.037,-0.0159 -0.0952,-0.0317 -0.17727,-0.0317 -0.16669,0 -0.27517,0.11906 -0.27252,0.28575 -0.005,0.18785 0.11906,0.28575 0.27516,0.28575 z"
       id="path1156"
       style="fill:#13733b;stroke-width:0.264583" />
    <path
       class="st88"
       d="m 129.75532,126.14137 c -0.0847,0 -0.16404,0.0661 -0.18521,0.1561 -0.005,0.0185 -0.005,0.037 -0.005,0.0582 v 0.15081 c 0,0.0212 0.003,0.0397 0.005,0.0556 0.0212,0.0873 0.0952,0.15081 0.18521,0.15081 0.13494,0 0.2196,-0.10319 0.2196,-0.2884 0,-0.15875 -0.0714,-0.2831 -0.2196,-0.2831 z"
       id="path1158"
       style="fill:#13733b;stroke-width:0.264583" />
    <path
       class="st88"
       d="m 128.91659,124.16758 c 0,0.082 0.0529,0.1217 0.12435,0.1217 0.0794,0 0.14552,-0.0529 0.16404,-0.11641 0.005,-0.0159 0.005,-0.037 0.005,-0.0556 v -0.10848 c -0.16405,-0.003 -0.29369,0.037 -0.29369,0.15875 z"
       id="path1160"
       style="fill:#13733b;stroke-width:0.264583" />
  </g>
</svg>
