<?xml version="1.0" encoding="UTF-8" standalone="no"?>
<!-- Created with Inkscape (http://www.inkscape.org/) -->

<svg
   width="17.416306mm"
   height="20.292732mm"
   viewBox="0 0 17.416306 20.292732"
   version="1.1"
   id="svg19319"
   inkscape:version="1.2.1 (9c6d41e410, 2022-07-14)"
   sodipodi:docname="ele.svg"
   xmlns:inkscape="http://www.inkscape.org/namespaces/inkscape"
   xmlns:sodipodi="http://sodipodi.sourceforge.net/DTD/sodipodi-0.dtd"
   xmlns="http://www.w3.org/2000/svg"
   xmlns:svg="http://www.w3.org/2000/svg">
  <sodipodi:namedview
     id="namedview19321"
     pagecolor="#ffffff"
     bordercolor="#666666"
     borderopacity="1.0"
     inkscape:showpageshadow="2"
     inkscape:pageopacity="0.0"
     inkscape:pagecheckerboard="0"
     inkscape:deskcolor="#d1d1d1"
     inkscape:document-units="mm"
     showgrid="false"
     inkscape:zoom="2.8079686"
     inkscape:cx="78.704585"
     inkscape:cy="72.294256"
     inkscape:window-width="1920"
     inkscape:window-height="986"
     inkscape:window-x="-11"
     inkscape:window-y="-11"
     inkscape:window-maximized="1"
     inkscape:current-layer="layer1" />
  <defs
     id="defs19316" />
  <g
     inkscape:label="Layer 1"
     inkscape:groupmode="layer"
     id="layer1"
     transform="translate(-102.46022,-105.48584)">
    <path
       class="st4"
       d="m 107.90894,125.71869 c 2.07848,-0.0913 4.16806,-0.0752 6.2606,0.0532 1.81395,0.1121 3.40582,-1.19982 3.67822,-2.99431 l 1.98761,-13.00269 c 0.30902,-2.02272 -1.15821,-3.89458 -3.19591,-4.05288 -3.64127,-0.28304 -7.277,-0.30937 -10.8838,-0.0914 -2.03854,0.12461 -3.53473,1.96902 -3.26369,3.99424 l 1.75615,13.04158 c 0.24658,1.81518 1.83538,3.13344 3.66082,3.0523 z"
       id="path46"
       style="fill:#2e76bc;stroke-width:0.264583" />
    <path
       class="st57"
       d="m 114.28274,110.35667 c -0.14553,-0.44186 -0.62178,-0.67998 -1.06098,-0.53711 -0.44186,0.14552 -0.67998,0.61913 -0.53446,1.06098 0.14552,0.44186 0.62177,0.67998 1.06098,0.53446 0.43921,-0.14552 0.67998,-0.61648 0.53446,-1.05833 z"
       id="path420"
       style="fill:#ffffff;stroke-width:0.264583" />
    <path
       class="st57"
       d="m 112.37774,114.71965 0.8255,-1.63777 c 0.254,-0.50271 0.0529,-1.11655 -0.45244,-1.37055 l -0.53711,-0.26987 c -0.0291,-0.0159 -0.0582,-0.0238 -0.09,-0.0318 -1.4314,-0.62706 -3.12738,-0.0423 -3.84705,1.3679 -0.10848,0.21431 -0.0238,0.47625 0.18786,0.58472 0.21431,0.10848 0.47625,0.0238 0.58473,-0.18785 0.41539,-0.81227 1.28587,-1.23825 2.14312,-1.12977 l -3.13002,6.13569 c -0.11112,0.21696 -0.0238,0.47889 0.1905,0.59002 0.0635,0.0318 0.13229,0.0476 0.19844,0.0476 0.15875,0 0.31485,-0.0873 0.39158,-0.24077 l 1.89971,-3.72798 0.94192,0.47361 c 1.016,0.55298 1.40758,1.82033 0.87312,2.84956 -0.11112,0.21431 -0.0291,0.4789 0.18786,0.59002 0.10848,0.0556 0.22754,0.0635 0.33602,0.0291 0.10583,-0.0344 0.20108,-0.10847 0.25664,-0.21695 0.70909,-1.35467 0.26988,-3.00832 -0.96043,-3.85498 z"
       id="path422"
       style="fill:#ffffff;stroke-width:0.264583" />
    <path
       class="st57"
       d="m 107.47501,113.60046 h -2.4183 c -0.10318,0 -0.1905,-0.0847 -0.1905,-0.1905 v 0 c 0,-0.10319 0.0847,-0.1905 0.1905,-0.1905 h 2.4183 c 0.10318,0 0.1905,0.0847 0.1905,0.1905 v 0 c 0,0.10583 -0.0847,0.1905 -0.1905,0.1905 z"
       id="path424"
       style="fill:#ffffff;stroke-width:0.264583" />
    <path
       class="st57"
       d="m 108.71855,114.47888 h -2.41829 c -0.10319,0 -0.1905,-0.0847 -0.1905,-0.1905 v 0 c 0,-0.10584 0.0847,-0.1905 0.1905,-0.1905 h 2.41829 c 0.10319,0 0.1905,0.0847 0.1905,0.1905 v 0 c -0.003,0.10583 -0.0873,0.1905 -0.1905,0.1905 z"
       id="path426"
       style="fill:#ffffff;stroke-width:0.264583" />
    <path
       class="st57"
       d="m 107.47501,115.35729 h -2.4183 c -0.10318,0 -0.1905,-0.0847 -0.1905,-0.1905 v 0 c 0,-0.10583 0.0847,-0.1905 0.1905,-0.1905 h 2.4183 c 0.10318,0 0.1905,0.0847 0.1905,0.1905 v 0 c 0,0.10584 -0.0847,0.1905 -0.1905,0.1905 z"
       id="path428"
       style="fill:#ffffff;stroke-width:0.264583" />
    <path
       class="st57"
       d="m 115.1003,117.21731 c 0.24871,0 0.4736,0.10055 0.63764,0.26194 -0.22225,0.27781 -0.48948,0.53446 -0.80698,0.76729 -0.0291,-0.0238 -0.0661,-0.037 -0.10848,-0.0397 -0.11641,-0.32015 -0.13758,-0.62707 -0.0661,-0.92075 0.10583,-0.045 0.22225,-0.0688 0.34396,-0.0688 z"
       id="path430"
       style="fill:#ffffff;stroke-width:0.264583" />
    <path
       class="st57"
       d="m 114.67167,117.32579 c -0.0582,0.2884 -0.0344,0.58473 0.0767,0.89429 -0.0423,0.0159 -0.0741,0.045 -0.0953,0.0847 l -0.46037,-0.19844 c 0.008,-0.34131 0.19843,-0.63235 0.47889,-0.78052 z"
       id="path432"
       style="fill:#ffffff;stroke-width:0.264583" />
    <path
       class="st57"
       d="m 115.79086,117.53481 c 0.13758,0.15875 0.2196,0.36777 0.2196,0.59267 0,0.12171 -0.0238,0.23813 -0.0661,0.34131 -0.31221,0.0212 -0.62442,-0.003 -0.93927,-0.0741 0,0 0,0 0,-0.003 0,-0.0344 -0.0106,-0.0635 -0.0238,-0.0926 0.31486,-0.22754 0.58473,-0.48419 0.80963,-0.76465 z"
       id="path434"
       style="fill:#ffffff;stroke-width:0.264583" />
    <path
       class="st57"
       d="m 114.19278,118.18833 0.43656,0.18786 c 0,0.008 -0.003,0.0132 -0.003,0.0212 0,0.045 0.0159,0.0873 0.045,0.11906 l -0.18785,0.28046 c -0.16669,-0.15346 -0.27517,-0.36777 -0.29104,-0.60855 z"
       id="path436"
       style="fill:#ffffff;stroke-width:0.264583" />
    <path
       class="st57"
       d="m 114.81455,118.28094 c 0.0635,0 0.11377,0.0503 0.11377,0.11377 0,0.0635 -0.0503,0.11377 -0.11377,0.11377 -0.0635,0 -0.11377,-0.0503 -0.11377,-0.11377 0.003,-0.0635 0.0529,-0.11377 0.11377,-0.11377 z"
       id="path438"
       style="fill:#ffffff;stroke-width:0.264583" />
    <path
       class="st57"
       d="m 114.98917,118.47144 c 0.30692,0.0688 0.61384,0.0952 0.91811,0.0794 -0.13494,0.25665 -0.3863,0.43921 -0.68527,0.48155 -0.1323,-0.14817 -0.21961,-0.3175 -0.26988,-0.50536 0.0159,-0.0185 0.0291,-0.037 0.037,-0.0556 z"
       id="path440"
       style="fill:#ffffff;stroke-width:0.264583" />
    <path
       class="st57"
       d="m 114.72988,118.56404 c 0.0265,0.0132 0.0556,0.0212 0.0847,0.0212 0.0265,0 0.0503,-0.005 0.0714,-0.0132 0.0476,0.17198 0.127,0.32808 0.24078,0.46831 -0.0106,0 -0.0185,0.003 -0.0291,0.003 -0.21167,0 -0.40481,-0.0714 -0.56092,-0.19315 z"
       id="path442"
       style="fill:#ffffff;stroke-width:0.264583" />
    <text
       transform="rotate(-18.650556)"
       class="st4 st58 st62"
       id="text712"
       x="60.342354"
       y="126.66247"
       style="font-size:5.29167px;font-family:UniversLTStd-BoldCn;fill:#2e76bc;stroke-width:0.264586"></text>
    <text
       transform="rotate(-20.751195)"
       class="st4 st58 st62"
       id="text716"
       x="58.007618"
       y="128.85655"
       style="font-size:5.29167px;font-family:UniversLTStd-BoldCn;fill:#2e76bc;stroke-width:0.264575"></text>
    <text
       transform="rotate(-22.148265)"
       class="st4 st58 st62"
       id="text718"
       x="56.023666"
       y="130.25621"
       style="font-size:5.29167px;font-family:UniversLTStd-BoldCn;fill:#2e76bc;stroke-width:0.26458"></text>
  </g>
</svg>
