<?xml version="1.0" encoding="UTF-8" standalone="no"?>
<!-- Created with Inkscape (http://www.inkscape.org/) -->

<svg
   width="17.770655mm"
   height="17.770664mm"
   viewBox="0 0 17.770655 17.770664"
   version="1.1"
   id="svg19439"
   inkscape:version="1.2.1 (9c6d41e410, 2022-07-14)"
   sodipodi:docname="env.svg"
   xmlns:inkscape="http://www.inkscape.org/namespaces/inkscape"
   xmlns:sodipodi="http://sodipodi.sourceforge.net/DTD/sodipodi-0.dtd"
   xmlns="http://www.w3.org/2000/svg"
   xmlns:svg="http://www.w3.org/2000/svg">
  <sodipodi:namedview
     id="namedview19441"
     pagecolor="#ffffff"
     bordercolor="#666666"
     borderopacity="1.0"
     inkscape:showpageshadow="2"
     inkscape:pageopacity="0.0"
     inkscape:pagecheckerboard="0"
     inkscape:deskcolor="#d1d1d1"
     inkscape:document-units="mm"
     showgrid="false"
     inkscape:zoom="5.6159371"
     inkscape:cx="58.049083"
     inkscape:cy="50.214237"
     inkscape:window-width="1920"
     inkscape:window-height="986"
     inkscape:window-x="-11"
     inkscape:window-y="-11"
     inkscape:window-maximized="1"
     inkscape:current-layer="layer1" />
  <defs
     id="defs19436" />
  <g
     inkscape:label="Layer 1"
     inkscape:groupmode="layer"
     id="layer1"
     transform="translate(-86.471272,-88.732692)">
    <path
       class="st89"
       d="m 86.846279,97.616699 c 0,4.701651 3.81,8.511651 8.509,8.511651 4.701641,0 8.511641,-3.81 8.511641,-8.511651 0,-4.699 -3.81,-8.509 -8.511641,-8.509 -4.699,0 -8.509,3.81 -8.509,8.509 z"
       id="path1180"
       style="fill:#e7f1ea;stroke-width:0.264583" />
    <path
       class="st90"
       d="m 86.846279,97.616699 c 0,4.701651 3.81,8.511651 8.509,8.511651 4.701641,0 8.511641,-3.81 8.511641,-8.511651 0,-4.699 -3.81,-8.509 -8.511641,-8.509 -4.699,0 -8.509,3.81 -8.509,8.509 z"
       id="path1182"
       style="fill:none;stroke:#13733b;stroke-width:0.750014;stroke-miterlimit:10" />
    <path
       class="st88"
       d="m 92.418404,98.503054 0.947209,-0.23548 0.470958,-1.182687 0.709083,-0.711729 0.711729,0.238125 0.470959,-0.473604 0.473604,0.473604 0.473604,1.182687 0.947208,0.473604 0.783167,2.156356 c -0.02381,0.003 -0.04762,0.005 -0.07673,0.005 -0.219604,0 -0.304271,-0.082 -0.492125,-0.26458 -0.22225,-0.21167 -0.555625,-0.531816 -1.161521,-0.531816 -0.608542,0 -0.941917,0.320146 -1.161521,0.531816 -0.187854,0.18256 -0.275167,0.26458 -0.494771,0.26458 -0.219604,0 -0.306916,-0.082 -0.49477,-0.26458 -0.214313,-0.203732 -0.537105,-0.513295 -1.113896,-0.52917 l -0.04498,-0.185208 0.235479,-0.711729 -0.947209,0.238125 -0.370416,1.111252 c -0.0291,0.0265 -0.05556,0.0529 -0.08202,0.0767 -0.187854,0.18256 -0.272521,0.26458 -0.492125,0.26458 -0.02117,0 -0.04233,0.003 -0.0635,0.005 z m 2.12725,-0.23548 0.947208,0.944563 v -0.709083 l -0.709083,-0.947209 v -0.709083 l -0.473604,0.473604 -0.473604,0.947208 z"
       id="path1184"
       style="fill:#13733b;stroke-width:0.264583" />
    <path
       class="st88"
       d="m 91.709321,101.3923 c 0.513292,0 0.780521,-0.25664 0.997479,-0.46566 0.198438,-0.1905 0.341313,-0.32809 0.656167,-0.32809 0.314854,0 0.460375,0.13759 0.658812,0.32809 0.216959,0.20902 0.484188,0.46566 0.997479,0.46566 0.513292,0 0.780521,-0.25664 0.997479,-0.46566 0.198438,-0.1905 0.343959,-0.32809 0.658813,-0.32809 0.314854,0 0.457729,0.13759 0.656167,0.32809 0.216958,0.20902 0.486833,0.46566 0.997479,0.46566 0.513291,0 0.783166,-0.25664 1.000125,-0.46566 0.198437,-0.1905 0.341312,-0.32809 0.656166,-0.32809 0.314853,0 0.460373,0.13759 0.658813,0.32809 0.21696,0.20902 0.48419,0.46566 0.99748,0.46566 0.13494,0 0.24606,-0.10848 0.24606,-0.24606 0,-0.13494 -0.11112,-0.24342 -0.24606,-0.24342 -0.31486,0 -0.45773,-0.14022 -0.65881,-0.33072 -0.21432,-0.20638 -0.48419,-0.46567 -0.997483,-0.46567 -0.513291,0 -0.78052,0.25929 -0.997479,0.46567 -0.198437,0.1905 -0.343958,0.33072 -0.658812,0.33072 -0.314854,0 -0.457729,-0.14022 -0.656167,-0.33072 -0.216958,-0.20638 -0.486833,-0.46567 -0.997479,-0.46567 -0.513292,0 -0.783167,0.25929 -0.997479,0.46567 -0.201084,0.1905 -0.343959,0.33072 -0.658813,0.33072 -0.314854,0 -0.457729,-0.14022 -0.658812,-0.33072 -0.214313,-0.20638 -0.484188,-0.46567 -0.997479,-0.46567 -0.510646,0 -0.780521,0.25929 -0.997479,0.46567 -0.198438,0.1905 -0.341313,0.33072 -0.656167,0.33072 -0.134938,0 -0.246063,0.10848 -0.246063,0.24342 0,0.13758 0.111125,0.24606 0.246063,0.24606 z"
       id="path1186"
       style="fill:#13733b;stroke-width:0.264583" />
    <path
       class="st88"
       d="m 91.709321,102.33951 c 0.513292,0 0.780521,-0.25929 0.997479,-0.46566 0.198438,-0.1905 0.341313,-0.33073 0.656167,-0.33073 0.314854,0 0.460375,0.14023 0.658812,0.33073 0.216959,0.20637 0.484188,0.46566 0.997479,0.46566 0.513292,0 0.780521,-0.25929 0.997479,-0.46566 0.198438,-0.1905 0.343959,-0.33073 0.658813,-0.33073 0.314854,0 0.457729,0.14023 0.656167,0.33073 0.216958,0.20637 0.486833,0.46566 0.997479,0.46566 0.513291,0 0.783166,-0.25929 1.000125,-0.46566 0.198437,-0.1905 0.341312,-0.33073 0.656166,-0.33073 0.314853,0 0.460373,0.14023 0.658813,0.33073 0.21696,0.20637 0.48419,0.46566 0.99748,0.46566 0.13494,0 0.24606,-0.11112 0.24606,-0.24606 0,-0.13494 -0.11112,-0.24606 -0.24606,-0.24606 -0.31486,0 -0.45773,-0.13759 -0.65881,-0.32809 -0.21432,-0.20902 -0.48419,-0.46566 -0.997483,-0.46566 -0.513291,0 -0.78052,0.25664 -0.997479,0.46566 -0.198437,0.1905 -0.343958,0.32809 -0.658812,0.32809 -0.314854,0 -0.457729,-0.13759 -0.656167,-0.32809 -0.216958,-0.20902 -0.486833,-0.46566 -0.997479,-0.46566 -0.513292,0 -0.783167,0.25664 -0.997479,0.46566 -0.201084,0.1905 -0.343959,0.32809 -0.658813,0.32809 -0.314854,0 -0.457729,-0.13759 -0.658812,-0.32809 -0.214313,-0.20902 -0.484188,-0.46566 -0.997479,-0.46566 -0.510646,0 -0.780521,0.25664 -0.997479,0.46566 -0.198438,0.1905 -0.341313,0.32809 -0.656167,0.32809 -0.134938,0 -0.246063,0.11112 -0.246063,0.24606 0,0.13494 0.111125,0.24606 0.246063,0.24606 z"
       id="path1188"
       style="fill:#13733b;stroke-width:0.264583" />
    <path
       class="st88"
       d="m 92.878779,93.936345 c 0.116417,0 0.214313,-0.0979 0.214313,-0.214312 v -0.428625 c 0,-0.119063 -0.0979,-0.214313 -0.214313,-0.214313 -0.119062,0 -0.214312,0.09525 -0.214312,0.214313 v 0.428625 c 0,0.116416 0.09525,0.214312 0.214312,0.214312 z"
       id="path1190"
       style="fill:#13733b;stroke-width:0.264583" />
    <path
       class="st88"
       d="m 92.664467,96.005387 v 0.428625 c 0,0.119062 0.09525,0.214312 0.214312,0.214312 0.116417,0 0.214313,-0.09525 0.214313,-0.214312 v -0.428625 c 0,-0.119063 -0.0979,-0.214313 -0.214313,-0.214313 -0.119062,0 -0.214312,0.09525 -0.214312,0.214313 z"
       id="path1192"
       style="fill:#13733b;stroke-width:0.264583" />
    <path
       class="st88"
       d="m 93.836571,94.20622 0.304271,-0.301625 c 0.08202,-0.08467 0.08202,-0.219604 0,-0.304271 -0.08467,-0.08202 -0.219604,-0.08202 -0.304271,0 l -0.301625,0.304271 c -0.08467,0.08202 -0.08467,0.219604 0,0.301625 0.08202,0.08467 0.219604,0.08467 0.301625,0 z"
       id="path1194"
       style="fill:#13733b;stroke-width:0.264583" />
    <path
       class="st88"
       d="m 91.918342,95.518554 -0.301625,0.30427 c -0.08467,0.08202 -0.08467,0.219605 0,0.301625 0.08202,0.08467 0.219604,0.08467 0.301625,0 l 0.304271,-0.301625 c 0.08202,-0.08467 0.08202,-0.219604 0,-0.30427 -0.08467,-0.08202 -0.219605,-0.08202 -0.304271,0 z"
       id="path1196"
       style="fill:#13733b;stroke-width:0.264583" />
    <path
       class="st88"
       d="m 93.807467,94.862387 c 0,0.119062 0.09525,0.214312 0.214312,0.214312 h 0.425979 c 0.119063,0 0.214313,-0.09525 0.214313,-0.214312 0,-0.116417 -0.09525,-0.214313 -0.214313,-0.214313 h -0.425979 c -0.119062,0 -0.214312,0.0979 -0.214312,0.214313 z"
       id="path1198"
       style="fill:#13733b;stroke-width:0.264583" />
    <path
       class="st88"
       d="m 91.307154,95.076699 h 0.428625 c 0.119063,0 0.214313,-0.09525 0.214313,-0.214312 0,-0.116417 -0.09525,-0.214313 -0.214313,-0.214313 h -0.428625 c -0.119062,0 -0.214312,0.0979 -0.214312,0.214313 0,0.119062 0.09525,0.214312 0.214312,0.214312 z"
       id="path1200"
       style="fill:#13733b;stroke-width:0.264583" />
    <path
       class="st88"
       d="m 93.534946,95.518554 c -0.08467,0.08467 -0.08467,0.219604 0,0.30427 l 0.301625,0.301625 c 0.08467,0.08467 0.219604,0.08467 0.304271,0 0.08202,-0.08202 0.08202,-0.219604 0,-0.301625 l -0.304271,-0.30427 c -0.08202,-0.08202 -0.219604,-0.08202 -0.301625,0 z"
       id="path1202"
       style="fill:#13733b;stroke-width:0.264583" />
    <path
       class="st88"
       d="m 91.918342,94.20622 c 0.08467,0.08467 0.219604,0.08467 0.304271,0 0.08202,-0.08202 0.08202,-0.219604 0,-0.301625 l -0.304271,-0.304271 c -0.08202,-0.08202 -0.219604,-0.08202 -0.301625,0 -0.08467,0.08467 -0.08467,0.219605 0,0.304271 z"
       id="path1204"
       style="fill:#13733b;stroke-width:0.264583" />
    <path
       class="st88"
       d="m 92.878779,95.505324 c 0.354542,0 0.642938,-0.288395 0.642938,-0.642937 0,-0.354542 -0.288396,-0.642938 -0.642938,-0.642938 -0.354541,0 -0.642937,0.288396 -0.642937,0.642938 0,0.354542 0.288396,0.642937 0.642937,0.642937 z"
       id="path1206"
       style="fill:#13733b;stroke-width:0.264583" />
    <path
       class="st88"
       d="m 100.08603,95.740804 c 0,-0.359834 -0.293688,-0.650875 -0.650876,-0.650875 -0.359833,0 -0.650875,0.291041 -0.650875,0.650875 v 2.510895 c -0.193146,0.179917 -0.301625,0.428625 -0.301625,0.693209 0,0.523875 0.428625,0.949854 0.9525,0.949854 0.523875,0 0.949856,-0.425979 0.949856,-0.949854 0,-0.264584 -0.10848,-0.513292 -0.29898,-0.693209 z m -0.650876,3.854979 c -0.359833,0 -0.650875,-0.293688 -0.650875,-0.650875 0,-0.198438 0.08996,-0.383646 0.243417,-0.508 l 0.05556,-0.04498 v -2.651125 c 0,-0.193146 0.15875,-0.351896 0.351896,-0.351896 0.193146,0 0.34925,0.15875 0.34925,0.351896 v 2.651125 l 0.05821,0.04498 c 0.153459,0.124354 0.243418,0.309562 0.243418,0.508 0,0.357187 -0.293688,0.650875 -0.650876,0.650875 z"
       id="path1208"
       style="fill:#13733b;stroke-width:0.264583" />
    <path
       class="st88"
       d="m 99.585967,98.574491 v -2.63525 c 0,-0.08202 -0.06879,-0.148167 -0.150813,-0.148167 -0.08202,0 -0.150812,0.06615 -0.150812,0.148167 v 2.63525 c -0.145521,0.05821 -0.251355,0.201083 -0.251355,0.370417 0,0.219604 0.179917,0.399521 0.402167,0.399521 0.219604,0 0.399521,-0.179917 0.399521,-0.399521 0,-0.169334 -0.103188,-0.312209 -0.248708,-0.370417 z"
       id="path1210"
       style="fill:#13733b;stroke-width:0.264583" />
    <path
       class="st88"
       d="m 101.73703,96.090054 h -0.44979 v -0.449792 c 0,-0.08202 -0.0661,-0.150813 -0.15082,-0.150813 -0.082,0 -0.15081,0.06879 -0.15081,0.150813 v 0.449792 h -0.44979 c -0.082,0 -0.15081,0.06879 -0.15081,0.150812 0,0.08202 0.0688,0.150813 0.15081,0.150813 h 0.44979 v 0.449791 c 0,0.08202 0.0688,0.150813 0.15081,0.150813 0.0847,0 0.15082,-0.06879 0.15082,-0.150813 v -0.449791 h 0.44979 c 0.0847,0 0.15081,-0.06879 0.15081,-0.150813 0,-0.08202 -0.0661,-0.150812 -0.15081,-0.150812 z"
       id="path1212"
       style="fill:#13733b;stroke-width:0.264583" />
  </g>
</svg>
