<?xml version="1.0" encoding="UTF-8" standalone="no"?>
<!-- Created with Inkscape (http://www.inkscape.org/) -->

<svg
   width="17.41637mm"
   height="20.281874mm"
   viewBox="0 0 17.41637 20.281874"
   version="1.1"
   id="svg9384"
   inkscape:version="1.2.1 (9c6d41e410, 2022-07-14)"
   sodipodi:docname="epa.svg"
   xmlns:inkscape="http://www.inkscape.org/namespaces/inkscape"
   xmlns:sodipodi="http://sodipodi.sourceforge.net/DTD/sodipodi-0.dtd"
   xmlns="http://www.w3.org/2000/svg"
   xmlns:svg="http://www.w3.org/2000/svg">
  <sodipodi:namedview
     id="namedview9386"
     pagecolor="#ffffff"
     bordercolor="#666666"
     borderopacity="1.0"
     inkscape:showpageshadow="2"
     inkscape:pageopacity="0.0"
     inkscape:pagecheckerboard="0"
     inkscape:deskcolor="#d1d1d1"
     inkscape:document-units="mm"
     showgrid="false"
     inkscape:zoom="3.9710672"
     inkscape:cx="40.039614"
     inkscape:cy="74.035513"
     inkscape:window-width="1920"
     inkscape:window-height="986"
     inkscape:window-x="-11"
     inkscape:window-y="-11"
     inkscape:window-maximized="1"
     inkscape:current-layer="layer1" />
  <defs
     id="defs9381" />
  <g
     inkscape:label="Layer 1"
     inkscape:groupmode="layer"
     id="layer1"
     transform="translate(-81.133101,-79.885371)">
    <path
       class="st4"
       d="m 86.583471,100.12011 c 2.098774,-0.0974 4.181002,-0.0804 6.242642,0.0408 1.822255,0.10826 3.428276,-1.182636 3.704069,-2.990205 l 1.97841,-13.009231 c 0.308038,-2.022866 -1.16053,-3.89585 -3.199858,-4.049468 -3.579756,-0.270688 -7.212513,-0.301904 -10.880054,-0.07744 -2.038741,0.126659 -3.53765,1.971748 -3.263106,3.998468 l 1.762335,13.009801 c 0.245775,1.814346 1.827061,3.159425 3.655562,3.077275 z"
       id="path26"
       style="fill:#2e76bc;stroke-width:0.264583" />
    <path
       class="st57"
       d="m 88.537488,91.074993 -0.396875,0.73025 c -0.01852,0.04233 -0.07408,0.11377 -0.209021,0.11377 -0.164042,0 -0.441854,-0.103187 -0.621771,-0.179916 l -0.0344,0.07673 -0.269875,-0.124354 0.0344,-0.07408 c -0.238125,-0.119062 -0.531812,-0.291041 -0.587375,-0.441854 l -0.02117,-0.08202 0.02117,-0.05821 0.304271,-0.783167 c -0.312208,0.198438 -0.582083,0.629709 -0.923396,1.320271 l -0.386291,0.812271 c -0.03175,0.07144 -0.06615,0.142875 -0.100542,0.219604 l 2.307167,1.066271 c 0.0344,-0.07408 0.06879,-0.148167 0.100541,-0.219604 l 0.370417,-0.817563 c 0.312208,-0.709083 0.465667,-1.19327 0.41275,-1.558395 z m -0.740833,1.780645 -0.28575,0.621771 -1.920875,-0.889 0.288395,-0.621771 c 0.08202,-0.174625 0.293688,-0.264583 0.560917,-0.264583 0.198438,0 0.428625,0.05027 0.656167,0.156104 0.529166,0.246063 0.846666,0.690563 0.701146,0.997479 z m -0.150813,-0.277812 c 0.0291,0.08202 0.0291,0.150812 0.0026,0.209021 L 87.428838,93.260451 85.804296,92.509034 86.0239,92.03543 c 0.05027,-0.105833 0.201084,-0.171979 0.410104,-0.171979 0.182563,0 0.391584,0.05027 0.587375,0.142875 0.309563,0.142875 0.547688,0.359833 0.624417,0.5715 z m 0.436563,-2.270125 c 0.05556,0.02381 0.116416,0.03969 0.17727,0.04498 0.01058,0.05821 0.01323,0.119063 0.0079,0.179917 0.169333,0.105833 0.272521,0.193146 0.254,0.230187 l -0.529167,0.976313 c -0.0291,0.0635 -0.362479,-0.02646 -0.746125,-0.203729 -0.381,-0.177271 -0.66675,-0.373063 -0.637646,-0.439209 l 0.399521,-1.034521 c 0.01852,-0.03704 0.148167,-0.01588 0.338667,0.04498 0.116417,-0.119063 0.272521,-0.185209 0.423333,-0.185209 0.01058,0.05292 0.02646,0.108479 0.06085,0.166688 -0.103187,-0.01852 -0.211666,0.01323 -0.30427,0.08202 0.0926,0.0344 0.1905,0.07673 0.293687,0.124354 0.103188,0.04762 0.198438,0.09525 0.283104,0.142875 -0.0026,-0.04498 -0.0053,-0.08996 -0.02117,-0.129646 0.0026,0 0.0026,0 0,0 z m 3.944937,0.166687 c -0.02381,0.124355 0.0053,0.359834 0.05821,0.47625 l 1.357313,2.944813 c 0.06879,0.148167 0.148166,0.320146 0.0291,0.505354 -0.06879,0.108479 -0.1905,0.174625 -0.320146,0.174625 v 0 c -0.227542,0 -0.330729,-0.171979 -0.41275,-0.309562 l -1.674812,-2.817813 -0.455084,0.923396 c -0.105833,0.214312 -0.3175,0.521229 -0.478895,0.695854 l -0.915459,0.986896 c -0.119062,0.127 -0.211666,0.227542 -0.386291,0.227542 -0.145521,0 -0.277813,-0.08467 -0.341313,-0.216959 -0.105833,-0.22225 0.02381,-0.383646 0.137583,-0.523875 l 0.90223,-1.119187 c 0.09525,-0.119063 0.224895,-0.365125 0.267229,-0.513292 l 0.336021,-1.169458 c 0.04762,-0.171979 0.105833,-0.47625 0.119062,-0.653521 l 0.148167,-1.799167 c -0.73025,0.240771 -1.444625,1.195917 -1.688042,1.595438 -0.103187,0.166687 -0.1905,0.312208 -0.407458,0.312208 h -0.0026 c -0.132292,0 -0.259292,-0.07144 -0.325438,-0.187854 -0.111125,-0.1905 -0.0291,-0.338667 0.06615,-0.510646 0.05556,-0.100542 1.404938,-2.479146 3.225271,-2.336271 0.785813,0.06615 1.037167,0.658813 1.203854,1.04775 0.03969,0.08996 0.07673,0.179917 0.119063,0.259292 l 1.037166,1.875896 c 0.0979,0.179916 0.03969,0.41275 -0.137583,0.515937 -0.177271,0.103188 -0.399521,0.05556 -0.508,-0.119062 l -0.772583,-1.232959 z m 0.449792,-4.426479 c 0.07937,0.47625 -0.246063,0.923396 -0.719667,1.002771 -0.47625,0.07937 -0.923396,-0.246062 -1.002771,-0.719666 -0.07937,-0.47625 0.243417,-0.923396 0.719667,-1.002771 0.47625,-0.07937 0.923396,0.243416 1.002771,0.719666 z"
       id="path418"
       style="fill:#ffffff;stroke-width:0.264583" />
  </g>
</svg>
