<?xml version="1.0" encoding="UTF-8" standalone="no"?>
<!-- Created with Inkscape (http://www.inkscape.org/) -->

<svg
   width="17.414665mm"
   height="20.278mm"
   viewBox="0 0 17.414665 20.278"
   version="1.1"
   id="svg2748"
   inkscape:version="1.2.1 (9c6d41e410, 2022-07-14)"
   sodipodi:docname="esy.svg"
   xmlns:inkscape="http://www.inkscape.org/namespaces/inkscape"
   xmlns:sodipodi="http://sodipodi.sourceforge.net/DTD/sodipodi-0.dtd"
   xmlns="http://www.w3.org/2000/svg"
   xmlns:svg="http://www.w3.org/2000/svg">
  <sodipodi:namedview
     id="namedview2750"
     pagecolor="#ffffff"
     bordercolor="#666666"
     borderopacity="1.0"
     inkscape:showpageshadow="2"
     inkscape:pageopacity="0.0"
     inkscape:pagecheckerboard="0"
     inkscape:deskcolor="#d1d1d1"
     inkscape:document-units="mm"
     showgrid="false"
     inkscape:zoom="3.9710672"
     inkscape:cx="17.12386"
     inkscape:cy="40.795079"
     inkscape:window-width="1920"
     inkscape:window-height="986"
     inkscape:window-x="-11"
     inkscape:window-y="-11"
     inkscape:window-maximized="1"
     inkscape:current-layer="layer1" />
  <defs
     id="defs2745" />
  <g
     inkscape:label="Layer 1"
     inkscape:groupmode="layer"
     id="layer1"
     transform="translate(-80.862299,-116.82149)">
    <path
       class="st4"
       d="m 80.897089,120.99261 1.814581,13.02797 c 0.252036,1.79928 1.826314,3.13224 3.638096,3.04293 2.094063,-0.10062 4.186089,-0.09 6.260754,0.03 1.824199,0.10545 3.4293,-1.19405 3.698659,-3.00228 l 1.92936,-13.01708 c 0.297934,-2.02144 -1.171193,-3.88667 -3.210305,-4.03728 -3.603588,-0.26589 -7.239336,-0.28789 -10.884059,-0.0532 -2.037206,0.13011 -3.531608,1.98339 -3.247086,4.00894 z"
       id="path40"
       style="fill:#2e76bc;stroke-width:0.264583" />
    <path
       class="st57"
       d="m 93.901531,129.80926 h -8.680979 c -0.15875,0 -0.288396,0.12965 -0.288396,0.2884 0,0.15875 0.129646,0.28839 0.288396,0.28839 h 8.680979 c 0.15875,0 0.288396,-0.12964 0.288396,-0.28839 0,-0.15875 -0.127,-0.2884 -0.288396,-0.2884 z"
       id="path390"
       style="fill:#ffffff;stroke-width:0.264583" />
    <path
       class="st57"
       d="m 88.789781,127.49416 c 0,-0.21167 0.174625,-0.38629 0.386292,-0.38629 h 0.772583 c 0.211667,0 0.386292,0.17462 0.386292,0.38629 v 1.92881 h 3.087687 v -4.82335 c 0,-0.10584 -0.08731,-0.19315 -0.193146,-0.19315 h -1.928812 l -1.349375,-1.01335 v -0.72232 h 1.735666 v -1.15887 h -1.735666 c 0,-0.21431 -0.171979,-0.38629 -0.386292,-0.38629 -0.214312,0 -0.386292,0.17198 -0.386292,0.38629 v 1.88119 l -1.349375,1.01335 h -1.928812 c -0.105833,0 -0.193146,0.0873 -0.193146,0.19315 v 4.82335 h 3.087688 v -1.92881 z m 2.894542,-2.12196 c 0,-0.10583 0.08731,-0.19315 0.193145,-0.19315 h 0.386292 c 0.105833,0 0.193146,0.0873 0.193146,0.19315 v 0.96573 c 0,0.10583 -0.08731,0.19314 -0.193146,0.19314 h -0.386292 c -0.105833,0 -0.193145,-0.0873 -0.193145,-0.19314 z m 0,2.12196 c 0,-0.10584 0.08731,-0.19315 0.193145,-0.19315 h 0.386292 c 0.105833,0 0.193146,0.0873 0.193146,0.19315 v 0.96573 c 0,0.10583 -0.08731,0.19314 -0.193146,0.19314 h -0.386292 c -0.105833,0 -0.193145,-0.0873 -0.193145,-0.19314 z m -4.243917,0.96573 c 0,0.10583 -0.08731,0.19314 -0.193146,0.19314 h -0.386292 c -0.105833,0 -0.193145,-0.0873 -0.193145,-0.19314 v -0.96573 c 0,-0.10584 0.08731,-0.19315 0.193145,-0.19315 h 0.386292 c 0.105833,0 0.193146,0.0873 0.193146,0.19315 z m 0,-2.12196 c 0,0.10583 -0.08731,0.19314 -0.193146,0.19314 h -0.386292 c -0.105833,0 -0.193145,-0.0873 -0.193145,-0.19314 v -0.96573 c 0,-0.10583 0.08731,-0.19315 0.193145,-0.19315 h 0.386292 c 0.105833,0 0.193146,0.0873 0.193146,0.19315 z m 2.891896,-1.15888 c 0,0.42598 -0.346604,0.77259 -0.772584,0.77259 -0.425979,0 -0.772583,-0.34661 -0.772583,-0.77259 0,-0.42598 0.343958,-0.77258 0.772583,-0.77258 0.428625,0.003 0.772584,0.3466 0.772584,0.77258 z"
       id="path392"
       style="fill:#ffffff;stroke-width:0.264583" />
    <text
       transform="rotate(26.680361)"
       class="st1 st58 st64"
       id="text656"
       x="131.0587"
       y="55.937992"
       style="font-size:5.29198px;font-family:UniversLTStd-BoldCn;fill:#4aa4b6;stroke-width:0.264576"></text>
    <text
       transform="rotate(25.309383)"
       class="st1 st58 st62"
       id="text658"
       x="130.8531"
       y="59.0797"
       style="font-size:5.29167px;font-family:UniversLTStd-BoldCn;fill:#4aa4b6;stroke-width:0.26458"></text>
    <text
       transform="rotate(23.947945)"
       class="st1 st58 st62"
       id="text660"
       x="130.58745"
       y="62.200024"
       style="font-size:5.29167px;font-family:UniversLTStd-BoldCn;fill:#4aa4b6;stroke-width:0.264579"></text>
    <text
       transform="rotate(22.582401)"
       class="st1 st58 st68"
       id="text662"
       x="130.2419"
       y="65.319252"
       style="font-size:5.29151px;font-family:UniversLTStd-BoldCn;fill:#4aa4b6;stroke-width:0.264575"></text>
    <text
       transform="rotate(21.22262)"
       class="st1 st58 st62"
       id="text664"
       x="129.83226"
       y="68.421455"
       style="font-size:5.29167px;font-family:UniversLTStd-BoldCn;fill:#4aa4b6;stroke-width:0.264589"></text>
    <text
       transform="rotate(19.864644)"
       class="st1 st58 st62"
       id="text666"
       x="129.34677"
       y="71.51445"
       style="font-size:5.29167px;font-family:UniversLTStd-BoldCn;fill:#4aa4b6;stroke-width:0.264583"></text>
    <text
       transform="rotate(19.183243)"
       class="st1 st58 st62"
       id="text668"
       x="129.66251"
       y="73.063171"
       style="font-size:5.29167px;font-family:UniversLTStd-BoldCn;fill:#4aa4b6;stroke-width:0.264591"></text>
    <text
       transform="rotate(17.824344)"
       class="st1 st58 st62"
       id="text670"
       x="129.06938"
       y="76.141579"
       style="font-size:5.29167px;font-family:UniversLTStd-BoldCn;fill:#4aa4b6;stroke-width:0.264583"></text>
    <text
       transform="rotate(16.468757)"
       class="st1 st58 st62"
       id="text672"
       x="128.4043"
       y="79.199173"
       style="font-size:5.29167px;font-family:UniversLTStd-BoldCn;fill:#4aa4b6;stroke-width:0.264591"></text>
    <text
       transform="rotate(15.111899)"
       class="st1 st58 st62"
       id="text674"
       x="127.6701"
       y="82.24704"
       style="font-size:5.29167px;font-family:UniversLTStd-BoldCn;fill:#4aa4b6;stroke-width:0.264578"></text>
  </g>
</svg>
