<?xml version="1.0" encoding="UTF-8" standalone="no"?>
<!-- Created with Inkscape (http://www.inkscape.org/) -->

<svg
   width="17.773304mm"
   height="17.770664mm"
   viewBox="0 0 17.773304 17.770664"
   version="1.1"
   id="svg11090"
   inkscape:version="1.2.1 (9c6d41e410, 2022-07-14)"
   sodipodi:docname="gnd.svg"
   xmlns:inkscape="http://www.inkscape.org/namespaces/inkscape"
   xmlns:sodipodi="http://sodipodi.sourceforge.net/DTD/sodipodi-0.dtd"
   xmlns="http://www.w3.org/2000/svg"
   xmlns:svg="http://www.w3.org/2000/svg">
  <sodipodi:namedview
     id="namedview11092"
     pagecolor="#ffffff"
     bordercolor="#666666"
     borderopacity="1.0"
     inkscape:showpageshadow="2"
     inkscape:pageopacity="0.0"
     inkscape:pagecheckerboard="0"
     inkscape:deskcolor="#d1d1d1"
     inkscape:document-units="mm"
     showgrid="false"
     inkscape:zoom="5.6159371"
     inkscape:cx="16.203885"
     inkscape:cy="30.449059"
     inkscape:window-width="1920"
     inkscape:window-height="986"
     inkscape:window-x="-11"
     inkscape:window-y="-11"
     inkscape:window-maximized="1"
     inkscape:current-layer="layer1" />
  <defs
     id="defs11087" />
  <g
     inkscape:label="Layer 1"
     inkscape:groupmode="layer"
     id="layer1"
     transform="translate(-111.34558,-144.51441)">
    <path
       class="st89"
       d="m 111.72059,153.39842 c 0,4.70165 3.81,8.51165 8.51164,8.51165 4.699,0 8.51165,-3.81 8.51165,-8.51165 0,-4.699 -3.81,-8.509 -8.51165,-8.509 -4.70164,0 -8.51164,3.81 -8.51164,8.509 z"
       id="path1122"
       style="fill:#e7f1ea;stroke-width:0.264583" />
    <path
       class="st90"
       d="m 111.72059,153.39842 c 0,4.70165 3.81,8.51165 8.51164,8.51165 4.699,0 8.51165,-3.81 8.51165,-8.51165 0,-4.699 -3.81,-8.509 -8.51165,-8.509 -4.70164,0 -8.51164,3.81 -8.51164,8.509 z"
       id="path1124"
       style="fill:none;stroke:#13733b;stroke-width:0.750014;stroke-miterlimit:10" />
    <path
       class="st88"
       d="m 123.67182,148.36075 c 0,-0.13493 -0.10848,-0.24341 -0.24342,-0.24341 h -2.0611 c -0.13494,0 -0.24607,0.10848 -0.24607,0.24341 v 0.19844 c 0,0.13494 0.11113,0.24342 0.24607,0.24342 l 1.14035,-0.003 -1.58221,1.58221 c -0.43127,-0.32279 -0.96573,-0.51594 -1.54517,-0.51594 -1.43139,0 -2.59556,1.16152 -2.59556,2.59292 0,1.43139 1.16417,2.59556 2.59556,2.59556 1.4314,0 2.59557,-1.16417 2.59557,-2.59556 0,-0.6059 -0.20902,-1.16152 -0.56092,-1.60338 l 1.57427,-1.57427 v 1.10596 c 0,0.15611 0.127,0.28311 0.28575,0.28311 h 0.15611 c 0.13493,0 0.24606,-0.10848 0.24606,-0.24342 z m -4.29155,6.16479 c -1.14035,0 -2.06639,-0.92604 -2.06639,-2.06639 0,-1.14036 0.92869,-2.0664 2.06639,-2.0664 1.14036,0 2.0664,0.92604 2.0664,2.0664 0,1.14035 -0.92604,2.06639 -2.0664,2.06639 z"
       id="path1126"
       style="fill:#13733b;stroke-width:0.264583" />
    <path
       class="st88"
       d="m 121.21648,154.30065 c 1.01071,-1.01336 1.01071,-2.65906 0,-3.66977 -1.01071,-1.01336 -2.65641,-1.01336 -3.66977,0 -1.01071,1.01071 -1.01071,2.65641 0,3.66977 0.41804,0.41804 0.94456,0.65881 1.48961,0.73289 v 1.75155 h -0.70644 c -0.13758,0 -0.25136,0.11377 -0.25136,0.25135 v 0.1905 c 0,0.14023 0.11113,0.25135 0.25136,0.25135 h 0.70644 v 0.70909 c 0,0.13758 0.11112,0.24871 0.2487,0.24871 h 0.1958 c 0.13758,0 0.2487,-0.11113 0.2487,-0.24871 v -0.70909 h 0.70644 c 0.13759,0 0.25136,-0.11112 0.25136,-0.25135 v -0.1905 c 0,-0.13758 -0.11113,-0.25135 -0.25136,-0.25135 h -0.70644 v -1.75155 c 0.5424,-0.0741 1.06892,-0.31485 1.48696,-0.73289 z m -3.29671,-0.37306 c -0.80697,-0.80698 -0.80697,-2.11932 0,-2.92365 0.80698,-0.80698 2.11667,-0.80698 2.92365,0 0.80698,0.80433 0.80698,2.11667 0,2.92365 -0.80698,0.80433 -2.11667,0.80433 -2.92365,0 z"
       id="path1128"
       style="fill:#13733b;stroke-width:0.264583" />
  </g>
</svg>
