<?xml version="1.0" encoding="UTF-8" standalone="no"?>
<!-- Created with Inkscape (http://www.inkscape.org/) -->

<svg
   width="17.412298mm"
   height="20.260077mm"
   viewBox="0 0 17.412298 20.260077"
   version="1.1"
   id="svg4197"
   inkscape:version="1.1.2 (b8e25be833, 2022-02-05)"
   sodipodi:docname="hhs.svg"
   xmlns:inkscape="http://www.inkscape.org/namespaces/inkscape"
   xmlns:sodipodi="http://sodipodi.sourceforge.net/DTD/sodipodi-0.dtd"
   xmlns="http://www.w3.org/2000/svg"
   xmlns:svg="http://www.w3.org/2000/svg">
  <sodipodi:namedview
     id="namedview4199"
     pagecolor="#ffffff"
     bordercolor="#666666"
     borderopacity="1.0"
     inkscape:pageshadow="2"
     inkscape:pageopacity="0.0"
     inkscape:pagecheckerboard="0"
     inkscape:document-units="mm"
     showgrid="false"
     fit-margin-top="0"
     fit-margin-left="0"
     fit-margin-right="0"
     fit-margin-bottom="0"
     inkscape:zoom="5.5731762"
     inkscape:cx="-26.555773"
     inkscape:cy="33.643293"
     inkscape:window-width="2520"
     inkscape:window-height="1481"
     inkscape:window-x="2869"
     inkscape:window-y="-11"
     inkscape:window-maximized="1"
     inkscape:current-layer="layer1" />
  <defs
     id="defs4194" />
  <g
     inkscape:label="Layer 1"
     inkscape:groupmode="layer"
     id="layer1"
     transform="translate(-50.947615,-92.806552)">
    <path
       class="st0"
       d="m 50.981669,96.965783 1.795932,13.012947 c 0.24828,1.79799 1.817899,3.13007 3.631343,3.04435 2.094098,-0.0978 4.186458,-0.0848 6.269776,0.0374 1.826017,0.10687 3.430933,-1.19094 3.700333,-2.99792 l 1.941135,-12.991079 c 0.303514,-2.019806 -1.167523,-3.887698 -3.205346,-4.041877 -3.610375,-0.271535 -7.245367,-0.295528 -10.878595,-0.06992 -2.041169,0.126871 -3.535883,1.978389 -3.254578,4.006131 z"
       id="path2171"
       style="fill:#2c5996;stroke-width:0.264583" />
    <path
       class="st57"
       d="m 61.110003,99.129738 c -0.259291,-0.211667 -0.439208,-0.161396 -0.6985,0.301625 -0.171979,0.306917 -0.4445,0.343958 -0.611187,0.333375 v -0.06085 c 0.193146,-0.09525 0.330729,-0.291042 0.330729,-0.521229 0,-0.325438 -0.261938,-0.587375 -0.587375,-0.587375 -0.325438,0 -0.587375,0.261937 -0.587375,0.587375 0,0.230187 0.137583,0.425979 0.330729,0.521229 v 0.06085 c -0.166687,0.01058 -0.439208,-0.02646 -0.611187,-0.333375 -0.259292,-0.463021 -0.439209,-0.513292 -0.695854,-0.301625 -0.259292,0.211667 -1.285875,1.436692 -2.534709,1.325562 0,0 0.248709,0.56356 0.923396,0.43656 0,0 0.362479,0.37571 0.947208,0.11377 0,0 0.304271,0.27517 0.788459,0.0238 0,0 0.359833,0.27516 0.743479,0.037 0,0 0.216958,0.1561 0.457729,0.11641 l 0.01588,1.41553 c -0.02646,-0.005 -0.05027,-0.0106 -0.07673,-0.0159 0,0 -0.420688,-0.09 -0.862542,-0.21431 -0.425979,-0.11113 -0.894291,-0.29369 -0.963083,-0.38629 0.0053,-0.005 0.01588,-0.0106 0.0291,-0.0159 0.03704,-0.0185 0.103188,-0.0397 0.179917,-0.0556 0.156104,-0.0318 0.367771,-0.0476 0.582083,-0.0556 0.423333,-0.0159 0.500062,0.003 0.508,0.005 0,-0.0132 0.246062,0.0291 0.312208,-0.21961 -0.0026,-0.003 0.0053,-0.0132 0,-0.0185 -0.01323,-0.17198 -0.145521,-0.17991 -0.254,-0.20108 -0.174625,-0.0238 -0.08467,-0.0132 -0.320145,-0.0106 -0.388938,0.0291 -1.582209,-0.0688 -1.733021,0.56091 0,0.0185 -0.0026,0.0291 -0.0026,0.045 0.05027,0.54769 1.185333,0.78581 2.005541,0.94986 -0.277812,0.1905 -0.428624,0.4392 -0.486833,0.75935 -0.0291,0.34131 0.243417,0.6694 0.875771,1.03188 -0.478896,0.33866 -0.79375,0.65881 -0.769937,1.04245 0.04498,0.31486 0.322791,0.7329 0.867833,0.99748 0.0026,0 0.0026,0 0.0026,0 v 0 c 0,0 0,0 0.0026,0 0,0 -0.381,-0.58208 -0.407458,-0.89958 -0.02381,-0.18521 0.07937,-0.46038 0.545042,-0.7911 l 0.01323,1.16152 h 0.0026 c 0.0026,0.0979 0.07937,0.17727 0.174625,0.17727 0.09525,0 0.171979,-0.0794 0.174625,-0.17727 h 0.0026 l 0.01588,-1.13242 c 0.425979,0.31485 0.523875,0.57944 0.500062,0.75935 -0.02646,0.3175 -0.407458,0.89959 -0.407458,0.89959 v 0 c 0,0 0,0 0.0026,0 0.545041,-0.26459 0.822854,-0.68527 0.865187,-0.99748 0.02646,-0.38629 -0.288396,-0.70379 -0.767292,-1.04246 0.629709,-0.36513 0.90223,-0.69056 0.875771,-1.03188 -0.05821,-0.32014 -0.209021,-0.56885 -0.486833,-0.75935 0.822854,-0.16404 1.955271,-0.40217 2.005542,-0.94985 -0.0026,-0.0159 -0.0026,-0.0265 -0.0026,-0.045 -0.150813,-0.62971 -1.344084,-0.53182 -1.733021,-0.56092 -0.235479,-0.003 -0.145521,-0.0132 -0.320146,0.0106 -0.108479,0.0212 -0.240771,0.0291 -0.254,0.20109 -0.0053,0.005 0.0026,0.0159 0,0.0185 0.06615,0.24871 0.312208,0.20637 0.312208,0.2196 0.0079,-0.003 0.08202,-0.0185 0.508,-0.005 0.211667,0.008 0.423334,0.0238 0.582084,0.0556 0.07673,0.0159 0.140229,0.037 0.179916,0.0556 0.01323,0.005 0.02117,0.0106 0.02911,0.0159 -0.06879,0.0953 -0.537105,0.27517 -0.963084,0.38629 -0.441854,0.12436 -0.862541,0.21431 -0.862541,0.21431 -0.01058,0.003 -0.01852,0.005 -0.02911,0.005 l 0.01852,-1.40494 c 0.243417,0.0423 0.460375,-0.11642 0.460375,-0.11642 0.383646,0.23813 0.743479,-0.037 0.743479,-0.037 0.484188,0.24871 0.788459,-0.0238 0.788459,-0.0238 0.584729,0.26194 0.947208,-0.11377 0.947208,-0.11377 0.674688,0.12435 0.923396,-0.43657 0.923396,-0.43657 -1.259417,0.11378 -2.286,-1.111245 -2.545292,-1.322912 z m -2.330979,4.699002 c 0.0079,-0.12436 -0.0344,-0.41804 0.550333,-0.63236 l 0.01323,1.16682 c -0.113771,-0.0714 -0.230188,-0.14552 -0.346605,-0.21961 -0.15875,-0.0953 -0.232833,-0.22754 -0.216958,-0.31485 z m 1.264708,0.3175 c -0.103187,0.0661 -0.203729,0.127 -0.301625,0.1905 l 0.01588,-1.12184 c 0.531813,0.21167 0.492125,0.49478 0.502709,0.61384 0.01323,0.0873 -0.06085,0.2196 -0.216959,0.3175 z"
       id="path2479"
       style="fill:#ffffff;stroke-width:0.264583" />
  </g>
</svg>
