<?xml version="1.0" encoding="UTF-8" standalone="no"?>
<!-- Created with Inkscape (http://www.inkscape.org/) -->

<svg
   width="17.417213mm"
   height="20.237993mm"
   viewBox="0 0 17.417213 20.237993"
   version="1.1"
   id="svg2156"
   inkscape:version="1.2.1 (9c6d41e410, 2022-07-14)"
   sodipodi:docname="hiv.svg"
   xmlns:inkscape="http://www.inkscape.org/namespaces/inkscape"
   xmlns:sodipodi="http://sodipodi.sourceforge.net/DTD/sodipodi-0.dtd"
   xmlns="http://www.w3.org/2000/svg"
   xmlns:svg="http://www.w3.org/2000/svg">
  <sodipodi:namedview
     id="namedview2158"
     pagecolor="#ffffff"
     bordercolor="#666666"
     borderopacity="1.0"
     inkscape:showpageshadow="2"
     inkscape:pageopacity="0.0"
     inkscape:pagecheckerboard="0"
     inkscape:deskcolor="#d1d1d1"
     inkscape:document-units="mm"
     showgrid="false"
     inkscape:zoom="5.6159371"
     inkscape:cx="72.82845"
     inkscape:cy="39.708422"
     inkscape:window-width="1920"
     inkscape:window-height="986"
     inkscape:window-x="-11"
     inkscape:window-y="-11"
     inkscape:window-maximized="1"
     inkscape:current-layer="layer1" />
  <defs
     id="defs2153" />
  <g
     inkscape:label="Layer 1"
     inkscape:groupmode="layer"
     id="layer1"
     transform="translate(-86.413835,-132.97165)">
    <path
       class="st0"
       d="m 86.450592,137.18071 1.867814,12.99254 c 0.257497,1.79925 1.840005,3.12421 3.654882,3.02829 2.09601,-0.11089 4.188062,-0.10944 6.266736,0.003 1.824646,0.0974 3.424046,-1.20903 3.685486,-3.01842 l 1.86913,-13.00065 c 0.29019,-2.02032 -1.18818,-3.88151 -3.22794,-4.0232 -3.604718,-0.25008 -7.240528,-0.25616 -10.884191,-0.006 -2.03902,0.14014 -3.524198,2.00234 -3.231917,4.02422 z"
       id="path14"
       style="fill:#2c5996;stroke-width:0.264583" />
    <path
       class="st57"
       d="m 100.17876,144.36955 -4.997981,-2.50825 c 0,0 0,-0.0106 0.0026,-0.0265 0.0053,-0.0291 0.0053,-0.0556 0.0053,-0.0688 l -0.0026,-0.003 c 0.01058,-0.3757 -0.0079,-1.76477 -0.772584,-2.60879 0.03175,0.0344 0.06615,0.0662 0.09525,0.10584 0,0 -0.933979,-1.37055 -1.838854,-1.41817 -0.439208,-0.0238 -0.764646,0.31485 -0.867833,0.44715 -0.103188,0.13229 -0.547688,0.87841 -0.518583,1.95791 0,0 -0.0053,-0.41539 0.22225,-0.85196 -0.39423,0.8255 -0.17198,1.45257 0.06085,1.85738 0.05027,0.42333 0.283104,0.72496 0.391583,0.88371 0.206375,0.3122 0.754063,0.75935 0.941917,0.88106 -0.09525,0.39158 -0.264584,1.10596 -0.333375,1.57162 -0.07937,0.53975 -0.134938,2.06111 -0.134938,2.06111 l 1.762125,0.44714 c 0,0 0.05821,-0.0741 0.06615,-0.17727 0.0053,-0.0556 0.211667,-2.11137 0.365125,-2.91306 0.907521,0.46831 3.148542,1.62454 3.148542,1.62454 l 0.148166,-0.24077 c 0.6985,0.35983 1.235604,0.63765 1.235604,0.63765 z m -5.794377,-5.24669 c -0.01587,-0.0159 -0.03175,-0.0318 -0.04762,-0.0476 0.01587,0.0159 0.03175,0.0317 0.04762,0.0476 z m -2.293937,-0.37835 c 0.439208,-0.2884 1.211791,-0.17727 1.338791,-0.15611 0.05292,0.0106 0.187855,0.0476 0.351896,0.12171 0.219604,0.44979 0.203729,1.55575 -0.224896,2.35479 0,0 -1.793875,-0.82285 -2.032,-1.70127 0.116417,-0.22225 0.296334,-0.4445 0.566209,-0.61912 z"
       id="path416"
       style="fill:#ffffff;stroke-width:0.264583" />
    <text
       transform="rotate(17.211834)"
       class="st0 st58 st62"
       id="text530"
       x="123.38749"
       y="126.62366"
       style="font-size:5.29167px;font-family:UniversLTStd-BoldCn;fill:#2c5996;stroke-width:0.264579"></text>
  </g>
</svg>
