<?xml version="1.0" encoding="UTF-8" standalone="no"?>
<!-- Created with Inkscape (http://www.inkscape.org/) -->

<svg
   width="24.583067mm"
   height="24.583067mm"
   viewBox="0 0 87.105355 87.105355"
   id="svg2"
   version="1.1"
   inkscape:version="1.1.2 (b8e25be833, 2022-02-05)"
   sodipodi:docname="home.svg"
   inkscape:export-filename="C:\Users\beto\OneDrive\UNICEF\india_co\pbi\imgs\home_white.png"
   inkscape:export-xdpi="1200"
   inkscape:export-ydpi="1200"
   xmlns:inkscape="http://www.inkscape.org/namespaces/inkscape"
   xmlns:sodipodi="http://sodipodi.sourceforge.net/DTD/sodipodi-0.dtd"
   xmlns="http://www.w3.org/2000/svg"
   xmlns:svg="http://www.w3.org/2000/svg"
   xmlns:rdf="http://www.w3.org/1999/02/22-rdf-syntax-ns#"
   xmlns:cc="http://creativecommons.org/ns#"
   xmlns:dc="http://purl.org/dc/elements/1.1/">
  <sodipodi:namedview
     id="base"
     pagecolor="#ffffff"
     bordercolor="#666666"
     borderopacity="1.0"
     inkscape:pageopacity="0.0"
     inkscape:pageshadow="2"
     inkscape:zoom="0.9899495"
     inkscape:cx="-303.55084"
     inkscape:cy="149.50258"
     inkscape:document-units="px"
     inkscape:current-layer="layer1"
     showgrid="false"
     fit-margin-top="0"
     fit-margin-left="0"
     fit-margin-right="0"
     fit-margin-bottom="0"
     inkscape:window-width="1920"
     inkscape:window-height="986"
     inkscape:window-x="-11"
     inkscape:window-y="-11"
     inkscape:window-maximized="1"
     inkscape:pagecheckerboard="0" />
  <defs
     id="defs4">
    <marker
       inkscape:isstock="true"
       style="overflow:visible"
       id="marker4514"
       refX="0"
       refY="0"
       orient="auto"
       inkscape:stockid="Arrow2Send">
      <path
         inkscape:connector-curvature="0"
         transform="matrix(-0.3,0,0,-0.3,0.69,0)"
         d="M 8.7185878,4.0337352 -2.2072895,0.01601326 8.7185884,-4.0017078 c -1.7454984,2.3720609 -1.7354408,5.6174519 -6e-7,8.035443 z"
         style="fill:#12239e;fill-opacity:1;fill-rule:evenodd;stroke:#12239e;stroke-width:0.625;stroke-linejoin:round;stroke-opacity:1"
         id="path4516" />
    </marker>
    <marker
       inkscape:isstock="true"
       style="overflow:visible"
       id="Arrow1Send"
       refX="0"
       refY="0"
       orient="auto"
       inkscape:stockid="Arrow1Send">
      <path
         inkscape:connector-curvature="0"
         transform="matrix(-0.2,0,0,-0.2,-1.2,0)"
         style="fill:#12239e;fill-opacity:1;fill-rule:evenodd;stroke:#12239e;stroke-width:1pt;stroke-opacity:1"
         d="M 0,0 5,-5 -12.5,0 5,5 0,0 Z"
         id="path4183" />
    </marker>
    <marker
       inkscape:isstock="true"
       style="overflow:visible"
       id="Arrow1Mend"
       refX="0"
       refY="0"
       orient="auto"
       inkscape:stockid="Arrow1Mend">
      <path
         inkscape:connector-curvature="0"
         transform="matrix(-0.4,0,0,-0.4,-4,0)"
         style="fill:#12239e;fill-opacity:1;fill-rule:evenodd;stroke:#12239e;stroke-width:1pt;stroke-opacity:1"
         d="M 0,0 5,-5 -12.5,0 5,5 0,0 Z"
         id="path4177" />
    </marker>
    <marker
       inkscape:isstock="true"
       style="overflow:visible"
       id="Arrow2Send"
       refX="0"
       refY="0"
       orient="auto"
       inkscape:stockid="Arrow2Send">
      <path
         inkscape:connector-curvature="0"
         transform="matrix(-0.3,0,0,-0.3,0.69,0)"
         d="M 8.7185878,4.0337352 -2.2072895,0.01601326 8.7185884,-4.0017078 c -1.7454984,2.3720609 -1.7354408,5.6174519 -6e-7,8.035443 z"
         style="fill:#12239e;fill-opacity:1;fill-rule:evenodd;stroke:#12239e;stroke-width:0.625;stroke-linejoin:round;stroke-opacity:1"
         id="path4201" />
    </marker>
  </defs>
  <metadata
     id="metadata7">
    <rdf:RDF>
      <cc:Work
         rdf:about="">
        <dc:format>image/svg+xml</dc:format>
        <dc:type
           rdf:resource="http://purl.org/dc/dcmitype/StillImage" />
        <dc:title />
      </cc:Work>
    </rdf:RDF>
  </metadata>
  <g
     transform="translate(-182.59521,-183.13609)"
     id="layer1"
     inkscape:groupmode="layer"
     inkscape:label="Layer 1">
    <rect
       inkscape:export-ydpi="1200"
       inkscape:export-xdpi="1200"
       ry="19.950512"
       y="184.13609"
       x="183.59521"
       height="85.105354"
       width="85.105354"
       id="rect4149"
       style="opacity:1;fill:#c5effc;fill-opacity:1;stroke:none;stroke-width:2;stroke-linecap:butt;stroke-linejoin:round;stroke-miterlimit:4;stroke-dasharray:none;stroke-dashoffset:0;stroke-opacity:1" />
    <circle
       inkscape:export-ydpi="1200"
       inkscape:export-xdpi="1200"
       r="34.092648"
       cy="227.57268"
       cx="226.52673"
       id="path3347"
       style="opacity:1;fill:none;fill-opacity:0.51655626;stroke:#f1f1f1;stroke-width:4;stroke-miterlimit:4;stroke-dasharray:none;stroke-dashoffset:0;stroke-opacity:1" />
    <path
       style="fill:#f1f1f1;fill-opacity:1"
       d="m 210.40203,246.58724 c -1.1871,-0.54962 -2.27546,-1.63618 -2.66102,-2.65665 -0.17184,-0.4548 -0.2712,-3.83244 -0.2712,-9.21911 l 0,-8.50131 1.21114,-0.99921 c 1.58504,-1.30768 14.77195,-11.32508 15.68595,-11.91579 0.50983,-0.32949 1.01685,-0.42137 1.8235,-0.33044 0.99029,0.11161 2.07385,0.85573 9.52936,6.54407 5.32672,4.06416 8.46747,6.62503 8.56324,6.98222 0.25714,0.95913 0.17332,15.07578 -0.098,16.5065 -0.31667,1.66978 -1.2688,2.95972 -2.64641,3.58532 -0.89719,0.40743 -1.70745,0.47741 -5.5833,0.48219 -3.3971,0.004 -4.56398,-0.0743 -4.65416,-0.31312 -0.0662,-0.17529 -0.14864,-3.02038 -0.18323,-6.32241 -0.0695,-6.64344 -0.1241,-6.88313 -1.79782,-7.90366 -1.19802,-0.73049 -6.29702,-0.72988 -7.49553,7.6e-4 -1.51021,0.92072 -1.60597,1.3906 -1.60597,7.88091 0,3.22093 -0.0696,6.03773 -0.15476,6.25955 -0.13268,0.34574 -0.76059,0.40252 -4.39833,0.39772 -3.58541,-0.005 -4.40173,-0.0788 -5.26344,-0.4778 z m -9.92581,-21.59016 c -0.48155,-0.48155 -0.52016,-1.39368 -0.082,-1.93637 0.7167,-0.8876 23.34434,-17.6767 24.28916,-18.02191 1.77481,-0.64845 2.49626,-0.32322 7.28489,3.28403 2.41398,1.81845 4.47251,3.30627 4.57448,3.30627 0.10198,0 0.25327,-0.33927 0.33621,-0.75394 0.24125,-1.20631 1.31985,-1.60618 4.04918,-1.50119 3.17337,0.12208 3.25676,0.23751 3.26195,4.51441 0.002,1.77248 0.0882,3.34061 0.19123,3.48475 0.10303,0.14413 1.71819,1.45276 3.58925,2.90805 1.87105,1.4553 3.52235,2.91032 3.66956,3.2334 0.36461,0.80024 -0.33227,1.88317 -1.21186,1.88317 -0.43277,0 -4.29297,-2.75842 -12.3102,-8.79663 -6.6199,-4.98582 -11.90912,-8.79664 -12.20925,-8.79664 -0.30022,0 -5.58573,3.80947 -12.20505,8.79664 -7.3188,5.51417 -11.89033,8.79663 -12.25122,8.79663 -0.31663,0 -0.756,-0.1803 -0.97636,-0.40067 z"
       id="path3410"
       inkscape:connector-curvature="0" />
  </g>
</svg>
