<?xml version="1.0" encoding="UTF-8" standalone="no"?>
<!-- Created with Inkscape (http://www.inkscape.org/) -->

<svg
   width="17.410839mm"
   height="20.277487mm"
   viewBox="0 0 17.410839 20.277487"
   version="1.1"
   id="svg2716"
   inkscape:version="1.2.1 (9c6d41e410, 2022-07-14)"
   sodipodi:docname="ict.svg"
   xmlns:inkscape="http://www.inkscape.org/namespaces/inkscape"
   xmlns:sodipodi="http://sodipodi.sourceforge.net/DTD/sodipodi-0.dtd"
   xmlns="http://www.w3.org/2000/svg"
   xmlns:svg="http://www.w3.org/2000/svg">
  <sodipodi:namedview
     id="namedview2718"
     pagecolor="#ffffff"
     bordercolor="#666666"
     borderopacity="1.0"
     inkscape:showpageshadow="2"
     inkscape:pageopacity="0.0"
     inkscape:pagecheckerboard="0"
     inkscape:deskcolor="#d1d1d1"
     inkscape:document-units="mm"
     showgrid="false"
     inkscape:zoom="2.8079686"
     inkscape:cx="30.627123"
     inkscape:cy="70.869739"
     inkscape:window-width="1920"
     inkscape:window-height="986"
     inkscape:window-x="-11"
     inkscape:window-y="-11"
     inkscape:window-maximized="1"
     inkscape:current-layer="layer1" />
  <defs
     id="defs2713" />
  <g
     inkscape:label="Layer 1"
     inkscape:groupmode="layer"
     id="layer1"
     transform="translate(-80.467628,-139.21457)">
    <path
       class="st2"
       d="m 85.928055,159.43835 c 2.076843,-0.0929 4.156859,-0.0773 6.232568,0.0473 1.821625,0.10893 3.428366,-1.18383 3.703267,-2.98979 l 1.974167,-13.00666 c 0.306153,-2.02165 -1.162795,-3.89275 -3.201082,-4.04787 -3.622428,-0.27355 -7.255299,-0.29898 -10.874455,-0.0797 -2.041099,0.12439 -3.537483,1.97253 -3.262215,3.99839 l 1.769453,13.03442 c 0.248281,1.80825 1.83386,3.12638 3.658297,3.04391 z"
       id="path38"
       style="fill:#961b4a;stroke-width:0.264583" />
    <path
       class="st57"
       d="m 93.982151,150.77374 h -0.492125 -0.748771 -2.2225 c 0,0.11906 -0.04762,0.22754 -0.127,0.30427 -0.07673,0.0794 -0.185208,0.127 -0.30427,0.127 h -2.164292 c -0.238125,0 -0.433917,-0.19579 -0.433917,-0.43392 h -2.164291 -0.865188 -0.433916 c -0.119063,0 -0.216959,0.0979 -0.216959,0.21696 v 0.86519 c 0,0.11906 0.0979,0.21696 0.216959,0.21696 h 9.958916 c 0.119063,0 0.216958,-0.0979 0.216958,-0.21696 v -0.86519 c -0.0053,-0.11641 -0.100541,-0.21431 -0.219604,-0.21431 z"
       id="path354"
       style="fill:#ffffff;stroke-width:0.264583" />
    <path
       class="st57"
       d="m 85.322339,150.12551 h 0.216958 v -4.11162 h 6.926792 v 4.11162 h 0.216958 0.865188 v -4.7625 c 0,-0.0582 -0.01323,-0.11641 -0.0344,-0.16933 -0.04233,-0.10319 -0.127,-0.18786 -0.230188,-0.23019 -0.05027,-0.0212 -0.108479,-0.0344 -0.169333,-0.0344 h -8.225896 c -0.238125,0 -0.433916,0.19314 -0.433916,0.43391 v 0.21696 4.54554 h 0.648229 z"
       id="path356"
       style="fill:#ffffff;stroke-width:0.264583" />
  </g>
</svg>
