<?xml version="1.0" encoding="UTF-8" standalone="no"?>
<!-- Created with Inkscape (http://www.inkscape.org/) -->

<svg
   width="17.416645mm"
   height="20.236725mm"
   viewBox="0 0 17.416645 20.236725"
   version="1.1"
   id="svg4559"
   inkscape:version="1.1.2 (b8e25be833, 2022-02-05)"
   sodipodi:docname="imm.svg"
   xmlns:inkscape="http://www.inkscape.org/namespaces/inkscape"
   xmlns:sodipodi="http://sodipodi.sourceforge.net/DTD/sodipodi-0.dtd"
   xmlns="http://www.w3.org/2000/svg"
   xmlns:svg="http://www.w3.org/2000/svg">
  <sodipodi:namedview
     id="namedview4561"
     pagecolor="#ffffff"
     bordercolor="#666666"
     borderopacity="1.0"
     inkscape:pageshadow="2"
     inkscape:pageopacity="0.0"
     inkscape:pagecheckerboard="0"
     inkscape:document-units="mm"
     showgrid="false"
     fit-margin-top="0"
     fit-margin-left="0"
     fit-margin-right="0"
     fit-margin-bottom="0"
     inkscape:zoom="7.8816614"
     inkscape:cx="17.762752"
     inkscape:cy="64.389978"
     inkscape:window-width="2520"
     inkscape:window-height="1481"
     inkscape:window-x="2869"
     inkscape:window-y="-11"
     inkscape:window-maximized="1"
     inkscape:current-layer="layer1" />
  <defs
     id="defs4556" />
  <g
     inkscape:label="Layer 1"
     inkscape:groupmode="layer"
     id="layer1"
     transform="translate(-100.52756,-104.82096)">
    <path
       class="st0"
       d="m 106.10912,125.05206 c 2.07875,-0.11112 4.1708,-0.11142 6.26675,6.3e-4 1.81482,0.0969 3.39566,-1.22825 3.65655,-3.02626 l 1.87502,-12.9915 c 0.29209,-2.02522 -1.19075,-3.88475 -3.22969,-4.02601 -3.64353,-0.25258 -7.27933,-0.24851 -10.88419,-4.3e-4 -2.03633,0.13925 -3.51814,1.99853 -3.23018,4.02141 l 1.86194,13.00168 c 0.26044,1.80954 1.85911,3.11687 3.6838,3.02048 z"
       id="path2167"
       style="fill:#2c5996;stroke-width:0.264583" />
    <path
       class="st57"
       d="m 113.7755,111.38992 h -3.63802 c -0.10054,0 -0.18256,0.082 -0.18256,0.18256 v 0.91017 c 0,0.10054 0.082,0.18256 0.18256,0.18256 h 3.63802 c 0.10054,0 0.18256,-0.082 0.18256,-0.18256 v -0.91017 c 0,-0.10054 -0.082,-0.18256 -0.18256,-0.18256 z"
       id="path2485"
       style="fill:#ffffff;stroke-width:0.264583" />
    <path
       class="st57"
       d="m 110.32004,118.11827 c 0,0.10054 0.082,0.18256 0.18256,0.18256 h 2.91042 c 0.10054,0 0.18256,-0.082 0.18256,-0.18256 v -5.09323 h -3.27554 z m 0.54504,-4.0005 c 0,-0.10054 0.082,-0.18256 0.18257,-0.18256 h 1.82033 c 0.10054,0 0.18256,0.082 0.18256,0.18256 v 1.27265 c 0,0.10054 -0.082,0.18256 -0.18256,0.18256 h -1.82033 c -0.10055,0 -0.18257,-0.082 -0.18257,-0.18256 z m 0.18257,2.00025 h 1.82033 c 0.10054,0 0.18256,0.082 0.18256,0.18256 0,0.10054 -0.082,0.18257 -0.18256,0.18257 h -1.82033 c -0.10055,0 -0.18257,-0.082 -0.18257,-0.18257 0,-0.10054 0.082,-0.18256 0.18257,-0.18256 z"
       id="path2487"
       style="fill:#ffffff;stroke-width:0.264583" />
    <path
       class="st57"
       d="m 108.77487,111.02479 h -1.00012 v -0.91017 h 0.45508 c 0.15082,0 0.27252,-0.1217 0.27252,-0.27252 0,-0.15081 -0.1217,-0.27252 -0.27252,-0.27252 h -2.18281 c -0.15081,0 -0.27252,0.12171 -0.27252,0.27252 0,0.15082 0.12171,0.27252 0.27252,0.27252 h 0.45508 v 0.91017 h -1.00012 c -0.15081,0 -0.27252,0.12171 -0.27252,0.27252 0,0.15081 0.12171,0.27252 0.27252,0.27252 h 0.63764 v 4.18307 c 0,0.20108 0.16405,0.36512 0.36513,0.36512 v 0.36513 c 0,0.10054 0.082,0.18256 0.18256,0.18256 h 0.18256 v 1.36525 c 0,0.15081 0.12171,0.27252 0.27253,0.27252 0.15081,0 0.27252,-0.12171 0.27252,-0.27252 v -1.36525 h 0.18256 c 0.10054,0 0.18256,-0.082 0.18256,-0.18256 v -0.36513 c 0.20108,0 0.36513,-0.16404 0.36513,-0.36512 v -4.18307 h 0.63764 c 0.15081,0 0.27252,-0.12171 0.27252,-0.27252 -0.008,-0.15081 -0.12964,-0.27252 -0.28046,-0.27252 z m -1.18268,3.27554 h -0.91017 v -2.36537 h 0.91017 z"
       id="path2489"
       style="fill:#ffffff;stroke-width:0.264583" />
  </g>
</svg>
