<?xml version="1.0" encoding="UTF-8" standalone="no"?>
<!-- Created with Inkscape (http://www.inkscape.org/) -->

<svg
   width="17.418434mm"
   height="20.257401mm"
   viewBox="0 0 17.418434 20.257401"
   version="1.1"
   id="svg35767"
   inkscape:version="1.2.1 (9c6d41e410, 2022-07-14)"
   sodipodi:docname="jus.svg"
   xmlns:inkscape="http://www.inkscape.org/namespaces/inkscape"
   xmlns:sodipodi="http://sodipodi.sourceforge.net/DTD/sodipodi-0.dtd"
   xmlns="http://www.w3.org/2000/svg"
   xmlns:svg="http://www.w3.org/2000/svg">
  <sodipodi:namedview
     id="namedview35769"
     pagecolor="#ffffff"
     bordercolor="#666666"
     borderopacity="1.0"
     inkscape:showpageshadow="2"
     inkscape:pageopacity="0.0"
     inkscape:pagecheckerboard="0"
     inkscape:deskcolor="#d1d1d1"
     inkscape:document-units="mm"
     showgrid="false"
     inkscape:zoom="3.0217733"
     inkscape:cx="31.769425"
     inkscape:cy="48.977864"
     inkscape:window-width="1920"
     inkscape:window-height="986"
     inkscape:window-x="-11"
     inkscape:window-y="-11"
     inkscape:window-maximized="1"
     inkscape:current-layer="layer1" />
  <defs
     id="defs35764" />
  <g
     inkscape:label="Layer 1"
     inkscape:groupmode="layer"
     id="layer1"
     transform="translate(-82.617819,-101.87816)">
    <path
       class="st1"
       d="m 88.245812,122.12999 c 2.069644,-0.11353 4.157631,-0.11975 6.254113,-0.0133 1.81962,0.092 3.403871,-1.24051 3.659672,-3.04547 l 1.841183,-12.99751 c 0.28674,-2.02467 -1.198429,-3.87939 -3.239143,-4.01648 -3.654183,-0.24616 -7.29188,-0.23673 -10.88506,0.0172 -2.037458,0.14495 -3.514348,2.00752 -3.221758,4.03012 l 1.898858,13.01515 c 0.266806,1.8084 1.865697,3.11201 3.692135,3.0103 z"
       id="path18"
       style="fill:#4aa4b6;stroke-width:0.264583" />
    <path
       class="st57"
       d="m 93.589461,114.8417 h -2.121958 v -7.13845 h 1.992313 l -1.008063,2.30716 c -0.07408,0.1905 0.0635,0.39423 0.269875,0.39423 0.119063,0 0.224896,-0.0714 0.269875,-0.18256 l 0.889,-2.13254 0.889,2.13254 c 0.04498,0.11112 0.150813,0.18256 0.269875,0.18256 0.203729,0 0.343958,-0.20637 0.269875,-0.39423 l -1.153583,-2.70139 c -0.04233,-0.11113 -0.148167,-0.18257 -0.267229,-0.18257 h -2.418292 v -0.38629 c 0,-0.21166 -0.166688,-0.38629 -0.381,-0.38629 -0.214313,0 -0.391583,0.17198 -0.391583,0.38629 v 0.38629 h -2.405063 c -0.119062,0 -0.224896,0.0741 -0.267229,0.18257 l -1.164167,2.70139 c -0.07408,0.1905 0.0635,0.39423 0.269875,0.39423 0.119063,0 0.224896,-0.0714 0.269875,-0.18256 l 0.889,-2.13254 0.889,2.13254 c 0.04498,0.11112 0.150813,0.18256 0.269875,0.18256 0.203729,0 0.343959,-0.20637 0.269875,-0.39423 l -0.997479,-2.30716 h 1.981729 v 7.13845 h -2.121958 c -0.214313,0 -0.386292,0.17198 -0.386292,0.3863 0,0.21431 0.171979,0.38629 0.386292,0.38629 h 5.0165 c 0.214312,0 0.386292,-0.17198 0.386292,-0.38629 -0.0079,-0.21432 -0.182563,-0.3863 -0.39423,-0.3863 z"
       id="path358"
       style="fill:#ffffff;stroke-width:0.264583" />
    <path
       class="st57"
       d="m 90.115482,111.04229 c 0.0079,-0.0291 -0.01587,-0.0609 -0.04762,-0.0609 h -3.566583 c -0.03175,0 -0.05556,0.0291 -0.04762,0.0609 0.195792,0.82285 0.936625,1.48431 1.820333,1.48431 0.878417,0 1.645709,-0.66146 1.8415,-1.48431 z"
       id="path360"
       style="fill:#ffffff;stroke-width:0.264583" />
    <path
       class="st57"
       d="m 95.708774,111.04229 c 0.0079,-0.0291 -0.01588,-0.0609 -0.04763,-0.0609 h -3.566583 c -0.03175,0 -0.05556,0.0291 -0.04762,0.0609 0.195791,0.82285 0.936625,1.48431 1.820333,1.48431 0.881062,0 1.645708,-0.66146 1.8415,-1.48431 z"
       id="path362"
       style="fill:#ffffff;stroke-width:0.264583" />
    <text
       transform="rotate(62.374085)"
       class="st1 st58 st62"
       id="text626"
       x="151.78191"
       y="-42.854164"
       style="font-size:5.29167px;font-family:UniversLTStd-BoldCn;fill:#4aa4b6;stroke-width:0.264586"></text>
    <text
       transform="rotate(52.034566)"
       class="st1 st58 st62"
       id="text634"
       x="166.06119"
       y="-14.019071"
       style="font-size:5.29167px;font-family:UniversLTStd-BoldCn;fill:#4aa4b6;stroke-width:0.264589"></text>
  </g>
</svg>
