<?xml version="1.0" encoding="UTF-8" standalone="no"?>
<!-- Created with Inkscape (http://www.inkscape.org/) -->

<svg
   width="17.411757mm"
   height="20.274765mm"
   viewBox="0 0 17.411757 20.274765"
   version="1.1"
   id="svg45838"
   inkscape:version="1.2.1 (9c6d41e410, 2022-07-14)"
   sodipodi:docname="lab.svg"
   xmlns:inkscape="http://www.inkscape.org/namespaces/inkscape"
   xmlns:sodipodi="http://sodipodi.sourceforge.net/DTD/sodipodi-0.dtd"
   xmlns="http://www.w3.org/2000/svg"
   xmlns:svg="http://www.w3.org/2000/svg">
  <sodipodi:namedview
     id="namedview45840"
     pagecolor="#ffffff"
     bordercolor="#666666"
     borderopacity="1.0"
     inkscape:showpageshadow="2"
     inkscape:pageopacity="0.0"
     inkscape:pagecheckerboard="0"
     inkscape:deskcolor="#d1d1d1"
     inkscape:document-units="mm"
     showgrid="false"
     inkscape:zoom="4.2734328"
     inkscape:cx="35.100587"
     inkscape:cy="52.884885"
     inkscape:window-width="1920"
     inkscape:window-height="986"
     inkscape:window-x="-11"
     inkscape:window-y="-11"
     inkscape:window-maximized="1"
     inkscape:current-layer="layer1" />
  <defs
     id="defs45835" />
  <g
     inkscape:label="Layer 1"
     inkscape:groupmode="layer"
     id="layer1"
     transform="translate(-63.162617,-127.30863)">
    <path
       class="st1"
       d="m 68.866659,147.57715 c 2.077535,-0.12123 4.159549,-0.13717 6.234348,-0.0412 1.824375,0.0837 3.412813,-1.23516 3.66054,-3.04524 l 1.779832,-13.03124 c 0.2766,-2.02569 -1.21855,-3.87481 -3.259568,-4.00054 -3.619016,-0.22168 -7.251904,-0.19866 -10.874511,0.0725 -2.040133,0.15176 -3.512305,2.02366 -3.203761,4.04575 l 1.965562,13.00796 c 0.271963,1.80416 1.875861,3.09973 3.697558,2.992 z"
       id="path34"
       style="fill:#4aa4b6;stroke-width:0.264583" />
    <path
       class="st57"
       d="m 69.00295,133.42212 c 0.425979,0 0.772583,-0.34661 0.772583,-0.77258 0,-0.42598 -0.346604,-0.77259 -0.772583,-0.77259 -0.425979,0 -0.772583,0.34661 -0.772583,0.77259 0,0.42862 0.346604,0.77258 0.772583,0.77258 z"
       id="path384"
       style="fill:#ffffff;stroke-width:0.264583" />
    <path
       class="st57"
       d="m 75.707492,137.3697 0.756708,-1.49489 c 0.232833,-0.46038 0.04498,-1.02394 -0.415396,-1.25677 l -0.243417,-0.12171 -0.251354,-0.127 c -0.02381,-0.0106 -0.04763,-0.0212 -0.07408,-0.0265 -0.224896,-0.10319 -0.460375,-0.17198 -0.695854,-0.20902 -0.957792,-0.15611 -1.939396,0.19579 -2.550584,0.95779 l -0.410104,-0.4736 c -0.579437,-0.635 -1.407583,-1.00013 -2.267479,-1.00013 -0.410104,0 -0.806979,0.19579 -1.053041,0.52652 -0.264584,0.3519 -0.336021,0.81227 -0.187855,1.23031 0.0026,0.0106 0.0079,0.0159 0.01058,0.0265 l 0.555625,1.27265 c 0.03969,0.14552 0.140229,0.46566 0.293687,0.94721 0.275167,0.86783 0.463021,1.76477 0.552979,2.667 l 0.05027,0.508 c 0.01852,0.19843 0.187854,0.3466 0.383646,0.3466 0.01058,0 0.02381,0 0.03969,-0.003 0.211666,-0.0212 0.365125,-0.20902 0.343958,-0.42333 l -0.05027,-0.50535 c -0.08731,-0.85725 -0.254,-1.71186 -0.500062,-2.54265 h 0.767291 c 0.219604,0.58738 0.362479,1.21708 0.362479,2.31511 0,0.17991 0.124354,0.33072 0.288396,0.37306 l 0.468313,-0.91811 c -0.0635,-1.30704 -0.359834,-1.98966 -0.6985,-2.76225 -0.07673,-0.17727 -0.15875,-0.35983 -0.238125,-0.56091 l -0.650875,-1.60338 c 0.362479,0.12436 0.693208,0.33338 0.9525,0.61648 l 0.743479,0.86519 c 0.06879,0.0794 0.161396,0.12435 0.259291,0.13229 0.01852,0 0.03175,0.003 0.04498,0.003 0.14552,0 0.28575,-0.0794 0.357187,-0.21696 0.312208,-0.60854 0.907521,-0.96309 1.545167,-1.00806 0.07408,-0.005 0.145521,-0.008 0.216958,-0.003 0.06879,0.003 0.137583,0.0106 0.206375,0.0185 l -2.873375,5.63827 c -0.103187,0.19844 -0.02381,0.44186 0.174625,0.5424 0.05821,0.0317 0.121708,0.045 0.182563,0.045 0.14552,0 0.288395,-0.082 0.359833,-0.21961 l 1.743604,-3.42106 0.171979,0.0873 0.174625,0.0873 0.629709,0.32015 c 0.0026,0.003 0.0053,0.003 0.0079,0.005 0.0053,0.003 0.0079,0.005 0.01323,0.008 l 0.01058,0.005 c 0.833437,0.53975 1.137708,1.64042 0.669395,2.54 -0.103187,0.19844 -0.02646,0.43921 0.17198,0.5424 0.09789,0.0503 0.20902,0.0582 0.306916,0.0265 0.0979,-0.0317 0.185209,-0.10055 0.235479,-0.19844 0.653521,-1.25942 0.246063,-2.78342 -0.891645,-3.55865 z"
       id="path386"
       style="fill:#ffffff;stroke-width:0.264583" />
    <path
       class="st57"
       d="m 77.451096,133.37449 c -0.132292,-0.40481 -0.568854,-0.62441 -0.973667,-0.49212 -0.404812,0.13229 -0.624417,0.56885 -0.492125,0.97367 0.132292,0.40481 0.568854,0.62441 0.973667,0.49212 0.407458,-0.13229 0.627062,-0.56885 0.492125,-0.97367 z"
       id="path388"
       style="fill:#ffffff;stroke-width:0.264583" />
    <text
       transform="rotate(26.680361)"
       class="st1 st58 st64"
       id="text656"
       x="139.90765"
       y="74.734489"
       style="font-size:5.29198px;font-family:UniversLTStd-BoldCn;fill:#4aa4b6;stroke-width:0.264576"></text>
    <text
       transform="rotate(25.309383)"
       class="st1 st58 st62"
       id="text658"
       x="139.2498"
       y="78.082535"
       style="font-size:5.29167px;font-family:UniversLTStd-BoldCn;fill:#4aa4b6;stroke-width:0.26458"></text>
    <text
       transform="rotate(23.947945)"
       class="st1 st58 st62"
       id="text660"
       x="138.53027"
       y="81.396996"
       style="font-size:5.29167px;font-family:UniversLTStd-BoldCn;fill:#4aa4b6;stroke-width:0.264579"></text>
    <text
       transform="rotate(22.582401)"
       class="st1 st58 st68"
       id="text662"
       x="137.72499"
       y="84.700058"
       style="font-size:5.29151px;font-family:UniversLTStd-BoldCn;fill:#4aa4b6;stroke-width:0.264575"></text>
    <text
       transform="rotate(21.22262)"
       class="st1 st58 st62"
       id="text664"
       x="136.85333"
       y="87.97438"
       style="font-size:5.29167px;font-family:UniversLTStd-BoldCn;fill:#4aa4b6;stroke-width:0.264589"></text>
    <text
       transform="rotate(19.864644)"
       class="st1 st58 st62"
       id="text666"
       x="135.9025"
       y="91.228271"
       style="font-size:5.29167px;font-family:UniversLTStd-BoldCn;fill:#4aa4b6;stroke-width:0.264583"></text>
    <text
       transform="rotate(19.183243)"
       class="st1 st58 st62"
       id="text668"
       x="135.98332"
       y="92.853561"
       style="font-size:5.29167px;font-family:UniversLTStd-BoldCn;fill:#4aa4b6;stroke-width:0.264591"></text>
    <text
       transform="rotate(17.824344)"
       class="st1 st58 st62"
       id="text670"
       x="134.91908"
       y="96.076302"
       style="font-size:5.29167px;font-family:UniversLTStd-BoldCn;fill:#4aa4b6;stroke-width:0.264583"></text>
    <text
       transform="rotate(16.468757)"
       class="st1 st58 st62"
       id="text672"
       x="133.78076"
       y="99.266708"
       style="font-size:5.29167px;font-family:UniversLTStd-BoldCn;fill:#4aa4b6;stroke-width:0.264591"></text>
    <text
       transform="rotate(15.111899)"
       class="st1 st58 st62"
       id="text674"
       x="132.56987"
       y="102.43626"
       style="font-size:5.29167px;font-family:UniversLTStd-BoldCn;fill:#4aa4b6;stroke-width:0.264578"></text>
    <text
       transform="rotate(13.751359)"
       class="st1 st58 st59"
       id="text676"
       x="131.27173"
       y="105.58726"
       style="font-size:5.29148px;font-family:UniversLTStd-BoldCn;fill:#4aa4b6;stroke-width:0.264574"></text>
    <text
       transform="rotate(13.073206)"
       class="st1 st58 st62"
       id="text678"
       x="131.18442"
       y="107.1498"
       style="font-size:5.29167px;font-family:UniversLTStd-BoldCn;fill:#4aa4b6;stroke-width:0.264589"></text>
    <text
       transform="rotate(11.712199)"
       class="st1 st58 st62"
       id="text680"
       x="129.7807"
       y="110.26107"
       style="font-size:5.29167px;font-family:UniversLTStd-BoldCn;fill:#4aa4b6;stroke-width:0.264589"></text>
    <text
       transform="rotate(10.358143)"
       class="st1 st58 st62"
       id="text682"
       x="128.31163"
       y="113.32436"
       style="font-size:5.29167px;font-family:UniversLTStd-BoldCn;fill:#4aa4b6;stroke-width:0.264583"></text>
  </g>
</svg>
