<?xml version="1.0" encoding="UTF-8" standalone="no"?>
<!-- Created with Inkscape (http://www.inkscape.org/) -->

<svg
   width="17.41494mm"
   height="20.287918mm"
   viewBox="0 0 17.41494 20.287918"
   version="1.1"
   id="svg42204"
   inkscape:version="1.2.1 (9c6d41e410, 2022-07-14)"
   sodipodi:docname="mar.svg"
   xmlns:inkscape="http://www.inkscape.org/namespaces/inkscape"
   xmlns:sodipodi="http://sodipodi.sourceforge.net/DTD/sodipodi-0.dtd"
   xmlns="http://www.w3.org/2000/svg"
   xmlns:svg="http://www.w3.org/2000/svg">
  <sodipodi:namedview
     id="namedview42206"
     pagecolor="#ffffff"
     bordercolor="#666666"
     borderopacity="1.0"
     inkscape:showpageshadow="2"
     inkscape:pageopacity="0.0"
     inkscape:pagecheckerboard="0"
     inkscape:deskcolor="#d1d1d1"
     inkscape:document-units="mm"
     showgrid="false"
     inkscape:zoom="1.5108866"
     inkscape:cx="19.194028"
     inkscape:cy="15.22285"
     inkscape:window-width="1920"
     inkscape:window-height="986"
     inkscape:window-x="-11"
     inkscape:window-y="-11"
     inkscape:window-maximized="1"
     inkscape:current-layer="layer1" />
  <defs
     id="defs42201" />
  <g
     inkscape:label="Layer 1"
     inkscape:groupmode="layer"
     id="layer1"
     transform="translate(-72.463898,-109.23031)">
    <path
       class="st1"
       d="m 78.214574,129.51113 c 2.082838,-0.13009 4.17289,-0.15247 6.267346,-0.0627 1.811514,0.0774 3.376059,-1.26063 3.616084,-3.05731 l 1.748946,-13.03371 c 0.272182,-2.02655 -1.230393,-3.87601 -3.27344,-3.99287 -3.634064,-0.21178 -7.270351,-0.17171 -10.878258,0.11132 -2.035811,0.1597 -3.499726,2.03318 -3.189936,4.05405 l 1.993896,12.9982 c 0.278511,1.80734 1.892008,3.09821 3.715362,2.98297 z"
       id="path36"
       style="fill:#4aa4b6;stroke-width:0.264583" />
    <path
       class="st57"
       d="m 82.960905,114.90541 c -1.42875,0 -2.50825,0.99483 -2.50825,2.3151 0,0.21167 0.171979,0.3863 0.386291,0.3863 0.211667,0 0.386292,-0.17198 0.386292,-0.3863 0,-0.58208 0.325437,-1.06627 0.833437,-1.33085 l -0.637645,3.61421 c -0.01852,0.11642 0.07144,0.22489 0.1905,0.22489 h 0.386291 v 2.12196 c 0,0.21167 0.171979,0.38629 0.386292,0.38629 0.211667,0 0.386292,-0.17197 0.386292,-0.38629 v -2.12196 h 0.386291 v 2.12196 c 0,0.21167 0.171979,0.38629 0.386292,0.38629 0.211667,0 0.386292,-0.17197 0.386292,-0.38629 v -2.12196 h 0.386291 c 0.119063,0 0.209021,-0.10847 0.1905,-0.22489 l -0.619125,-3.60363 c 0.494771,0.26459 0.814917,0.74613 0.814917,1.32027 0,0.21167 0.171979,0.3863 0.386292,0.3863 0.214312,0 0.386291,-0.17198 0.386291,-0.3863 -0.0053,-1.31762 -1.084791,-2.3151 -2.513541,-2.3151 z"
       id="path364"
       style="fill:#ffffff;stroke-width:0.264583" />
    <path
       class="st57"
       d="m 82.960905,114.52176 c 0.425979,0 0.772583,-0.3466 0.772583,-0.77258 0,-0.42598 -0.346604,-0.77258 -0.772583,-0.77258 -0.42598,0 -0.772584,0.3466 -0.772584,0.77258 0,0.42598 0.346604,0.77258 0.772584,0.77258 z"
       id="path366"
       style="fill:#ffffff;stroke-width:0.264583" />
    <path
       class="st57"
       d="m 78.619092,120.88764 c -0.15875,0 -0.288396,0.12965 -0.288396,0.2884 v 0.77258 c 0,0.15875 0.129646,0.28839 0.288396,0.28839 0.15875,0 0.288396,-0.12964 0.288396,-0.28839 v -0.77258 c 0,-0.15875 -0.129646,-0.2884 -0.288396,-0.2884 z"
       id="path368"
       style="fill:#ffffff;stroke-width:0.264583" />
    <path
       class="st57"
       d="m 80.74105,119.53826 h -0.772583 c -0.15875,0 -0.288396,0.12965 -0.288396,0.2884 0,0.15875 0.129646,0.2884 0.288396,0.2884 h 0.772583 c 0.15875,0 0.288396,-0.12965 0.288396,-0.2884 0,-0.15875 -0.129646,-0.2884 -0.288396,-0.2884 z"
       id="path370"
       style="fill:#ffffff;stroke-width:0.264583" />
    <path
       class="st57"
       d="m 78.619092,117.41366 c -0.15875,0 -0.288396,0.12965 -0.288396,0.2884 v 0.77258 c 0,0.15875 0.129646,0.2884 0.288396,0.2884 0.15875,0 0.288396,-0.12965 0.288396,-0.2884 v -0.77258 c 0.0026,-0.15875 -0.127,-0.2884 -0.288396,-0.2884 z"
       id="path372"
       style="fill:#ffffff;stroke-width:0.264583" />
    <path
       class="st57"
       d="m 77.558113,119.82401 c 0,-0.15875 -0.129646,-0.28839 -0.288396,-0.28839 h -0.772583 c -0.15875,0 -0.288396,0.12964 -0.288396,0.28839 0,0.15875 0.129646,0.2884 0.288396,0.2884 h 0.772583 c 0.15875,0.003 0.288396,-0.127 0.288396,-0.2884 z"
       id="path374"
       style="fill:#ffffff;stroke-width:0.264583" />
    <path
       class="st57"
       d="m 79.78855,120.58601 c -0.11377,-0.11377 -0.296333,-0.11377 -0.410104,0 -0.11377,0.11378 -0.11377,0.29634 0,0.41011 l 0.579438,0.57944 c 0.113771,0.11377 0.296333,0.11377 0.410104,0 0.113771,-0.11377 0.113771,-0.29634 0,-0.41011 z"
       id="path376"
       style="fill:#ffffff;stroke-width:0.264583" />
    <path
       class="st57"
       d="m 79.78855,119.06731 0.579438,-0.57944 c 0.113771,-0.11377 0.113771,-0.29633 0,-0.41011 -0.113771,-0.11377 -0.296333,-0.11377 -0.410104,0 l -0.579438,0.57944 c -0.11377,0.11377 -0.11377,0.29634 0,0.41011 0.113771,0.11112 0.296334,0.11112 0.410104,0 z"
       id="path378"
       style="fill:#ffffff;stroke-width:0.264583" />
    <path
       class="st57"
       d="m 77.449634,119.06731 c 0.113771,0.11377 0.296333,0.11377 0.410104,0 0.113771,-0.11377 0.113771,-0.29634 0,-0.41011 l -0.579437,-0.57944 c -0.113771,-0.11377 -0.296334,-0.11377 -0.410105,0 -0.11377,0.11378 -0.11377,0.29634 0,0.41011 z"
       id="path380"
       style="fill:#ffffff;stroke-width:0.264583" />
    <path
       class="st57"
       d="m 77.449634,120.58601 -0.579438,0.57944 c -0.11377,0.11377 -0.11377,0.29634 0,0.41011 0.113771,0.11377 0.296334,0.11377 0.410105,0 l 0.579437,-0.57944 c 0.113771,-0.11377 0.113771,-0.29633 0,-0.41011 -0.113771,-0.11377 -0.296333,-0.11377 -0.410104,0 z"
       id="path382"
       style="fill:#ffffff;stroke-width:0.264583" />
    <text
       transform="rotate(52.034566)"
       class="st1 st58 st62"
       id="text634"
       x="146.31393"
       y="-6.3282876"
       style="font-size:5.29167px;font-family:UniversLTStd-BoldCn;fill:#4aa4b6;stroke-width:0.264589"></text>
    <text
       transform="rotate(26.680361)"
       class="st1 st58 st64"
       id="text656"
       x="157.66487"
       y="62.173607"
       style="font-size:5.29198px;font-family:UniversLTStd-BoldCn;fill:#4aa4b6;stroke-width:0.264576"></text>
    <text
       transform="rotate(25.309383)"
       class="st1 st58 st62"
       id="text658"
       x="157.30246"
       y="65.950104"
       style="font-size:5.29167px;font-family:UniversLTStd-BoldCn;fill:#4aa4b6;stroke-width:0.26458"></text>
    <text
       transform="rotate(23.947945)"
       class="st1 st58 st62"
       id="text660"
       x="156.8661"
       y="69.696907"
       style="font-size:5.29167px;font-family:UniversLTStd-BoldCn;fill:#4aa4b6;stroke-width:0.264579"></text>
    <text
       transform="rotate(22.582401)"
       class="st1 st58 st68"
       id="text662"
       x="156.33444"
       y="73.440254"
       style="font-size:5.29151px;font-family:UniversLTStd-BoldCn;fill:#4aa4b6;stroke-width:0.264575"></text>
    <text
       transform="rotate(21.22262)"
       class="st1 st58 st62"
       id="text664"
       x="155.72473"
       y="77.159355"
       style="font-size:5.29167px;font-family:UniversLTStd-BoldCn;fill:#4aa4b6;stroke-width:0.264589"></text>
    <text
       transform="rotate(19.864644)"
       class="st1 st58 st62"
       id="text666"
       x="155.0249"
       y="80.863525"
       style="font-size:5.29167px;font-family:UniversLTStd-BoldCn;fill:#4aa4b6;stroke-width:0.264583"></text>
    <text
       transform="rotate(19.183243)"
       class="st1 st58 st62"
       id="text668"
       x="155.22763"
       y="82.716957"
       style="font-size:5.29167px;font-family:UniversLTStd-BoldCn;fill:#4aa4b6;stroke-width:0.264591"></text>
    <text
       transform="rotate(17.824344)"
       class="st1 st58 st62"
       id="text670"
       x="154.39838"
       y="86.398926"
       style="font-size:5.29167px;font-family:UniversLTStd-BoldCn;fill:#4aa4b6;stroke-width:0.264583"></text>
    <text
       transform="rotate(16.468757)"
       class="st1 st58 st62"
       id="text672"
       x="153.48354"
       y="90.052864"
       style="font-size:5.29167px;font-family:UniversLTStd-BoldCn;fill:#4aa4b6;stroke-width:0.264591"></text>
    <text
       transform="rotate(15.111899)"
       class="st1 st58 st62"
       id="text674"
       x="152.48531"
       y="93.691551"
       style="font-size:5.29167px;font-family:UniversLTStd-BoldCn;fill:#4aa4b6;stroke-width:0.264578"></text>
    <text
       transform="rotate(13.751359)"
       class="st1 st58 st59"
       id="text676"
       x="151.38918"
       y="97.317879"
       style="font-size:5.29148px;font-family:UniversLTStd-BoldCn;fill:#4aa4b6;stroke-width:0.264574"></text>
    <text
       transform="rotate(13.073206)"
       class="st1 st58 st62"
       id="text678"
       x="151.39833"
       y="99.119102"
       style="font-size:5.29167px;font-family:UniversLTStd-BoldCn;fill:#4aa4b6;stroke-width:0.264589"></text>
    <text
       transform="rotate(11.712199)"
       class="st1 st58 st62"
       id="text680"
       x="150.17966"
       y="102.71276"
       style="font-size:5.29167px;font-family:UniversLTStd-BoldCn;fill:#4aa4b6;stroke-width:0.264589"></text>
    <text
       transform="rotate(10.358143)"
       class="st1 st58 st62"
       id="text682"
       x="148.88326"
       y="106.2602"
       style="font-size:5.29167px;font-family:UniversLTStd-BoldCn;fill:#4aa4b6;stroke-width:0.264583"></text>
  </g>
</svg>
