<?xml version="1.0" encoding="UTF-8" standalone="no"?>
<!-- Created with Inkscape (http://www.inkscape.org/) -->

<svg
   width="17.416386mm"
   height="20.263891mm"
   viewBox="0 0 17.416386 20.263891"
   version="1.1"
   id="svg2204"
   inkscape:version="1.2.1 (9c6d41e410, 2022-07-14)"
   sodipodi:docname="mat.svg"
   xmlns:inkscape="http://www.inkscape.org/namespaces/inkscape"
   xmlns:sodipodi="http://sodipodi.sourceforge.net/DTD/sodipodi-0.dtd"
   xmlns="http://www.w3.org/2000/svg"
   xmlns:svg="http://www.w3.org/2000/svg">
  <sodipodi:namedview
     id="namedview2206"
     pagecolor="#ffffff"
     bordercolor="#666666"
     borderopacity="1.0"
     inkscape:showpageshadow="2"
     inkscape:pageopacity="0.0"
     inkscape:pagecheckerboard="0"
     inkscape:deskcolor="#d1d1d1"
     inkscape:document-units="mm"
     showgrid="false"
     inkscape:zoom="3.9710672"
     inkscape:cx="44.572401"
     inkscape:cy="54.897081"
     inkscape:window-width="1920"
     inkscape:window-height="986"
     inkscape:window-x="-11"
     inkscape:window-y="-11"
     inkscape:window-maximized="1"
     inkscape:current-layer="layer1" />
  <defs
     id="defs2201" />
  <g
     inkscape:label="Layer 1"
     inkscape:groupmode="layer"
     id="layer1"
     transform="translate(-87.199732,-88.661707)">
    <path
       class="st3"
       d="m 87.239329,92.920486 1.944378,13.000014 c 0.269905,1.80926 1.87411,3.10468 3.699451,2.99908 2.069225,-0.12083 4.157179,-0.13441 6.255837,-0.032 1.821735,0.0888 3.399475,-1.25251 3.648915,-3.05836 l 1.79463,-13.00137 c 0.27887,-2.023134 -1.2121,-3.875152 -3.25328,-4.005047 -3.657573,-0.234 -7.292674,-0.211024 -10.884935,0.05553 -2.03694,0.15214 -3.507981,2.022438 -3.204996,4.042188 z"
       id="path22"
       style="fill:#00aeef;stroke-width:0.264583" />
    <path
       class="st57"
       d="m 97.848756,99.104164 c 0.537104,0.272521 0.552979,-1.156229 0.552979,-1.156229 -0.124354,0.07144 -1.090083,0.883708 -0.552979,1.156229 m -0.05292,0.685271 c 0.505355,0.259295 1.177396,-0.738188 1.177396,-0.889 0,0 -0.137583,0.365125 -0.732896,0.336021 -0.669395,-0.0344 -0.669395,0.436562 -0.4445,0.552979 m -0.370416,0.724955 c 0.505354,0.25929 1.177396,-0.735538 1.177396,-0.888997 0,0 -0.137584,0.365125 -0.732896,0.336021 -0.669396,-0.03175 -0.669396,0.439206 -0.4445,0.552976 m -0.383646,0.75142 c 0.505354,0.25665 1.177396,-0.73819 1.177396,-0.889 0,0 -0.137584,0.36248 -0.732896,0.33602 -0.66675,-0.0344 -0.669396,0.43656 -0.4445,0.55298 m 0.399521,-2.439458 c -0.373063,-0.465667 -0.15875,-0.788459 -0.15875,-0.788459 -0.121709,0.08996 -0.534459,1.217084 -0.0291,1.473729 0.224895,0.113771 0.605895,-0.161395 0.187854,-0.68527 m -0.370417,0.727604 c -0.373062,-0.465667 -0.156104,-0.791104 -0.156104,-0.791104 -0.124354,0.08996 -0.534458,1.217083 -0.0291,1.476378 0.22225,0.11641 0.60325,-0.1614 0.185208,-0.685274 m -0.383646,0.748774 c -0.373062,-0.46567 -0.15875,-0.791108 -0.15875,-0.791108 -0.124354,0.08996 -0.534458,1.217088 -0.0291,1.473728 0.227542,0.11906 0.608542,-0.15875 0.187854,-0.68262 m -0.201083,1.66952 0.386292,-0.61913 c 0.03175,-0.0609 -0.07673,-0.0476 -0.174625,-0.0979 -0.0979,-0.0503 -0.148167,-0.14552 -0.179917,-0.0847 l -0.272521,0.6985 c -0.0344,0.0661 0.166688,0.24606 0.240771,0.10319 m 2.177521,-1.42875 c -0.06085,0.0953 -0.124354,0.18256 -0.187854,0.26987 0.338666,0.14288 0.550333,0.32279 0.550333,0.52123 0,0.45773 -1.087438,0.83079 -2.426229,0.83079 -1.338792,0 -2.426229,-0.37306 -2.426229,-0.83079 0,-0.39158 0.799041,-0.71967 1.870604,-0.80698 0,-0.0926 0.0026,-0.18521 0.01058,-0.2831 -1.36525,0.0635 -2.405062,0.41275 -2.405062,1.4896 0,1.20915 1.309687,2.53206 2.921,2.53206 1.613958,0 2.921,-1.32291 2.921,-2.53206 0.0026,-0.59266 -0.3175,-0.96308 -0.828146,-1.19062 m -4.262438,-1.624544 v 0.568854 c -0.05821,-0.02381 -0.111125,-0.0635 -0.15875,-0.113771 -0.04762,-0.05292 -0.07937,-0.116417 -0.09525,-0.187854 l -0.420687,0.03704 c 0.03175,0.17727 0.105833,0.314854 0.22225,0.41275 0.113771,0.0979 0.264583,0.156104 0.452437,0.174625 v 0.24606 h 0.232834 v -0.253998 c 0.20902,-0.02646 0.373062,-0.09525 0.489479,-0.206375 0.116416,-0.111125 0.177271,-0.251354 0.177271,-0.41275 0,-0.148167 -0.04763,-0.267229 -0.14023,-0.359833 -0.0926,-0.0926 -0.267229,-0.169334 -0.52652,-0.227542 v -0.529167 c 0.103187,0.03704 0.166687,0.111125 0.193145,0.216959 l 0.407459,-0.04498 c -0.02646,-0.134938 -0.0926,-0.243417 -0.193146,-0.325438 -0.100542,-0.07937 -0.238125,-0.129646 -0.407458,-0.145521 v -0.134937 h -0.232834 v 0.134937 c -0.185208,0.01588 -0.333375,0.07408 -0.441854,0.174625 -0.111125,0.100542 -0.166687,0.224896 -0.166687,0.373063 0,0.148166 0.05027,0.269875 0.148166,0.375708 0.09525,0.100542 0.248709,0.177271 0.460375,0.227542 m -0.785812,1.828277 h -0.735542 c -0.751417,0 -0.915458,-0.62707 -0.915458,-0.62707 -0.492125,-2.174874 1.008062,-3.354916 1.008062,-3.354916 h 3.122084 c 0,0 0.592666,0.465667 0.910166,1.352021 -0.209021,0.240771 -0.399521,0.526521 -0.560916,0.851959 -0.150813,0.306916 -0.256646,0.616479 -0.322792,0.910166 -0.764646,0.02646 -1.939396,0.1614 -2.505604,0.86784 m 2.032,-5.730881 c -0.60325,-0.06615 -0.814917,0.30427 -1.116542,0.320145 -0.304271,-0.01587 -0.513292,-0.386291 -1.119187,-0.320145 -0.61648,0.06879 -0.992188,0.595312 -0.992188,0.595312 l 0.754063,0.701146 H 95.8882 l 0.754062,-0.701146 c -0.0026,0 -0.375708,-0.526521 -0.994833,-0.595312 m -1.455209,3.344333 c 0,0.04762 0.01852,0.0926 0.05027,0.132292 0.0344,0.04233 0.08731,0.07408 0.156104,0.100541 v -0.468312 c -0.0635,0.01587 -0.11377,0.04762 -0.150812,0.0926 -0.03704,0.04233 -0.05556,0.08996 -0.05556,0.142875 m 0.650875,0.780521 c 0.04233,0.04498 0.0635,0.09525 0.0635,0.156104 0,0.06615 -0.02381,0.127 -0.07673,0.177271 -0.05027,0.05027 -0.113771,0.08202 -0.195791,0.0926 v -0.529167 c 0.09525,0.02381 0.166687,0.05821 0.20902,0.103188"
       id="path316"
       style="fill:#ffffff;stroke-width:0.264583" />
  </g>
</svg>
