<?xml version="1.0" encoding="UTF-8" standalone="no"?>
<!-- Created with Inkscape (http://www.inkscape.org/) -->

<svg
   width="15.932407mm"
   height="18.521343mm"
   viewBox="0 0 15.932407 18.521343"
   version="1.1"
   id="svg64344"
   inkscape:version="1.2.1 (9c6d41e410, 2022-07-14)"
   sodipodi:docname="mig.svg"
   xmlns:inkscape="http://www.inkscape.org/namespaces/inkscape"
   xmlns:sodipodi="http://sodipodi.sourceforge.net/DTD/sodipodi-0.dtd"
   xmlns="http://www.w3.org/2000/svg"
   xmlns:svg="http://www.w3.org/2000/svg">
  <sodipodi:namedview
     id="namedview64346"
     pagecolor="#ffffff"
     bordercolor="#666666"
     borderopacity="1.0"
     inkscape:showpageshadow="2"
     inkscape:pageopacity="0.0"
     inkscape:pagecheckerboard="0"
     inkscape:deskcolor="#d1d1d1"
     inkscape:document-units="mm"
     showgrid="false"
     inkscape:zoom="3.0217733"
     inkscape:cx="5.9567672"
     inkscape:cy="39.049918"
     inkscape:window-width="1920"
     inkscape:window-height="986"
     inkscape:window-x="-11"
     inkscape:window-y="-11"
     inkscape:window-maximized="1"
     inkscape:current-layer="layer1" />
  <defs
     id="defs64341" />
  <g
     inkscape:label="Layer 1"
     inkscape:groupmode="layer"
     id="layer1"
     transform="translate(-97.454787,-101.88139)">
    <path
       class="st75"
       d="m 102.53538,120.39496 c 1.27,-0.10054 3.83116,-0.0979 5.71764,0.003 1.66952,0.09 3.13267,-1.10331 3.37344,-2.75696 l 1.73302,-11.89566 c 0.23813,-1.90765 -1.08479,-3.55865 -2.9501,-3.68829 -2.14313,-0.23019 -6.60136,-0.23548 -9.95892,-0.008 -1.865311,0.127 -3.22527,1.82562 -2.963332,3.67771 l 1.685396,11.87185 c 0.182562,1.63248 1.690686,2.88396 3.362856,2.79665 z"
       id="path876"
       style="fill:#562061;stroke-width:0.264583" />
    <path
       class="st57"
       d="m 106.56234,107.85371 c -0.13494,-0.41275 -0.57944,-0.63765 -0.99484,-0.50271 -0.41275,0.13494 -0.63764,0.58208 -0.50271,0.99483 0.13494,0.41275 0.58209,0.63765 0.99484,0.50271 0.41275,-0.13758 0.63764,-0.58208 0.50271,-0.99483 z"
       id="path878"
       style="fill:#ffffff;stroke-width:0.264583" />
    <path
       class="st57"
       d="m 104.77904,111.93623 0.77259,-1.53194 c 0.23812,-0.47096 0.0476,-1.0451 -0.42334,-1.28323 l -0.5027,-0.254 c -0.0265,-0.0132 -0.0556,-0.0238 -0.0847,-0.0291 -1.33879,-0.58738 -2.92629,-0.0397 -3.60098,1.28058 -0.10319,0.20108 -0.0238,0.4445 0.17727,0.54769 0.20108,0.10319 0.4445,0.0238 0.54769,-0.17727 0.38894,-0.75936 1.20385,-1.15888 2.00554,-1.05834 l -2.92894,5.74411 c -0.10318,0.20108 -0.0238,0.44979 0.17992,0.55298 0.0609,0.0291 0.12435,0.045 0.18521,0.045 0.15081,0 0.29369,-0.082 0.36777,-0.2249 l 1.78064,-3.48985 0.88107,0.4445 c 0.94985,0.51593 1.31762,1.70391 0.81756,2.66964 -0.10583,0.20109 -0.0265,0.44979 0.17462,0.55298 0.10055,0.0529 0.21167,0.0582 0.31221,0.0265 0.10054,-0.0318 0.18786,-0.10054 0.24077,-0.20373 0.65882,-1.27 0.24871,-2.81781 -0.90223,-3.61156 z"
       id="path880"
       style="fill:#ffffff;stroke-width:0.264583" />
    <path
       class="st57"
       d="m 110.05484,110.92023 -1.3679,-1.3679 c -0.11906,-0.11906 -0.31221,-0.11906 -0.43127,0 -0.11906,0.11906 -0.11906,0.31221 0,0.43127 l 0.85725,0.85461 h -2.60879 c -0.16404,0 -0.29369,0.13229 -0.29369,0.29633 0,0.16404 0.13229,0.29633 0.29369,0.29633 h 2.60879 l -0.85725,0.85725 c -0.11906,0.11907 -0.11906,0.31221 0,0.43127 0.0609,0.0609 0.13758,0.09 0.21696,0.09 0.0794,0 0.1561,-0.0291 0.21696,-0.09 l 1.36789,-1.36789 c 0.0582,-0.0582 0.09,-0.13494 0.09,-0.21696 0,-0.082 -0.0344,-0.1561 -0.0926,-0.21431 z"
       id="path882"
       style="fill:#ffffff;stroke-width:0.264583" />
    <path
       class="st57"
       d="m 107.28994,112.02354 c -0.16404,0 -0.29633,0.13229 -0.29633,0.29633 v 0.98425 c 0,0.16405 0.13229,0.29634 0.29633,0.29634 0.16404,0 0.29369,-0.13229 0.29369,-0.29634 v -0.98425 c 0.003,-0.16404 -0.12965,-0.29633 -0.29369,-0.29633 z"
       id="path884"
       style="fill:#ffffff;stroke-width:0.264583" />
    <path
       class="st57"
       d="m 107.28994,110.25083 c 0.16404,0 0.29369,-0.13229 0.29369,-0.29633 v -0.98425 c 0,-0.16404 -0.13229,-0.29633 -0.29369,-0.29633 -0.1614,0 -0.29633,0.13229 -0.29633,0.29633 v 0.98425 c 0.003,0.16404 0.13493,0.29633 0.29633,0.29633 z"
       id="path886"
       style="fill:#ffffff;stroke-width:0.264583" />
    <path
       class="st57"
       d="m 107.28994,108.08654 c 0.16404,0 0.29369,-0.13229 0.29369,-0.29369 v -0.98425 c 0,-0.16404 -0.13229,-0.29368 -0.29369,-0.29368 -0.1614,0 -0.29633,0.13229 -0.29633,0.29368 v 0.98425 c 0.003,0.1614 0.13493,0.29369 0.29633,0.29369 z"
       id="path888"
       style="fill:#ffffff;stroke-width:0.264583" />
    <path
       class="st57"
       d="m 107.28994,114.18783 c -0.16404,0 -0.29633,0.13229 -0.29633,0.29369 v 0.98425 c 0,0.16404 0.13229,0.29633 0.29633,0.29633 0.16404,0 0.29369,-0.13229 0.29369,-0.29633 v -0.98425 c 0.003,-0.1614 -0.12965,-0.29369 -0.29369,-0.29369 z"
       id="path890"
       style="fill:#ffffff;stroke-width:0.264583" />
  </g>
</svg>
