<?xml version="1.0" encoding="UTF-8" standalone="no"?>
<!-- Created with Inkscape (http://www.inkscape.org/) -->

<svg
   width="17.416073mm"
   height="20.259521mm"
   viewBox="0 0 17.416073 20.259522"
   version="1.1"
   id="svg4375"
   inkscape:version="1.2.1 (9c6d41e410, 2022-07-14)"
   sodipodi:docname="nut.svg"
   xmlns:inkscape="http://www.inkscape.org/namespaces/inkscape"
   xmlns:sodipodi="http://sodipodi.sourceforge.net/DTD/sodipodi-0.dtd"
   xmlns="http://www.w3.org/2000/svg"
   xmlns:svg="http://www.w3.org/2000/svg">
  <sodipodi:namedview
     id="namedview4377"
     pagecolor="#ffffff"
     bordercolor="#666666"
     borderopacity="1.0"
     inkscape:pageshadow="2"
     inkscape:pageopacity="0.0"
     inkscape:pagecheckerboard="0"
     inkscape:document-units="mm"
     showgrid="false"
     fit-margin-top="0"
     fit-margin-left="0"
     fit-margin-right="0"
     fit-margin-bottom="0"
     inkscape:zoom="5.5731762"
     inkscape:cx="73.387236"
     inkscape:cy="44.319431"
     inkscape:window-width="1920"
     inkscape:window-height="986"
     inkscape:window-x="-11"
     inkscape:window-y="-11"
     inkscape:window-maximized="1"
     inkscape:current-layer="layer1"
     inkscape:showpageshadow="2"
     inkscape:deskcolor="#d1d1d1" />
  <defs
     id="defs4372" />
  <g
     inkscape:label="Layer 1"
     inkscape:groupmode="layer"
     id="layer1"
     transform="translate(-75.200045,-123.31761)">
    <path
       class="st0"
       d="m 80.669525,143.51785 c 2.063645,-0.0924 4.148112,-0.0746 6.248168,0.0526 1.826639,0.11265 3.428649,-1.21076 3.702066,-3.02115 l 1.956193,-12.95264 c 0.305025,-2.01967 -1.162558,-3.88964 -3.202142,-4.04515 -3.663691,-0.28038 -7.296107,-0.30718 -10.879969,-0.0885 -2.041434,0.1225 -3.535779,1.97326 -3.261244,4.0002 l 1.775488,13.01315 c 0.251995,1.80412 1.837748,3.12197 3.66144,3.04151 z"
       id="path4"
       style="fill:#2c5996;stroke-width:0.264583" />
    <path
       class="st57"
       d="m 84.402994,136.06238 c 0.746125,0 1.198563,-0.48948 1.230313,-1.17211 0.0026,-0.0317 -0.0291,-0.0582 -0.06085,-0.0582 H 81.45554 79.791311 c -0.193146,0 -0.306917,0.12965 -0.306917,0.30692 0,0.17992 0.113771,0.30692 0.306917,0.30692 h 1.976437 1.611313 c 0.238125,0.38364 0.510646,0.61648 1.023937,0.61648"
       id="path330"
       style="fill:#ffffff;stroke-width:0.264583" />
    <path
       class="st57"
       d="m 86.718098,132.88738 c -0.201083,0.19579 -0.468312,0.30427 -0.751416,0.30427 -0.283104,0 -0.550334,-0.10584 -0.751417,-0.30427 -0.0926,-0.09 -0.0926,-0.24077 0,-0.33073 0.09525,-0.0926 0.246063,-0.0926 0.341313,0 0.219604,0.21431 0.600604,0.21431 0.820208,0 0.09525,-0.0926 0.246062,-0.0926 0.341312,0 0.0926,0.0926 0.0926,0.24077 0,0.33073 m -2.870729,0 c -0.201083,0.19579 -0.468312,0.30427 -0.751416,0.30427 -0.283105,0 -0.550334,-0.10584 -0.751417,-0.30427 -0.0926,-0.09 -0.0926,-0.24077 0,-0.33073 0.09525,-0.0926 0.246062,-0.0926 0.341312,0 0.219605,0.21431 0.600605,0.21431 0.820209,0 0.09525,-0.0926 0.246062,-0.0926 0.341312,0 0.08996,0.0926 0.08996,0.24077 0,0.33073 m 4.135438,-0.50007 c -0.103188,-0.10318 -0.232834,-0.18256 -0.375709,-0.2196 v -0.4101 c 0,-0.79111 -0.343958,-1.50813 -0.902229,-2.02936 -0.550333,-0.51329 -1.307041,-0.83344 -2.145771,-0.84137 -0.142875,0.10318 -0.232833,0.26987 -0.232833,0.45773 0,0.30427 0.28575,0.56885 0.613833,0.56885 0.113771,0 0.20373,0.0926 0.20373,0.20638 0,0.11377 -0.09261,0.20637 -0.20373,0.20637 -0.555625,0 -1.026583,-0.44715 -1.026583,-0.97896 0,-0.14816 0.03175,-0.28839 0.09525,-0.41539 -1.452562,0.23018 -2.555875,1.41023 -2.555875,2.83104 v 0.4101 c -0.142875,0.0397 -0.272521,0.11642 -0.375708,0.21961 -0.148167,0.15345 -0.240771,0.36777 -0.240771,0.6006 0,0.23283 0.0926,0.4445 0.240771,0.6006 0.103187,0.10319 0.232833,0.18257 0.375708,0.21961 v 0.4101 c 0,0.0661 0.0053,0.13229 0.01588,0.20638 h 4.228042 c 0.129646,0 0.254,0.0529 0.343958,0.14816 0.08731,0.09 0.132292,0.21432 0.127,0.33867 -0.04498,0.93398 -0.703792,1.56369 -1.640417,1.56369 -0.640291,0 -1.00277,-0.29898 -1.240895,-0.61648 h -1.09273 c 0.560917,0.67204 1.399646,1.23031 2.333625,1.23031 1.698625,0 3.074459,-1.83091 3.074459,-2.87073 v -0.4101 c 0.142875,-0.037 0.27252,-0.11642 0.375708,-0.21961 0.148167,-0.1561 0.240771,-0.36777 0.240771,-0.6006 0,-0.23283 -0.08731,-0.45244 -0.235479,-0.6059"
       id="path332"
       style="fill:#ffffff;stroke-width:0.264583" />
  </g>
</svg>
