<?xml version="1.0" encoding="UTF-8" standalone="no"?>
<!-- Created with Inkscape (http://www.inkscape.org/) -->

<svg
   width="17.770658mm"
   height="17.770664mm"
   viewBox="0 0 17.770658 17.770664"
   version="1.1"
   id="svg15254"
   inkscape:version="1.2.1 (9c6d41e410, 2022-07-14)"
   sodipodi:docname="oda.svg"
   xmlns:inkscape="http://www.inkscape.org/namespaces/inkscape"
   xmlns:sodipodi="http://sodipodi.sourceforge.net/DTD/sodipodi-0.dtd"
   xmlns="http://www.w3.org/2000/svg"
   xmlns:svg="http://www.w3.org/2000/svg">
  <sodipodi:namedview
     id="namedview15256"
     pagecolor="#ffffff"
     bordercolor="#666666"
     borderopacity="1.0"
     inkscape:showpageshadow="2"
     inkscape:pageopacity="0.0"
     inkscape:pagecheckerboard="0"
     inkscape:deskcolor="#d1d1d1"
     inkscape:document-units="mm"
     showgrid="false"
     inkscape:zoom="3.9710672"
     inkscape:cx="38.780507"
     inkscape:cy="33.744077"
     inkscape:window-width="1920"
     inkscape:window-height="986"
     inkscape:window-x="-11"
     inkscape:window-y="-11"
     inkscape:window-maximized="1"
     inkscape:current-layer="layer1" />
  <defs
     id="defs15251" />
  <g
     inkscape:label="Layer 1"
     inkscape:groupmode="layer"
     id="layer1"
     transform="translate(-81.94843,-110.21619)">
    <path
       class="st89"
       d="m 82.323437,119.1002 c 0,4.70165 3.81,8.51165 8.511645,8.51165 4.699,0 8.509,-3.81 8.509,-8.51165 0,-4.699 -3.81,-8.509 -8.509,-8.509 -4.701645,0 -8.511645,3.81 -8.511645,8.509 z"
       id="path1164"
       style="fill:#e7f1ea;stroke-width:0.264583" />
    <path
       class="st90"
       d="m 82.323437,119.1002 c 0,4.70165 3.81,8.51165 8.511645,8.51165 4.699,0 8.509,-3.81 8.509,-8.51165 0,-4.699 -3.81,-8.509 -8.509,-8.509 -4.701645,0 -8.511645,3.81 -8.511645,8.509 z"
       id="path1166"
       style="fill:none;stroke:#13733b;stroke-width:0.750014;stroke-miterlimit:10" />
    <path
       class="st88"
       d="m 92.332624,122.46305 v -1.87854 -0.50006 -1.42346 c -0.269875,0.20902 -0.455083,0.50536 -0.505354,0.84931 -0.02646,0.18786 -0.187854,0.3228 -0.370417,0.3228 -0.01852,0 -0.0344,0 -0.05292,-0.003 -0.206375,-0.0291 -0.34925,-0.2196 -0.320146,-0.42333 0.148166,-1.05834 1.095375,-1.82563 2.248958,-1.82563 1.153583,0 2.100792,0.76729 2.248958,1.82563 0.0291,0.20373 -0.113771,0.39423 -0.320146,0.42333 -0.206375,0.0291 -0.394229,-0.11377 -0.423333,-0.32015 -0.04762,-0.34395 -0.232833,-0.64029 -0.505354,-0.84931 v 1.42346 0.50006 1.87854 c 0,0.20638 -0.166687,0.37571 -0.375708,0.37571 -0.206375,0 -0.375709,-0.16933 -0.375709,-0.37571 v -1.87854 h -0.500062 v 1.87854 c 0,0.20638 -0.169333,0.37571 -0.375708,0.37571 -0.20373,0 -0.373063,-0.16933 -0.373063,-0.37571 z"
       id="path1168"
       style="fill:#13733b;stroke-width:0.264583" />
    <path
       class="st88"
       d="m 93.335395,117.08143 c -0.552979,0 -1.000125,-0.44715 -1.000125,-1.00013 0,-0.55298 0.447146,-1.00277 1.000125,-1.00277 0.552979,0 1.000125,0.44979 1.000125,1.00277 0,0.55298 -0.447146,1.00013 -1.000125,1.00013 z"
       id="path1170"
       style="fill:#13733b;stroke-width:0.264583" />
    <path
       class="st88"
       d="m 88.580832,116.08395 c 1.426105,0 2.500313,1.016 2.500313,2.37331 0,0.20902 -0.169333,0.37571 -0.375708,0.37571 -0.206375,0 -0.375709,-0.16669 -0.375709,-0.37571 0,-0.62177 -0.338666,-1.13241 -0.859896,-1.40758 l 0.576792,3.00302 c 0.01852,0.15081 -0.0979,0.2831 -0.248708,0.2831 h -0.216959 v 2.12725 c 0,0.20638 -0.169333,0.37571 -0.375708,0.37571 -0.206375,0 -0.375708,-0.16933 -0.375708,-0.37571 v -2.12725 h -0.500063 v 2.12725 c 0,0.20638 -0.169333,0.37571 -0.375708,0.37571 -0.206375,0 -0.375708,-0.16933 -0.375708,-0.37571 v -2.12725 h -0.216959 c -0.150812,0 -0.267229,-0.13229 -0.248708,-0.2831 l 0.576792,-3.00567 c -0.523875,0.27782 -0.862542,0.78582 -0.862542,1.41023 0,0.20902 -0.169333,0.37571 -0.375708,0.37571 -0.206375,0 -0.375709,-0.16669 -0.375709,-0.37571 0.0053,-1.35731 1.0795,-2.37331 2.505604,-2.37331 z"
       id="path1172"
       style="fill:#13733b;stroke-width:0.264583" />
    <path
       class="st88"
       d="m 88.583478,115.5786 c -0.552979,0 -1.000125,-0.44715 -1.000125,-1.00013 0,-0.55298 0.447146,-1.00012 1.000125,-1.00012 0.552979,0 1.000125,0.44714 1.000125,1.00012 0,0.55298 -0.449791,1.00013 -1.000125,1.00013 z"
       id="path1174"
       style="fill:#13733b;stroke-width:0.264583" />
  </g>
</svg>
