<?xml version="1.0" encoding="UTF-8" standalone="no"?>
<!-- Created with Inkscape (http://www.inkscape.org/) -->

<svg
   width="17.418816mm"
   height="20.261122mm"
   viewBox="0 0 17.418816 20.261122"
   version="1.1"
   id="svg2466"
   inkscape:version="1.2.1 (9c6d41e410, 2022-07-14)"
   sodipodi:docname="par.svg"
   xmlns:inkscape="http://www.inkscape.org/namespaces/inkscape"
   xmlns:sodipodi="http://sodipodi.sourceforge.net/DTD/sodipodi-0.dtd"
   xmlns="http://www.w3.org/2000/svg"
   xmlns:svg="http://www.w3.org/2000/svg">
  <sodipodi:namedview
     id="namedview2468"
     pagecolor="#ffffff"
     bordercolor="#666666"
     borderopacity="1.0"
     inkscape:showpageshadow="2"
     inkscape:pageopacity="0.0"
     inkscape:pagecheckerboard="0"
     inkscape:deskcolor="#d1d1d1"
     inkscape:document-units="mm"
     showgrid="false"
     inkscape:zoom="3.9710672"
     inkscape:cx="62.703547"
     inkscape:cy="43.565115"
     inkscape:window-width="1920"
     inkscape:window-height="986"
     inkscape:window-x="-11"
     inkscape:window-y="-11"
     inkscape:window-maximized="1"
     inkscape:current-layer="layer1" />
  <defs
     id="defs2463" />
  <g
     inkscape:label="Layer 1"
     inkscape:groupmode="layer"
     id="layer1"
     transform="translate(-31.146439,-156.68828)">
    <path
       class="st2"
       d="m 36.664398,176.92352 c 2.096597,-0.10418 4.183839,-0.0982 6.254094,0.0201 1.826325,0.10372 3.429191,-1.19887 3.695439,-3.00624 l 1.91316,-13.01305 c 0.297347,-2.02302 -1.177468,-3.88722 -3.21734,-4.03366 -3.592898,-0.25784 -7.230582,-0.27126 -10.885034,-0.0291 -2.038318,0.13411 -3.527338,1.99047 -3.243553,4.01292 l 1.827645,13.00206 c 0.253082,1.8027 1.833333,3.13766 3.655589,3.04695 z"
       id="path30"
       style="fill:#961b4a;stroke-width:0.264583" />
    <text
       transform="rotate(-60.582012)"
       class="st2 st58 st72"
       id="text760"
       x="-138.57246"
       y="100.76296"
       style="font-size:5.2919px;font-family:UniversLTStd-BoldCn;fill:#961b4a;stroke-width:0.264597"></text>
    <text
       transform="rotate(-70.17697)"
       class="st2 st58 st61"
       id="text768"
       x="-144.37202"
       y="77.144234"
       style="font-size:5.29143px;font-family:UniversLTStd-BoldCn;fill:#961b4a;stroke-width:0.264571"></text>
    <path
       class="st57"
       d="m 36.33836,167.61997 c -0.169333,-0.32279 -0.291041,-0.6694 -0.367771,-1.03982 -0.04233,-0.20902 -0.246062,-0.34395 -0.455083,-0.30162 -0.209021,0.0423 -0.343958,0.24606 -0.301625,0.45508 0.105833,0.51065 0.28575,0.9869 0.537104,1.41817 0.134938,-0.23283 0.341313,-0.42069 0.587375,-0.53181 z"
       id="path794"
       style="fill:#ffffff;stroke-width:0.264583" />
    <path
       class="st57"
       d="m 39.047694,169.65726 c -0.370417,-0.0767 -0.719667,-0.20108 -1.042459,-0.37042 -0.111125,0.24871 -0.298979,0.45509 -0.534458,0.59002 0.433917,0.25136 0.912812,0.43392 1.423458,0.53975 0.02646,0.005 0.05292,0.008 0.07673,0.008 0.182563,0 0.341313,-0.127 0.378355,-0.30956 0.04233,-0.20902 -0.0926,-0.4154 -0.301625,-0.45773 z"
       id="path796"
       style="fill:#ffffff;stroke-width:0.264583" />
    <path
       class="st57"
       d="m 40.627256,161.92613 c 0.367771,0.0741 0.717021,0.19844 1.037167,0.36777 0.111125,-0.2487 0.301625,-0.45243 0.537104,-0.58737 -0.433917,-0.24871 -0.910167,-0.43127 -1.420813,-0.5371 -0.20902,-0.0423 -0.41275,0.0926 -0.455083,0.30162 -0.04233,0.20902 0.08996,0.41275 0.301625,0.45508 z"
       id="path798"
       style="fill:#ffffff;stroke-width:0.264583" />
    <path
       class="st57"
       d="m 43.331298,163.96078 c 0.169333,0.32279 0.296333,0.67204 0.370416,1.03981 0.03704,0.18256 0.198438,0.30956 0.378355,0.30956 0.02381,0 0.05027,-0.003 0.07673,-0.008 0.209021,-0.0423 0.343958,-0.24607 0.301625,-0.45244 -0.103188,-0.51065 -0.288396,-0.98954 -0.53975,-1.4261 -0.132292,0.23812 -0.338667,0.42597 -0.587375,0.5371 z"
       id="path800"
       style="fill:#ffffff;stroke-width:0.264583" />
    <path
       class="st57"
       d="m 35.515506,165.30486 c 0.02646,0.005 0.05292,0.008 0.07673,0.008 0.179917,0 0.338667,-0.12435 0.378354,-0.30956 0.07673,-0.36777 0.198438,-0.71173 0.36248,-1.03188 -0.248709,-0.10848 -0.45773,-0.29368 -0.592667,-0.52652 -0.246063,0.42863 -0.425979,0.90223 -0.526521,1.40494 -0.04233,0.20902 0.0926,0.41275 0.301625,0.45508 z"
       id="path802"
       style="fill:#ffffff;stroke-width:0.264583" />
    <path
       class="st57"
       d="m 37.98936,162.30449 c 0.325438,-0.17463 0.682625,-0.30163 1.058334,-0.37836 0.20902,-0.0423 0.343958,-0.24606 0.301625,-0.45508 -0.04233,-0.20902 -0.246063,-0.34396 -0.455084,-0.30162 -0.513291,0.10318 -0.997479,0.28839 -1.434041,0.54239 0.232833,0.13494 0.420687,0.34131 0.529166,0.59267 z"
       id="path804"
       style="fill:#ffffff;stroke-width:0.264583" />
    <path
       class="st57"
       d="m 41.664423,169.29213 c -0.320146,0.16934 -0.669396,0.29105 -1.037167,0.36777 -0.211667,0.0423 -0.343958,0.24607 -0.304271,0.45509 0.03969,0.18256 0.198438,0.30956 0.378354,0.30956 0.02381,0 0.05292,-0.003 0.07673,-0.008 0.510645,-0.10318 0.989541,-0.28839 1.420812,-0.5371 -0.232833,-0.13494 -0.425979,-0.33867 -0.534458,-0.58738 z"
       id="path806"
       style="fill:#ffffff;stroke-width:0.264583" />
    <path
       class="st57"
       d="m 44.156798,166.28118 c -0.209021,-0.0423 -0.41275,0.0926 -0.455084,0.30162 -0.07408,0.36777 -0.201083,0.71702 -0.370416,1.03981 0.248708,0.11113 0.452437,0.29898 0.590021,0.53711 0.251354,-0.43392 0.433916,-0.91282 0.53975,-1.42611 0.03969,-0.20637 -0.09525,-0.4101 -0.304271,-0.45243 z"
       id="path808"
       style="fill:#ffffff;stroke-width:0.264583" />
    <path
       class="st57"
       d="m 36.534152,163.6327 c 0.0926,0.0344 0.193146,0.0529 0.298979,0.0529 0.484188,0 0.875771,-0.39423 0.875771,-0.87841 0,-0.10848 -0.01852,-0.20902 -0.05292,-0.30427 -0.09525,-0.26194 -0.312208,-0.46303 -0.582083,-0.53975 -0.07408,-0.0212 -0.156104,-0.0317 -0.240771,-0.0317 -0.484187,0 -0.878417,0.39158 -0.878417,0.87577 0,0.0873 0.01323,0.16933 0.03704,0.2487 0.07937,0.26988 0.280458,0.48419 0.542396,0.5768 z"
       id="path810"
       style="fill:#ffffff;stroke-width:0.264583" />
    <path
       class="st57"
       d="m 41.939589,162.8072 c 0,0.48418 0.39423,0.87841 0.878417,0.87841 0.111125,0 0.219604,-0.0212 0.3175,-0.0608 0.261938,-0.10054 0.460375,-0.32015 0.531813,-0.59531 0.01852,-0.0714 0.0291,-0.14552 0.0291,-0.2249 0,-0.48419 -0.391584,-0.87577 -0.875771,-0.87577 -0.07938,0 -0.153458,0.0106 -0.224896,0.0291 -0.272521,0.0741 -0.492125,0.27252 -0.592667,0.53182 -0.04233,0.10054 -0.0635,0.20637 -0.0635,0.3175 z"
       id="path812"
       style="fill:#ffffff;stroke-width:0.264583" />
    <path
       class="st57"
       d="m 37.727423,168.7762 c 0,-0.48419 -0.394229,-0.87842 -0.878417,-0.87842 -0.111125,0 -0.214312,0.0185 -0.309562,0.0582 -0.259292,0.0979 -0.460375,0.3175 -0.534459,0.59002 -0.01852,0.0741 -0.03175,0.15081 -0.03175,0.23283 0,0.48419 0.391584,0.87577 0.875771,0.87577 0.07937,0 0.156104,-0.0106 0.230188,-0.0317 0.27252,-0.0741 0.492125,-0.27252 0.59002,-0.53181 0.03704,-0.0979 0.05821,-0.20373 0.05821,-0.31485 z"
       id="path814"
       style="fill:#ffffff;stroke-width:0.264583" />
    <path
       class="st57"
       d="m 43.135506,167.95863 c -0.0979,-0.0397 -0.203729,-0.0608 -0.3175,-0.0608 -0.484187,0 -0.878417,0.39423 -0.878417,0.87842 0,0.11112 0.02117,0.21695 0.06086,0.3175 0.100541,0.25929 0.320145,0.45773 0.592666,0.53181 0.07144,0.0185 0.148167,0.0291 0.224896,0.0291 0.484188,0 0.875771,-0.39158 0.875771,-0.87577 0,-0.0767 -0.01058,-0.15346 -0.0291,-0.22489 -0.07144,-0.27517 -0.269875,-0.49477 -0.529167,-0.59532 z"
       id="path816"
       style="fill:#ffffff;stroke-width:0.264583" />
    <path
       class="st57"
       d="m 39.833506,167.33686 c -0.817562,0 -1.486958,-0.64029 -1.539875,-1.44462 l 0.164042,0.18785 c 0.05821,0.0661 0.137583,0.0979 0.216958,0.0979 0.06879,0 0.134938,-0.0238 0.1905,-0.0714 0.119063,-0.10583 0.132292,-0.2884 0.02646,-0.4101 l -0.677333,-0.77259 c -0.05556,-0.0635 -0.134937,-0.0979 -0.216958,-0.0979 -0.08467,0 -0.164042,0.037 -0.216959,0.0979 l -0.677333,0.77259 c -0.105833,0.1217 -0.0926,0.30427 0.02646,0.4101 0.121709,0.10583 0.304271,0.0926 0.407459,-0.0265 l 0.174625,-0.19844 c 0.04762,1.12978 0.978958,2.03465 2.119312,2.03465 0.15875,0 0.288396,-0.12965 0.288396,-0.2884 0.0026,-0.16139 -0.127,-0.29104 -0.28575,-0.29104 z"
       id="path818"
       style="fill:#ffffff;stroke-width:0.264583" />
    <path
       class="st57"
       d="m 39.833506,164.24653 c 0.817563,0 1.486958,0.64029 1.539875,1.44462 l -0.164042,-0.18785 c -0.105833,-0.12171 -0.288395,-0.13229 -0.410104,-0.0265 -0.119062,0.10584 -0.132291,0.2884 -0.02646,0.40746 l 0.677333,0.77258 c 0.05556,0.0635 0.134938,0.0979 0.216959,0.0979 0.08467,0 0.164041,-0.037 0.216958,-0.0979 l 0.677333,-0.77258 c 0.105834,-0.12171 0.0926,-0.30427 -0.02646,-0.40746 -0.119063,-0.10583 -0.304271,-0.0926 -0.410104,0.0265 l -0.174625,0.19844 c -0.04762,-1.12977 -0.978959,-2.03465 -2.119313,-2.03465 -0.161396,0 -0.291041,0.12965 -0.291041,0.29104 0.0026,0.15875 0.132291,0.2884 0.293687,0.2884 z"
       id="path820"
       style="fill:#ffffff;stroke-width:0.264583" />
  </g>
</svg>
