<?xml version="1.0" encoding="UTF-8" standalone="no"?>
<!-- Created with Inkscape (http://www.inkscape.org/) -->

<svg
   width="17.412409mm"
   height="20.27022mm"
   viewBox="0 0 17.412409 20.27022"
   version="1.1"
   id="svg2643"
   inkscape:version="1.2.1 (9c6d41e410, 2022-07-14)"
   sodipodi:docname="pol.svg"
   xmlns:inkscape="http://www.inkscape.org/namespaces/inkscape"
   xmlns:sodipodi="http://sodipodi.sourceforge.net/DTD/sodipodi-0.dtd"
   xmlns="http://www.w3.org/2000/svg"
   xmlns:svg="http://www.w3.org/2000/svg">
  <sodipodi:namedview
     id="namedview2645"
     pagecolor="#ffffff"
     bordercolor="#666666"
     borderopacity="1.0"
     inkscape:showpageshadow="2"
     inkscape:pageopacity="0.0"
     inkscape:pagecheckerboard="0"
     inkscape:deskcolor="#d1d1d1"
     inkscape:document-units="mm"
     showgrid="false"
     inkscape:zoom="2.8079686"
     inkscape:cx="26.353571"
     inkscape:cy="47.009073"
     inkscape:window-width="1920"
     inkscape:window-height="986"
     inkscape:window-x="-11"
     inkscape:window-y="-11"
     inkscape:window-maximized="1"
     inkscape:current-layer="layer1" />
  <defs
     id="defs2640" />
  <g
     inkscape:label="Layer 1"
     inkscape:groupmode="layer"
     id="layer1"
     transform="translate(-87.693668,-80.788918)">
    <path
       class="st2"
       d="m 87.728321,84.970297 1.827583,13.022915 c 0.250858,1.795202 1.823451,3.123768 3.634467,3.035428 2.093877,-0.10246 4.184028,-0.0927 6.26761,0.0248 1.826249,0.1028 3.429699,-1.196356 3.695869,-3.007582 l 1.91398,-13.012221 c 0.2976,-2.022711 -1.17619,-3.885085 -3.21434,-4.03472 -3.61097,-0.263487 -7.246008,-0.279377 -10.878731,-0.04568 -2.039457,0.133649 -3.53004,1.988494 -3.246438,4.017026 z"
       id="path44"
       style="fill:#961b4a;stroke-width:0.264583" />
    <path
       class="st57"
       d="m 94.227253,89.766904 c 0.05292,-0.306917 0.164042,-0.597958 0.314854,-0.859896 0.07937,-0.142875 0.179917,-0.277812 0.28575,-0.404812 0.03704,-0.04498 0.07673,-0.08996 0.119063,-0.129646 -0.34925,-0.227542 -0.764646,-0.357188 -1.2065,-0.357188 -1.230313,0 -2.230438,1.000125 -2.230438,2.233084 0,0.822854 0.449792,1.545166 1.113896,1.928812 v 0.304271 c 0,0.246062 0.201083,0.447146 0.447146,0.447146 h 1.338791 c 0.248709,0 0.447146,-0.201084 0.447146,-0.447146 v -0.301625 -0.164042 c -0.121708,-0.134937 -0.22225,-0.277812 -0.309562,-0.428625 -0.3175,-0.534458 -0.436563,-1.172104 -0.320146,-1.820333 z m -2.055813,0.484187 c 0,-0.428625 0.17198,-0.814916 0.449792,-1.09802 v 2.196041 C 92.34342,91.066008 92.17144,90.679716 92.17144,90.251091 Z"
       id="path342"
       style="fill:#ffffff;stroke-width:0.264583" />
    <path
       class="st57"
       d="m 93.737774,87.570862 c 0.492125,0 0.894291,-0.399521 0.894291,-0.894291 0,-0.494771 -0.39952,-0.894292 -0.894291,-0.894292 -0.492125,0 -0.894292,0.399521 -0.894292,0.894292 0,0.49477 0.402167,0.894291 0.894292,0.894291 z"
       id="path344"
       style="fill:#ffffff;stroke-width:0.264583" />
    <path
       class="st57"
       d="m 99.987232,87.570862 c 0.492128,0 0.894288,-0.399521 0.894288,-0.894291 0,-0.494771 -0.39952,-0.894292 -0.894288,-0.894292 -0.494771,0 -0.894292,0.399521 -0.894292,0.894292 0,0.49477 0.402167,0.894291 0.894292,0.894291 z"
       id="path346"
       style="fill:#ffffff;stroke-width:0.264583" />
    <path
       class="st57"
       d="m 99.987232,88.018008 c -0.449792,0 -0.865188,0.132292 -1.214438,0.359833 0.04233,0.04233 0.08467,0.08996 0.121709,0.134938 0.105833,0.121708 0.201083,0.256646 0.283104,0.396875 0.227542,0.394229 0.359833,0.851958 0.359833,1.338792 0,0.47625 -0.129646,0.933979 -0.359833,1.336145 -0.08996,0.150813 -0.193146,0.293688 -0.309563,0.425979 v 0.166688 0.301625 c 0,0.246062 0.201084,0.447146 0.447146,0.447146 h 1.33879 c 0.24606,0 0.44715,-0.201084 0.44715,-0.447146 v -0.304271 c 0.6641,-0.383646 1.11389,-1.105958 1.11389,-1.928812 0.003,-1.227667 -0.99748,-2.227792 -2.227788,-2.227792 z m 1.116538,3.331104 v -2.196041 c 0.27782,0.283104 0.4498,0.669395 0.4498,1.09802 0,0.428625 -0.17198,0.814917 -0.4498,1.098021 z"
       id="path348"
       style="fill:#ffffff;stroke-width:0.264583" />
    <path
       class="st57"
       d="m 96.862503,87.570862 c 0.492125,0 0.894291,-0.399521 0.894291,-0.894291 0,-0.492125 -0.39952,-0.894292 -0.894291,-0.894292 -0.492125,0 -0.894292,0.399521 -0.894292,0.894292 0.0026,0.49477 0.402167,0.894291 0.894292,0.894291 z"
       id="path350"
       style="fill:#ffffff;stroke-width:0.264583" />
    <path
       class="st57"
       d="m 99.09294,90.251091 c 0,-0.346604 -0.07937,-0.674687 -0.22225,-0.965729 -0.01323,-0.0291 -0.02646,-0.05556 -0.04233,-0.08467 -0.105833,-0.198438 -0.243417,-0.381 -0.404813,-0.53975 -0.402166,-0.39423 -0.9525,-0.640292 -1.563687,-0.640292 -0.137583,0 -0.277812,0.01323 -0.420687,0.03704 -0.436563,0.07937 -0.836084,0.293687 -1.143,0.600604 -0.161396,0.156104 -0.29898,0.338666 -0.404813,0.53975 -0.01587,0.02646 -0.0291,0.05292 -0.03969,0.07937 -0.08996,0.179916 -0.150813,0.370416 -0.187855,0.568854 -0.08731,0.494771 -0.0079,0.968375 0.187855,1.373187 0.01323,0.02646 0.02646,0.05556 0.04233,0.08202 0.105833,0.198438 0.243417,0.378354 0.404812,0.537104 0.134938,0.129646 0.283105,0.246063 0.447146,0.338667 v 0.103187 c 0,0.0053 0.0026,0.01323 0.0026,0.02117 0,0.0079 -0.0026,0.01058 -0.0026,0.01852 v 0.164042 c 0,0.246062 0.201084,0.447145 0.447146,0.447145 h 1.338792 c 0.246062,0 0.447145,-0.201083 0.447145,-0.447145 v -0.164042 c 0,-0.0053 -0.0026,-0.01058 -0.0026,-0.01852 0,-0.0079 0.0026,-0.01323 0.0026,-0.02117 v -0.103187 c 0.164042,-0.0926 0.312209,-0.209021 0.447146,-0.338667 0.161396,-0.15875 0.296334,-0.338666 0.404813,-0.53975 0.01588,-0.02646 0.0291,-0.05556 0.04233,-0.08467 0.140229,-0.291042 0.219604,-0.619125 0.219604,-0.963084 z m -3.346979,1.095375 c -0.01323,-0.01323 -0.0291,-0.0291 -0.03969,-0.04498 -0.238125,-0.259291 -0.391584,-0.597958 -0.407459,-0.971021 0.0053,-0.02646 0.0053,-0.05292 0.0053,-0.07937 0,-0.02646 0,-0.05292 -0.0053,-0.07937 0.01587,-0.375708 0.166688,-0.711729 0.407459,-0.973666 0.01058,-0.01587 0.02646,-0.0291 0.03969,-0.04498 v 0.127 1.942041 z m 2.272771,-0.04763 c -0.01058,0.01588 -0.02381,0.03175 -0.03969,0.04763 v -0.124354 -1.942041 -0.124355 c 0.01323,0.01323 0.02911,0.02911 0.03969,0.04498 0.240771,0.261937 0.391583,0.608541 0.404812,0.992187 -0.0026,0.02117 -0.0026,0.03969 -0.0026,0.06085 0,0.02117 0,0.03969 0.0026,0.06085 -0.01058,0.375709 -0.164041,0.722313 -0.404812,0.98425 z"
       id="path352"
       style="fill:#ffffff;stroke-width:0.264583" />
  </g>
</svg>
