<?xml version="1.0" encoding="UTF-8" standalone="no"?>
<!-- Created with Inkscape (http://www.inkscape.org/) -->

<svg
   width="17.413752mm"
   height="20.244505mm"
   viewBox="0 0 17.413752 20.244505"
   version="1.1"
   id="svg2358"
   inkscape:version="1.2.1 (9c6d41e410, 2022-07-14)"
   sodipodi:docname="reg.svg"
   xmlns:inkscape="http://www.inkscape.org/namespaces/inkscape"
   xmlns:sodipodi="http://sodipodi.sourceforge.net/DTD/sodipodi-0.dtd"
   xmlns="http://www.w3.org/2000/svg"
   xmlns:svg="http://www.w3.org/2000/svg">
  <sodipodi:namedview
     id="namedview2360"
     pagecolor="#ffffff"
     bordercolor="#666666"
     borderopacity="1.0"
     inkscape:showpageshadow="2"
     inkscape:pageopacity="0.0"
     inkscape:pagecheckerboard="0"
     inkscape:deskcolor="#d1d1d1"
     inkscape:document-units="mm"
     showgrid="false"
     inkscape:zoom="2.8079686"
     inkscape:cx="78.348455"
     inkscape:cy="47.365202"
     inkscape:window-width="1920"
     inkscape:window-height="986"
     inkscape:window-x="-11"
     inkscape:window-y="-11"
     inkscape:window-maximized="1"
     inkscape:current-layer="layer1" />
  <defs
     id="defs2355" />
  <g
     inkscape:label="Layer 1"
     inkscape:groupmode="layer"
     id="layer1"
     transform="translate(-74.034852,-112.37348)">
    <path
       class="st2"
       d="m 82.707277,132.52421 c 1.060969,10e-4 2.11398,0.0318 3.161658,0.0887 1.812265,0.0976 3.393531,-1.22329 3.655148,-3.01948 l 1.887378,-13.00449 c 0.29365,-2.02369 -1.188255,-3.88826 -3.22802,-4.02583 -1.796361,-0.12403 -3.608671,-0.18722 -5.43695,-0.18958 -1.828268,-0.002 -3.640735,0.0562 -5.437411,0.17555 -2.040115,0.13495 -3.526824,1.99305 -3.238395,4.01749 l 1.853819,13.00932 c 0.256973,1.79685 1.834835,3.12181 3.647346,3.02889 1.037244,-0.0569 2.082378,-0.082 3.135427,-0.0806 z"
       id="path20"
       style="fill:#961b4a;stroke-width:0.264583" />
    <path
       class="st57"
       d="m 81.595507,124.38278 h -0.386292 c -0.105833,0 -0.193146,0.0873 -0.193146,0.19315 v 0.19314 c 0,0.10583 0.08731,0.19315 0.193146,0.19315 h 0.386292 c 0.105833,0 0.193146,-0.0873 0.193146,-0.19315 v -0.19314 c 0,-0.10848 -0.08731,-0.19315 -0.193146,-0.19315 z"
       id="path400"
       style="fill:#ffffff;stroke-width:0.264583" />
    <path
       class="st57"
       d="m 81.595507,122.83761 h -0.386292 c -0.105833,0 -0.193146,0.0873 -0.193146,0.19315 v 0.19314 c 0,0.10584 0.08731,0.19315 0.193146,0.19315 h 0.386292 c 0.105833,0 0.193146,-0.0873 0.193146,-0.19315 v -0.19314 c 0,-0.10583 -0.08731,-0.19315 -0.193146,-0.19315 z"
       id="path402"
       style="fill:#ffffff;stroke-width:0.264583" />
    <path
       class="st57"
       d="m 82.754382,120.71565 c 0.214312,0 0.386292,-0.17197 0.386292,-0.38629 0,-0.21166 -0.17198,-0.38629 -0.386292,-0.38629 -0.211667,0 -0.386292,0.17198 -0.386292,0.38629 0,0.21432 0.171979,0.38629 0.386292,0.38629 z"
       id="path404"
       style="fill:#ffffff;stroke-width:0.264583" />
    <path
       class="st57"
       d="m 84.199007,124.38278 h -1.542521 c -0.15875,0 -0.288396,0.12965 -0.288396,0.2884 0,0.15875 0.129646,0.28839 0.288396,0.28839 h 1.542521 c 0.15875,0 0.288396,-0.12964 0.288396,-0.28839 0.0026,-0.15875 -0.127,-0.2884 -0.288396,-0.2884 z"
       id="path406"
       style="fill:#ffffff;stroke-width:0.264583" />
    <path
       class="st57"
       d="m 83.524319,121.76076 c 0,-0.36248 -0.293687,-0.65881 -0.658812,-0.65881 h -0.227542 c -0.362479,0 -0.658812,0.29368 -0.658812,0.65881 v 0.30692 h 1.542521 v -0.30692 z"
       id="path408"
       style="fill:#ffffff;stroke-width:0.264583" />
    <path
       class="st57"
       d="m 85.453132,118.40055 h -0.965729 c 0,-0.21167 -0.174625,-0.38629 -0.386292,-0.38629 h -0.579437 c 0,-0.21167 -0.08731,-0.40481 -0.224896,-0.54504 -0.140229,-0.13759 -0.333375,-0.2249 -0.545042,-0.2249 -0.425979,0 -0.772583,0.34396 -0.772583,0.77258 h -0.579438 c -0.211666,0 -0.386291,0.17463 -0.386291,0.3863 H 80.05034 c -0.211666,0 -0.386291,0.18785 -0.386291,0.41539 v 7.2734 c 0,0.22754 0.174625,0.41539 0.386291,0.41539 h 5.402792 c 0.211666,0 0.386291,-0.18785 0.386291,-0.41539 v -7.2734 c 0,-0.23019 -0.171979,-0.41804 -0.386291,-0.41804 z m -2.69875,-0.38365 c 0.105833,0 0.193146,0.0873 0.193146,0.19315 0,0.10583 -0.08731,0.19315 -0.193146,0.19315 -0.105833,0 -0.193146,-0.0873 -0.193146,-0.19315 0,-0.10848 0.08467,-0.19315 0.193146,-0.19315 z m 2.315104,7.71525 h -4.630208 v -6.55902 h 0.579437 c 0,0.21167 0.174625,0.3863 0.386292,0.3863 h 2.701396 c 0.211666,0 0.386291,-0.17463 0.386291,-0.3863 h 0.579438 z"
       id="path410"
       style="fill:#ffffff;stroke-width:0.264583" />
    <path
       class="st57"
       d="m 84.199007,122.83761 h -1.542521 c -0.15875,0 -0.288396,0.12965 -0.288396,0.2884 0,0.15875 0.129646,0.28839 0.288396,0.28839 h 1.542521 c 0.15875,0 0.288396,-0.12964 0.288396,-0.28839 0,-0.15875 -0.127,-0.2884 -0.288396,-0.2884 z"
       id="path412"
       style="fill:#ffffff;stroke-width:0.264583" />
    <text
       transform="rotate(-82.102454)"
       class="st2 st58 st62"
       id="text780"
       x="-117.75076"
       y="82.828552"
       style="font-size:5.29167px;font-family:UniversLTStd-BoldCn;fill:#961b4a;stroke-width:0.264579"></text>
  </g>
</svg>
