<?xml version="1.0" encoding="UTF-8" standalone="no"?>
<!-- Created with Inkscape (http://www.inkscape.org/) -->

<svg
   width="15.932487mm"
   height="18.521345mm"
   viewBox="0 0 15.932487 18.521345"
   version="1.1"
   id="svg82882"
   inkscape:version="1.2.1 (9c6d41e410, 2022-07-14)"
   sodipodi:docname="rem.svg"
   xmlns:inkscape="http://www.inkscape.org/namespaces/inkscape"
   xmlns:sodipodi="http://sodipodi.sourceforge.net/DTD/sodipodi-0.dtd"
   xmlns="http://www.w3.org/2000/svg"
   xmlns:svg="http://www.w3.org/2000/svg">
  <sodipodi:namedview
     id="namedview82884"
     pagecolor="#ffffff"
     bordercolor="#666666"
     borderopacity="1.0"
     inkscape:showpageshadow="2"
     inkscape:pageopacity="0.0"
     inkscape:pagecheckerboard="0"
     inkscape:deskcolor="#d1d1d1"
     inkscape:document-units="mm"
     showgrid="false"
     inkscape:zoom="3.0217733"
     inkscape:cx="61.553261"
     inkscape:cy="58.243946"
     inkscape:window-width="1920"
     inkscape:window-height="986"
     inkscape:window-x="-11"
     inkscape:window-y="-11"
     inkscape:window-maximized="1"
     inkscape:current-layer="layer1" />
  <defs
     id="defs82879" />
  <g
     inkscape:label="Layer 1"
     inkscape:groupmode="layer"
     id="layer1"
     transform="translate(-95.353328,-100.26665)">
    <path
       class="st75"
       d="m 100.43453,118.78022 c 1.27,-0.10055 3.83116,-0.0979 5.71764,0.003 1.66952,0.09 3.13267,-1.10331 3.37344,-2.75696 l 1.73302,-11.89566 c 0.23548,-1.90765 -1.08479,-3.55865 -2.95275,-3.6883 -2.14312,-0.23018 -6.60135,-0.23547 -9.956269,-0.008 -1.867959,0.127 -3.227917,1.82562 -2.963334,3.67771 l 1.68275,11.87185 c 0.185209,1.63248 1.693334,2.88396 3.365503,2.79665 z"
       id="path1108"
       style="fill:#562061;stroke-width:0.264583" />
    <path
       class="st57"
       d="m 103.73917,107.39519 c 0.082,0.082 0.082,0.21432 0,0.29634 l -1.29381,1.29381 c -0.082,0.082 -0.21431,0.082 -0.29633,0.003 -0.082,-0.0847 -0.0794,-0.21696 0,-0.29898 l 1.29381,-1.29382 c 0.082,-0.082 0.21431,-0.082 0.29633,0 z m 0.61384,3.79413 c 0.082,0.082 0.21431,0.082 0.29633,0 l 1.29381,-1.29381 c 0.082,-0.082 0.082,-0.21432 0,-0.29634 -0.0794,-0.082 -0.21431,-0.082 -0.29633,0 l -1.29381,1.29382 c -0.082,0.082 -0.082,0.21431 0,0.29633 z m 3.10356,-3.74915 v 6.18067 h -6.72042 v -0.10054 l -0.59531,0.63764 -0.960438,-0.96308 1.555748,-1.45521 v -6.84212 h 4.27302 z m -2.33363,-0.20637 h 1.15359 l -1.15359,-1.19856 z m 1.62719,0.52917 h -2.159 v -2.159 h -3.14589 v 5.47422 l 1.57956,-1.47902 -0.47361,-0.4736 1.32821,-1.33085 1.66423,1.66422 -1.32821,1.33086 -0.47625,-0.47625 -2.29393,2.45269 v 0.14816 h 5.30489 z"
       id="path1116"
       style="fill:#ffffff;stroke-width:0.264583" />
  </g>
</svg>
