<?xml version="1.0" encoding="UTF-8" standalone="no"?>
<!-- Created with Inkscape (http://www.inkscape.org/) -->

<svg
   width="17.770664mm"
   height="17.770664mm"
   viewBox="0 0 17.770664 17.770664"
   version="1.1"
   id="svg24393"
   inkscape:version="1.2.1 (9c6d41e410, 2022-07-14)"
   sodipodi:docname="rsk.svg"
   xmlns:inkscape="http://www.inkscape.org/namespaces/inkscape"
   xmlns:sodipodi="http://sodipodi.sourceforge.net/DTD/sodipodi-0.dtd"
   xmlns="http://www.w3.org/2000/svg"
   xmlns:svg="http://www.w3.org/2000/svg">
  <sodipodi:namedview
     id="namedview24395"
     pagecolor="#ffffff"
     bordercolor="#666666"
     borderopacity="1.0"
     inkscape:showpageshadow="2"
     inkscape:pageopacity="0.0"
     inkscape:pagecheckerboard="0"
     inkscape:deskcolor="#d1d1d1"
     inkscape:document-units="mm"
     showgrid="false"
     inkscape:zoom="3.9710672"
     inkscape:cx="11.835609"
     inkscape:cy="34.499542"
     inkscape:window-width="1920"
     inkscape:window-height="986"
     inkscape:window-x="-11"
     inkscape:window-y="-11"
     inkscape:window-maximized="1"
     inkscape:current-layer="layer1" />
  <defs
     id="defs24390" />
  <g
     inkscape:label="Layer 1"
     inkscape:groupmode="layer"
     id="layer1"
     transform="translate(-134.33802,-126.42304)">
    <path
       class="st89"
       d="m 134.71303,135.30705 c 0,4.70165 3.81,8.51165 8.509,8.51165 4.70165,0 8.51165,-3.81 8.51165,-8.51165 0,-4.699 -3.81,-8.509 -8.51165,-8.509 -4.699,0 -8.509,3.81 -8.509,8.509 z"
       id="path1218"
       style="fill:#e7f1ea;stroke-width:0.264583" />
    <path
       class="st90"
       d="m 134.71303,135.30705 c 0,4.70165 3.81,8.51165 8.509,8.51165 4.70165,0 8.51165,-3.81 8.51165,-8.51165 0,-4.699 -3.81,-8.509 -8.51165,-8.509 -4.699,0 -8.509,3.81 -8.509,8.509 z"
       id="path1220"
       style="fill:none;stroke:#13733b;stroke-width:0.750014;stroke-miterlimit:10" />
    <path
       class="st88"
       d="m 144.6693,139.73353 v 0 -0.008 -0.0794 -2.06111 c 0,-0.045 0.0185,-0.09 0.0529,-0.12171 l 1.58485,-1.57691 c 0.0503,-0.0529 0.11642,-0.09 0.18786,-0.10584 0.0661,-0.0132 0.13229,-0.0132 0.19843,0.005 0.0609,0.0159 0.11642,0.0476 0.16404,0.0899 0.15346,0.14817 0.15611,0.3863 0.008,0.53711 l -0.6985,0.69321 c -0.0265,0.0264 -0.0265,0.0714 0.003,0.10054 0.0265,0.0238 0.0688,0.0238 0.0952,-0.003 l 0.70114,-0.69585 c 0.20373,-0.20373 0.19844,-0.52917 -0.0106,-0.72761 -0.0423,-0.0423 -0.0926,-0.0741 -0.14817,-0.0953 -0.0635,-0.0264 -0.11112,-0.0873 -0.11112,-0.15875 v -1.43139 c 0,-0.21167 0.17727,-0.38365 0.39423,-0.38365 0.2196,0 0.39423,0.17198 0.39423,0.38365 v 2.6961 c 0,0.0873 -0.0344,0.16669 -0.09,0.23284 l -1.33086,1.7092 c -0.0238,0.0291 -0.037,0.0662 -0.037,0.10584 v 0.8255 0 0.0688 c 0,0.11377 -0.0926,0.20373 -0.20637,0.20373 H 144.876 c -0.11378,0 -0.20638,-0.09 -0.20638,-0.20373 z"
       id="path1222"
       style="fill:#13733b;stroke-width:0.264583" />
    <path
       class="st88"
       d="m 141.77476,139.73353 v 0 -0.008 -0.0794 -2.06111 c 0,-0.045 -0.0185,-0.09 -0.0503,-0.12171 l -1.5875,-1.57691 c -0.0503,-0.0529 -0.11642,-0.09 -0.18786,-0.10584 -0.0661,-0.0132 -0.13229,-0.0132 -0.19843,0.005 -0.0609,0.0159 -0.11642,0.0476 -0.16405,0.0899 -0.15345,0.14817 -0.1561,0.3863 -0.008,0.53711 l 0.6985,0.69321 c 0.0265,0.0264 0.0265,0.0714 -0.003,0.10054 -0.0265,0.0238 -0.0688,0.0238 -0.0953,-0.003 l -0.70114,-0.69585 c -0.20373,-0.20373 -0.19844,-0.52917 0.0106,-0.72761 0.045,-0.0423 0.0952,-0.0741 0.14817,-0.0953 0.0661,-0.0264 0.11112,-0.0873 0.11112,-0.15875 v -1.43139 c 0,-0.21167 -0.17727,-0.38365 -0.39423,-0.38365 -0.21696,0 -0.39423,0.17198 -0.39423,0.38365 v 2.6961 c 0,0.0873 0.0344,0.16669 0.09,0.23284 l 1.3335,1.7092 c 0.0238,0.0291 0.037,0.0662 0.037,0.10584 v 0.8255 0 0.0688 c 0,0.11377 0.09,0.20373 0.20373,0.20373 h 0.94456 c 0.11377,0 0.20638,-0.09 0.20638,-0.20373 z"
       id="path1224"
       style="fill:#13733b;stroke-width:0.264583" />
    <path
       class="st88"
       d="m 145.87315,133.03692 0.0106,-0.008 c 0.003,0.0132 0.005,0.0291 0.0106,0.045 z m -3.49779,-0.70643 0.0265,-0.0238 0.0397,0.0238 -0.0317,0.0291 z m 0.0794,0.0741 v 0.0529 h -0.0847 l -0.0238,-0.0344 v -0.0503 h 0.005 z m -0.36777,-0.09 h 0.09 l -0.11642,0.1614 -0.0476,-0.0265 0.0106,-0.0661 z m 0.21431,0.10848 v 0.0529 l -0.037,0.0397 h -0.0873 l 0.0132,-0.0609 0.0423,-0.003 0.008,-0.0212 z m -0.0238,-0.12964 v -0.0661 l 0.0556,0.0503 z m 0.045,0.0212 v 0.0529 l -0.0397,0.0265 -0.0529,0.0106 v -0.09 z m -0.0741,-0.0794 v 0.0582 h -0.16404 l -0.0608,-0.0185 0.0159,-0.0397 0.0767,-0.0318 h 0.10848 v 0.0318 z m -0.381,-0.20373 0.0714,-0.0344 0.0662,0.0159 -0.0238,0.0873 -0.0688,0.0212 z m 3.96346,0.86783 h -0.2196 l -0.13229,-0.0979 -0.14023,0.0132 v 0.0847 h -0.045 l -0.0476,-0.0317 -0.24077,-0.0635 v -0.1561 l -0.30692,0.0238 -0.0952,0.0529 h -0.1217 l -0.0609,-0.008 -0.14816,0.082 v 0.1561 l -0.30163,0.21696 0.0265,0.0926 h 0.0608 l -0.0159,0.09 -0.0423,0.0159 -0.003,0.23019 0.25929,0.29898 h 0.11377 l 0.008,-0.0185 h 0.20373 l 0.0582,-0.0556 h 0.11641 l 0.0635,0.0635 0.17463,0.0185 -0.0238,0.23019 0.19314,0.33867 -0.10319,0.19314 0.008,0.09 0.0794,0.0794 v 0.2196 l 0.10318,0.14023 v 0.18256 h 0.0926 c -0.50271,0.61384 -1.26736,1.01071 -2.12196,1.01071 -1.50813,0 -2.73315,-1.22767 -2.73315,-2.73579 0,-0.37835 0.0767,-0.74083 0.21696,-1.06892 v -0.0847 l 0.0979,-0.11907 c 0.0344,-0.0635 0.0714,-0.127 0.10848,-0.18785 l 0.005,0.0503 -0.11377,0.13758 c -0.0344,0.0661 -0.0688,0.13494 -0.0979,0.20373 v 0.15611 l 0.11377,0.0529 v 0.21696 l 0.10848,0.18521 0.09,0.0159 0.0106,-0.0635 -0.10318,-0.1614 -0.0212,-0.15875 h 0.0608 l 0.0265,0.1614 0.15081,0.22225 -0.0397,0.0688 0.0952,0.14816 0.24077,0.0582 v -0.037 l 0.0952,0.0132 -0.0106,0.0688 0.0767,0.0132 0.11377,0.0317 0.16405,0.18521 0.20902,0.0159 0.0212,0.17198 -0.14287,0.0979 -0.005,0.15346 -0.0212,0.0926 0.20638,0.25929 0.0159,0.0873 c 0,0 0.0741,0.0212 0.0847,0.0212 0.008,0 0.16668,0.12171 0.16668,0.12171 v 0.46831 l 0.0582,0.0159 -0.0397,0.21431 0.0953,0.127 -0.0185,0.21431 0.127,0.22225 0.1614,0.14023 0.16404,0.003 0.0159,-0.0503 -0.11907,-0.10054 0.005,-0.0503 0.0212,-0.0635 0.005,-0.0609 -0.082,-0.003 -0.0397,-0.0503 0.0661,-0.0661 0.0106,-0.0476 -0.0767,-0.0212 0.005,-0.045 0.10583,-0.0185 0.16404,-0.0767 0.0556,-0.10054 0.16933,-0.21696 -0.0397,-0.17198 0.0529,-0.09 0.1561,0.005 0.10584,-0.0847 0.0344,-0.32808 0.11642,-0.14817 0.0212,-0.0953 -0.10583,-0.037 -0.0714,-0.11377 -0.24077,-0.003 -0.1905,-0.0714 -0.008,-0.13758 -0.0661,-0.11113 -0.17198,-0.003 -0.10054,-0.1561 -0.0873,-0.045 -0.005,0.0476 -0.16139,0.0106 -0.0582,-0.082 -0.16933,-0.0344 -0.13759,0.1614 -0.21695,-0.037 -0.0159,-0.24607 -0.1614,-0.0291 0.0661,-0.11906 -0.0185,-0.0688 -0.20902,0.14023 -0.13229,-0.0159 -0.0476,-0.10319 0.0291,-0.10583 0.0741,-0.13494 0.16669,-0.0847 h 0.32279 l -0.003,0.0979 0.11642,0.0556 -0.0106,-0.16933 0.0847,-0.0847 0.16934,-0.11112 0.0106,-0.0767 0.16933,-0.17463 0.17727,-0.0979 -0.0159,-0.0132 0.12171,-0.11377 0.045,0.0106 0.0185,0.0265 0.0476,-0.0529 0.0106,-0.005 -0.0503,-0.005 -0.0503,-0.0185 v -0.0476 l 0.0265,-0.0238 h 0.0582 l 0.0291,0.0132 0.0238,0.0476 0.0291,-0.005 v -0.003 l 0.008,0.003 0.0847,-0.0132 0.0106,-0.0423 0.0476,0.0132 v 0.045 l -0.0423,0.0291 0.005,0.0503 0.15081,0.045 v 0.003 l 0.037,-0.003 v -0.0661 l -0.11907,-0.0529 -0.008,-0.0344 0.10054,-0.0318 0.005,-0.0979 -0.10583,-0.0635 -0.005,-0.15875 -0.14287,0.0688 h -0.0529 l 0.0132,-0.12171 -0.19579,-0.0476 -0.0794,0.0608 v 0.18786 l -0.14553,0.045 -0.0582,0.1217 -0.0635,0.0106 v -0.15611 l -0.13494,-0.0185 -0.0688,-0.045 -0.0265,-0.10054 0.24342,-0.14287 0.11906,-0.037 0.0132,0.082 0.0661,-0.003 0.005,-0.0423 0.0688,-0.008 v -0.0159 l -0.0291,-0.0132 -0.008,-0.0423 0.0873,-0.005 0.0503,-0.0556 0.003,-0.003 h 0.003 l 0.0132,-0.0159 0.17992,-0.0238 0.0794,0.0688 -0.20637,0.11112 0.26458,0.0609 0.0344,-0.0873 h 0.11378 l 0.0423,-0.0767 -0.082,-0.0212 v -0.0979 l -0.25665,-0.11377 -0.17727,0.0212 -0.10054,0.0529 0.008,0.127 -0.10584,-0.0159 -0.0159,-0.0714 0.10054,-0.09 -0.18256,-0.0106 -0.0503,0.0159 -0.0238,0.0609 0.0688,0.0132 -0.0132,0.0661 -0.11642,0.008 -0.0185,0.045 -0.16933,0.005 c 0,0 -0.003,-0.0952 -0.0106,-0.0952 -0.005,0 0.13229,-0.003 0.13229,-0.003 l 0.10055,-0.0979 -0.0556,-0.0265 -0.0714,0.0714 -0.12171,-0.008 -0.0714,-0.10054 h -0.1561 l -0.1614,0.12171 h 0.14817 l 0.0132,0.0423 -0.037,0.0344 0.16405,0.005 0.0238,0.0608 -0.18521,-0.008 -0.008,-0.045 -0.11641,-0.0265 -0.0609,-0.0344 -0.13758,0.003 c 0.45244,-0.32808 1.00542,-0.52388 1.60602,-0.52388 0.69056,0 1.32292,0.2593 1.80446,0.68263 l -0.0317,0.0582 -0.127,0.0503 -0.0529,0.0582 0.0132,0.0661 0.0635,0.0106 0.0397,0.0979 0.11377,-0.0476 0.0185,0.13229 h -0.0344 l -0.0926,-0.0132 -0.10054,0.0159 -0.10054,0.14023 -0.14023,0.0238 -0.0212,0.11906 0.0608,0.0159 -0.0185,0.0767 -0.14023,-0.0291 -0.12964,0.0291 -0.0265,0.0714 0.0212,0.15081 0.0767,0.0344 h 0.127 l 0.0847,-0.008 0.0265,-0.0688 0.13494,-0.17198 0.0873,0.0185 0.0873,-0.0794 0.0159,0.0608 0.21431,0.14287 -0.0265,0.0371 -0.0979,-0.005 0.037,0.0503 0.0609,0.0132 0.0688,-0.0265 v -0.0847 l 0.0291,-0.0159 -0.0238,-0.0265 -0.14288,-0.0794 -0.037,-0.10583 h 0.11642 l 0.0397,0.037 0.10055,0.09 0.005,0.10583 0.10583,0.11113 0.0397,-0.15346 0.0714,-0.0397 0.0132,0.127 0.0741,0.0767 0.14023,-0.003 c 0.0291,0.0714 0.0529,0.14288 0.0741,0.21696 z m -4.11956,-1.18269 c 0,0 0.0582,-0.008 0.0635,-0.008 0.005,0 0,0.0582 0,0.0582 l -0.13229,0.008 -0.0265,-0.0291 z m -0.0953,-0.13229 v -0.005 h 0.0609 l 0.003,-0.0185 h 0.0979 v 0.0423 l -0.0265,0.037 h -0.13494 z m 3.59304,0.33073 v -0.13229 c 0.0476,0.0503 0.0926,0.10054 0.13494,0.15346 l -0.0529,0.0794 h -0.18785 l -0.0106,-0.0397 z m 0.43127,0.52123 0.0185,-0.0212 c 0.0212,0.045 0.0423,0.09 0.0635,0.13494 h -0.0291 l -0.0529,0.005 z m 0.56092,1.19063 c 0,-0.0873 -0.005,-0.17463 -0.0132,-0.2593 -0.0291,-0.2831 -0.0952,-0.55562 -0.19844,-0.81227 -0.008,-0.0185 -0.0132,-0.037 -0.0212,-0.0556 -0.13493,-0.32015 -0.32808,-0.61119 -0.56091,-0.86519 -0.0132,-0.0159 -0.0291,-0.0317 -0.045,-0.0476 -0.045,-0.045 -0.09,-0.09 -0.13758,-0.13229 -0.52917,-0.48155 -1.23296,-0.77788 -2.0029,-0.77788 -0.77788,0 -1.48696,0.30163 -2.01613,0.79111 -0.12435,0.11377 -0.23812,0.23812 -0.34131,0.37041 -0.38894,0.50271 -0.62177,1.13506 -0.62177,1.81769 0,1.64306 1.33615,2.97921 2.97921,2.97921 1.15623,0 2.159,-0.66146 2.65377,-1.62454 0.10583,-0.20638 0.18785,-0.42598 0.24342,-0.65617 0.0132,-0.0582 0.0265,-0.11642 0.037,-0.17727 0.0291,-0.16933 0.045,-0.34396 0.045,-0.52123 0,-0.0106 0,-0.0185 0,-0.0291"
       id="path1226"
       style="fill:#13733b;stroke-width:0.264583" />
  </g>
</svg>
