<?xml version="1.0" encoding="UTF-8" standalone="no"?>
<!-- Created with Inkscape (http://www.inkscape.org/) -->

<svg
   width="15.932408mm"
   height="18.521284mm"
   viewBox="0 0 15.932408 18.521284"
   version="1.1"
   id="svg73070"
   inkscape:version="1.2.1 (9c6d41e410, 2022-07-14)"
   sodipodi:docname="spe.svg"
   xmlns:inkscape="http://www.inkscape.org/namespaces/inkscape"
   xmlns:sodipodi="http://sodipodi.sourceforge.net/DTD/sodipodi-0.dtd"
   xmlns="http://www.w3.org/2000/svg"
   xmlns:svg="http://www.w3.org/2000/svg">
  <sodipodi:namedview
     id="namedview73072"
     pagecolor="#ffffff"
     bordercolor="#666666"
     borderopacity="1.0"
     inkscape:showpageshadow="2"
     inkscape:pageopacity="0.0"
     inkscape:pagecheckerboard="0"
     inkscape:deskcolor="#d1d1d1"
     inkscape:document-units="mm"
     showgrid="false"
     inkscape:zoom="4.2734328"
     inkscape:cx="4.4460744"
     inkscape:cy="50.77885"
     inkscape:window-width="1920"
     inkscape:window-height="986"
     inkscape:window-x="-11"
     inkscape:window-y="-11"
     inkscape:window-maximized="1"
     inkscape:current-layer="layer1" />
  <defs
     id="defs73067" />
  <g
     inkscape:label="Layer 1"
     inkscape:groupmode="layer"
     id="layer1"
     transform="translate(-33.361625,-53.081318)">
    <path
       class="st75"
       d="m 38.442216,71.595237 c 1.27,-0.100542 3.831166,-0.0979 5.717646,0.0026 1.66952,0.08996 3.132666,-1.103313 3.373437,-2.756958 L 49.26632,56.945258 c 0.238125,-1.907646 -1.084792,-3.558646 -2.950104,-3.688291 -2.143125,-0.230188 -6.601354,-0.23548 -9.958917,-0.0079 -1.865312,0.127 -3.225271,1.825625 -2.963333,3.677708 l 1.685396,11.871854 c 0.182562,1.632479 1.688041,2.883959 3.362854,2.796646 z"
       id="path964"
       style="fill:#562061;stroke-width:0.264583" />
    <path
       class="st57"
       d="m 41.70982,64.943612 c 0.01588,-0.01588 0.05027,-0.0079 0.07937,-0.01323 0.203729,-0.0291 0.404812,-0.01588 0.608542,-0.0026 0.423333,0.03175 0.851958,0.02646 1.275291,0.07673 0.103188,0.01323 0.209021,0.0344 0.312209,0.01058 0.254,-0.06085 0.365125,-0.254 0.4445,-0.47625 0.03439,-0.0926 0.01852,-0.179917 -0.02911,-0.267229 -0.0926,-0.164042 -0.24077,-0.251355 -0.41275,-0.306917 -0.436562,-0.137583 -0.886354,-0.211667 -1.344083,-0.238125 -0.370417,-0.02117 -0.722312,-0.07937 -1.053042,-0.269875 -0.298979,-0.171979 -0.627062,-0.28575 -0.97102,-0.343958 -0.804334,-0.137584 -1.582209,0.01323 -2.352146,0.232833 -0.09525,0.02646 -0.140229,0.09525 -0.140229,0.193146 0,0.116416 0,0.235479 0,0.351896 0,0.486833 0,0.973666 0,1.463145 0,0.14023 0.06879,0.232834 0.1905,0.240771 0.301625,0.01587 0.574145,0.119063 0.84402,0.246063 0.664105,0.309562 1.31498,0.642937 1.987021,0.933979 0.264584,0.113771 0.529167,0.224896 0.8255,0.187854 0.177271,-0.02117 0.354542,-0.03704 0.531813,-0.0635 0.463021,-0.06879 0.926041,-0.148167 1.389062,-0.211667 0.277813,-0.03704 0.547688,-0.07673 0.785813,-0.24077 0.280458,-0.195792 0.566208,-0.381 0.849312,-0.574146 0.127,-0.08731 0.246063,-0.185209 0.357188,-0.291042 0.08731,-0.08202 0.145521,-0.182562 0.161396,-0.304271 0.0079,-0.06615 -0.0026,-0.132291 -0.07144,-0.153458 -0.0979,-0.0291 -0.07673,-0.06085 -0.02117,-0.119063 0.153459,-0.166687 0.119063,-0.354541 -0.08202,-0.460375 -0.103188,-0.05556 -0.214313,-0.07673 -0.33073,-0.06614 -0.309562,0.02381 -0.563562,0.169333 -0.783166,0.375708 -0.198438,0.185208 -0.425979,0.298979 -0.687917,0.357187 -0.206375,0.04498 -0.415396,0.05821 -0.621771,0.08467 -0.621771,0.07937 -1.203854,-0.03969 -1.740958,-0.351896"
       id="path1236"
       style="fill:#ffffff;stroke-width:0.264583" />
    <path
       class="st57"
       d="m 37.860132,64.467362 v 0 c 0,-0.447146 0,-0.894291 0,-1.341437 0,-0.161396 -0.06879,-0.227542 -0.230187,-0.227542 -0.203729,0 -0.407458,0 -0.611187,0 -0.145521,0 -0.219605,0.07144 -0.219605,0.214313 0,0.899583 0,1.801812 0,2.701395 0,0.148167 0.06615,0.216959 0.214313,0.216959 0.206375,0.0026 0.41275,0 0.619125,0 0.166687,0 0.227541,-0.0635 0.227541,-0.230188 0,-0.4445 0,-0.889 0,-1.3335"
       id="path1238"
       style="fill:#ffffff;stroke-width:0.264583" />
    <path
       class="st57"
       d="m 45.90082,59.815987 c -0.513292,-1.479021 -1.949979,-2.325687 -3.489854,-2.053166 -1.468438,0.259291 -2.563813,1.613958 -2.510896,3.106208 0.02646,0.732896 0.275167,1.378479 0.748771,1.93675 0.03704,0.04498 0.07938,0.07144 0.137583,0.08202 0.309563,0.06085 0.608542,0.164041 0.881063,0.320146 0.312208,0.17727 0.648229,0.243416 1.000125,0.264583 0.436562,0.02381 0.865187,0.0926 1.283229,0.209021 0.03969,0.01058 0.07144,0.0053 0.105833,-0.0079 1.537229,-0.552979 2.378604,-2.315104 1.844146,-3.857625 z m -2.921,3.407834 c -1.391708,0 -2.524125,-1.132417 -2.524125,-2.524125 0,-1.391709 1.132417,-2.524125 2.524125,-2.524125 1.391708,0 2.524125,1.132416 2.524125,2.524125 0,1.391708 -1.132417,2.524125 -2.524125,2.524125 z"
       id="path1240"
       style="fill:#ffffff;stroke-width:0.264583" />
    <path
       class="st57"
       d="m 42.97982,58.374008 c -1.283229,0 -2.325688,1.042458 -2.325688,2.325688 0,1.283229 1.042459,2.325687 2.325688,2.325687 1.280583,0 2.325687,-1.042458 2.325687,-2.325687 0,-1.28323 -1.045104,-2.325688 -2.325687,-2.325688 z m 1.262062,2.860146 h -2.524125 c -0.100541,0 -0.182562,-0.08202 -0.182562,-0.182563 0,-0.100541 0.08202,-0.182562 0.182562,-0.182562 h 2.524125 c 0.100542,0 0.182563,0.08202 0.182563,0.182562 0,0.100542 -0.08202,0.182563 -0.182563,0.182563 z m 0,-0.706438 h -2.524125 c -0.100541,0 -0.182562,-0.08202 -0.182562,-0.182562 0,-0.100542 0.08202,-0.182563 0.182562,-0.182563 h 2.524125 c 0.100542,0 0.182563,0.08202 0.182563,0.182563 0,0.100542 -0.08202,0.182562 -0.182563,0.182562 z"
       id="path1242"
       style="fill:#ffffff;stroke-width:0.264583" />
  </g>
</svg>
