<?xml version="1.0" encoding="UTF-8" standalone="no"?>
<!-- Created with Inkscape (http://www.inkscape.org/) -->

<svg
   width="17.415485mm"
   height="20.239882mm"
   viewBox="0 0 17.415485 20.239882"
   version="1.1"
   id="svg2154"
   inkscape:version="1.2.1 (9c6d41e410, 2022-07-14)"
   sodipodi:docname="sps.svg"
   xmlns:inkscape="http://www.inkscape.org/namespaces/inkscape"
   xmlns:sodipodi="http://sodipodi.sourceforge.net/DTD/sodipodi-0.dtd"
   xmlns="http://www.w3.org/2000/svg"
   xmlns:svg="http://www.w3.org/2000/svg">
  <sodipodi:namedview
     id="namedview2156"
     pagecolor="#ffffff"
     bordercolor="#666666"
     borderopacity="1.0"
     inkscape:showpageshadow="2"
     inkscape:pageopacity="0.0"
     inkscape:pagecheckerboard="0"
     inkscape:deskcolor="#d1d1d1"
     inkscape:document-units="mm"
     showgrid="false"
     inkscape:zoom="5.6159371"
     inkscape:cx="33.476158"
     inkscape:cy="37.927775"
     inkscape:window-width="1920"
     inkscape:window-height="986"
     inkscape:window-x="-11"
     inkscape:window-y="-11"
     inkscape:window-maximized="1"
     inkscape:current-layer="layer1" />
  <defs
     id="defs2151" />
  <g
     inkscape:label="Layer 1"
     inkscape:groupmode="layer"
     id="layer1"
     transform="translate(-35.849688,-129.39235)">
    <path
       class="st3"
       d="m 41.43345,149.6268 c 2.084006,-0.10964 4.176406,-0.11007 6.269879,3.1e-4 1.810676,0.0952 3.388273,-1.22742 3.649584,-3.02246 l 1.875539,-13.00415 c 0.292064,-2.02378 -1.19229,-3.88791 -3.234092,-4.02482 -3.631802,-0.24744 -7.268306,-0.24307 -10.878818,0.005 -2.037281,0.13971 -3.519517,1.99873 -3.229582,4.02254 l 1.863015,13.00251 c 0.259331,1.81222 1.857849,3.11744 3.684475,3.02154 z"
       id="path24"
       style="fill:#00aeef;stroke-width:0.264583" />
    <path
       class="st57"
       d="m 45.338482,140.34071 1.383771,-1.37055 c 0.148167,-0.15081 0.388937,-0.15081 0.537104,0 0.148167,0.15082 0.148167,0.39423 0,0.54505 l -0.690562,0.6641 c -0.08731,0.0873 -0.08731,0.23019 0,0.3175 0.08731,0.0873 0.224895,0.0873 0.312208,0 l 0.854604,-0.91281 v -2.91042 c 0,-0.30162 0.248708,-0.54504 0.545042,-0.54504 0.296333,0 0.545041,0.24342 0.545041,0.54504 v 3.16442 c 0,0.14552 -0.05556,0.2831 -0.156104,0.38629 l -2.026708,2.08756 v 1.63777 h -1.637771 v -2.72785 c 0.0026,-0.36248 0.09525,-0.63765 0.333375,-0.88106 z"
       id="path394"
       style="fill:#ffffff;stroke-width:0.264583" />
    <path
       class="st57"
       d="m 43.581649,140.34071 -1.383771,-1.37055 c -0.148167,-0.15081 -0.388938,-0.15081 -0.537104,0 -0.148167,0.15082 -0.148167,0.39423 0,0.54505 l 0.690562,0.6641 c 0.08731,0.0873 0.08731,0.23019 0,0.3175 -0.08731,0.0873 -0.224896,0.0873 -0.312208,0 L 41.184524,139.584 v -2.91042 c 0,-0.30162 -0.248709,-0.54504 -0.545042,-0.54504 -0.296333,0 -0.545042,0.24342 -0.545042,0.54504 v 3.16442 c 0,0.14552 0.05556,0.2831 0.15875,0.38629 l 2.024063,2.08756 v 1.63777 h 1.637771 v -2.72785 c 0,-0.36248 -0.09525,-0.63765 -0.333375,-0.88106 z"
       id="path396"
       style="fill:#ffffff;stroke-width:0.264583" />
  </g>
</svg>
