<?xml version="1.0" encoding="UTF-8" standalone="no"?>
<!-- Created with Inkscape (http://www.inkscape.org/) -->

<svg
   width="17.418835mm"
   height="20.248175mm"
   viewBox="0 0 17.418835 20.248175"
   version="1.1"
   id="svg25751"
   inkscape:version="1.2.1 (9c6d41e410, 2022-07-14)"
   sodipodi:docname="vio.svg"
   xmlns:inkscape="http://www.inkscape.org/namespaces/inkscape"
   xmlns:sodipodi="http://sodipodi.sourceforge.net/DTD/sodipodi-0.dtd"
   xmlns="http://www.w3.org/2000/svg"
   xmlns:svg="http://www.w3.org/2000/svg">
  <sodipodi:namedview
     id="namedview25753"
     pagecolor="#ffffff"
     bordercolor="#666666"
     borderopacity="1.0"
     inkscape:showpageshadow="2"
     inkscape:pageopacity="0.0"
     inkscape:pagecheckerboard="0"
     inkscape:deskcolor="#d1d1d1"
     inkscape:document-units="mm"
     showgrid="false"
     inkscape:zoom="4.2734328"
     inkscape:cx="72.541214"
     inkscape:cy="40.716681"
     inkscape:window-width="1920"
     inkscape:window-height="986"
     inkscape:window-x="-11"
     inkscape:window-y="-11"
     inkscape:window-maximized="1"
     inkscape:current-layer="layer1" />
  <defs
     id="defs25748" />
  <g
     inkscape:label="Layer 1"
     inkscape:groupmode="layer"
     id="layer1"
     transform="translate(-60.633743,-103.30151)">
    <text
       transform="rotate(-61.815276)"
       class="st0 st58 st59"
       id="text444"
       x="-27.24021"
       y="182.16283"
       style="font-size:5.29148px;font-family:UniversLTStd-BoldCn;fill:#2c5996;stroke-width:0.264575"></text>
    <text
       transform="rotate(-60.397246)"
       class="st0 st58 st60"
       id="text446"
       x="-21.550123"
       y="182.75011"
       style="font-size:5.29185px;font-family:UniversLTStd-BoldCn;fill:#2c5996;stroke-width:0.264591"></text>
    <text
       transform="rotate(-59.693657)"
       class="st0 st58 st61"
       id="text448"
       x="-18.131277"
       y="182.9857"
       style="font-size:5.29143px;font-family:UniversLTStd-BoldCn;fill:#2c5996;stroke-width:0.264571"></text>
    <text
       transform="rotate(-58.277638)"
       class="st0 st58 st62"
       id="text450"
       x="-12.429846"
       y="183.35207"
       style="font-size:5.29167px;font-family:UniversLTStd-BoldCn;fill:#2c5996;stroke-width:0.264582"></text>
    <text
       transform="rotate(-56.870921)"
       class="st0 st58 st63"
       id="text452"
       x="-6.7516565"
       y="183.57088"
       style="font-size:5.2914px;font-family:UniversLTStd-BoldCn;fill:#2c5996;stroke-width:0.26457"></text>
    <text
       transform="rotate(-55.458132)"
       class="st0 st58 st62"
       id="text454"
       x="-1.0481417"
       y="183.65172"
       style="font-size:5.29167px;font-family:UniversLTStd-BoldCn;fill:#2c5996;stroke-width:0.264579"></text>
    <text
       transform="rotate(-54.056033)"
       class="st0 st58 st62"
       id="text456"
       x="4.6234794"
       y="183.58859"
       style="font-size:5.29167px;font-family:UniversLTStd-BoldCn;fill:#2c5996;stroke-width:0.264586"></text>
    <text
       transform="rotate(-53.351268)"
       class="st0 st58 st62"
       id="text458"
       x="8.0521364"
       y="183.50439"
       style="font-size:5.29167px;font-family:UniversLTStd-BoldCn;fill:#2c5996;stroke-width:0.26458"></text>
    <text
       transform="rotate(-51.953153)"
       class="st0 st58 st62"
       id="text460"
       x="13.705676"
       y="183.22906"
       style="font-size:5.29167px;font-family:UniversLTStd-BoldCn;fill:#2c5996;stroke-width:0.264581"></text>
    <path
       class="st1"
       d="m 66.170129,123.53406 c 2.09902,-0.10712 4.18627,-0.1033 6.2559,0.0103 1.82571,0.0993 3.4254,-1.20173 3.68975,-3.00938 l 1.89918,-13.00669 c 0.29522,-2.02332 -1.18155,-3.88598 -3.22156,-4.03029 -3.59317,-0.25405 -7.23088,-0.26366 -10.88506,-0.0177 -2.03818,0.13625 -3.52525,1.99418 -3.23935,4.01633 l 1.83907,12.99251 c 0.25826,1.80424 1.84318,3.13934 3.66207,3.04492 z"
       id="path8"
       style="fill:#4aa4b6;stroke-width:0.264583" />
    <path
       class="st57"
       d="m 73.585039,114.19802 h -0.17198 c -0.21167,0 -0.38629,0.17198 -0.38629,0.38629 v 1.87854 l -0.87048,-0.97896 c -0.082,-0.0926 -0.20373,-0.14022 -0.33073,-0.127 -0.12436,0.0132 -0.23548,0.0873 -0.29634,0.1958 l -0.96308,1.73566 c -0.10319,0.18521 -0.037,0.42069 0.15081,0.52388 0.0582,0.0318 0.12436,0.0476 0.18786,0.0476 0.13494,0 0.26723,-0.0714 0.33866,-0.19843 l 0.70115,-1.25942 1.18269,1.32821 c 0.003,0.003 0.005,0.005 0.008,0.008 0.008,0.0106 0.0185,0.0185 0.0291,0.0265 0.0106,0.008 0.0185,0.0159 0.0291,0.0238 0.0106,0.008 0.0212,0.0132 0.0318,0.0185 0.0106,0.005 0.0212,0.0132 0.0317,0.0185 0.0106,0.005 0.0238,0.008 0.0344,0.0132 0.0132,0.003 0.0238,0.008 0.037,0.0106 0.0106,0.003 0.0238,0.005 0.0344,0.005 0.0132,0.003 0.0265,0.003 0.0397,0.003 0.003,0 0.008,0.003 0.0106,0.003 h 0.96573 c 0.21431,0 0.38629,-0.17198 0.38629,-0.38629 v -2.10344 c -0.003,-0.64558 -0.52917,-1.1721 -1.18004,-1.1721 z"
       id="path302"
       style="fill:#ffffff;stroke-width:0.264583" />
    <path
       class="st57"
       d="m 72.352079,112.846 c -0.37306,0 -0.67469,0.30162 -0.67469,0.67469 0,0.37306 0.30163,0.67468 0.67469,0.67468 0.37306,0 0.67469,-0.30162 0.67469,-0.67468 0,-0.37042 -0.30163,-0.67469 -0.67469,-0.67469 z"
       id="path304"
       style="fill:#ffffff;stroke-width:0.264583" />
    <path
       class="st57"
       d="m 68.010269,110.53089 c -1.45257,0 -2.50825,0.97367 -2.50825,2.31511 0,0.21167 0.17198,0.38629 0.38629,0.38629 0.21431,0 0.38629,-0.17198 0.38629,-0.38629 0,-0.58208 0.29369,-1.0504 0.77258,-1.31233 v 2.68287 c 0,0.005 0.003,0.0106 0.003,0.0159 0,0.005 -0.003,0.0106 -0.003,0.0159 v 3.22792 c 0,0.21431 0.17198,0.38629 0.38629,0.38629 0.21167,0 0.3863,-0.17198 0.3863,-0.38629 v -2.89454 h 0.38629 v 2.89454 c 0,0.21431 0.17198,0.38629 0.38629,0.38629 0.21431,0 0.38629,-0.17198 0.38629,-0.38629 v -3.22792 c 0,-0.005 -0.003,-0.0106 -0.003,-0.0159 0,-0.005 0.003,-0.0106 0.003,-0.0159 v -2.68287 c 0.4789,0.26193 0.77258,0.73025 0.77258,1.31233 0,0.21167 0.17198,0.38629 0.3863,0.38629 0.21431,0 0.38629,-0.17198 0.38629,-0.38629 -0.005,-1.34144 -1.05834,-2.31511 -2.51354,-2.31511 z"
       id="path306"
       style="fill:#ffffff;stroke-width:0.264583" />
    <path
       class="st57"
       d="m 69.169139,110.33775 c 0.42598,0 0.77258,-0.34661 0.77258,-0.77258 0,-0.42598 -0.3466,-0.77259 -0.77258,-0.77259 -0.42598,0 -0.77258,0.34661 -0.77258,0.77259 0,0.42862 0.3466,0.77258 0.77258,0.77258 z"
       id="path308"
       style="fill:#ffffff;stroke-width:0.264583" />
    <path
       class="st57"
       d="m 71.870539,110.2425 c 0,0.15875 0.12964,0.28839 0.28839,0.28839 h 0.77259 c 0.15875,0 0.28839,-0.12964 0.28839,-0.28839 0,-0.15875 -0.12964,-0.2884 -0.28839,-0.2884 h -0.77259 c -0.15875,0 -0.28839,0.12965 -0.28839,0.2884 z"
       id="path310"
       style="fill:#ffffff;stroke-width:0.264583" />
    <path
       class="st57"
       d="m 71.256699,109.92235 c 0.0423,0.0212 0.0847,0.0291 0.12965,0.0291 0.10583,0 0.20902,-0.0582 0.25929,-0.15875 l 0.38629,-0.77259 c 0.0714,-0.14287 0.0132,-0.3175 -0.12964,-0.38893 -0.14288,-0.0714 -0.3175,-0.0132 -0.38894,0.12964 l -0.38629,0.77259 c -0.0688,0.14287 -0.0132,0.3175 0.12964,0.38893 z"
       id="path312"
       style="fill:#ffffff;stroke-width:0.264583" />
    <path
       class="st57"
       d="m 71.513349,111.72152 c 0.0503,0.10054 0.15346,0.15875 0.25929,0.15875 0.045,0 0.0873,-0.0106 0.12965,-0.0291 0.14287,-0.0714 0.20108,-0.24607 0.12964,-0.38894 l -0.38629,-0.77259 c -0.0714,-0.14287 -0.24606,-0.20108 -0.38894,-0.12964 -0.14287,0.0714 -0.20108,0.24606 -0.12964,0.38894 z"
       id="path314"
       style="fill:#ffffff;stroke-width:0.264583" />
  </g>
</svg>
